{
.appVersion = "1365";
DisplayStrings = (
"/uni05D1/uni05D0/uni05D7/uni05D8/uni05D6/uni05DE/uni05E4"
);
customParameters = (
{
name = panose;
value = (
0,
0,
0,
0,
0,
0,
0,
0,
0,
0
);
},
{
name = unicodeRanges;
value = (
0,
1,
2,
3,
4,
5,
6,
7,
9,
11,
24,
29,
31,
33,
35,
36,
37,
38,
45,
48,
62
);
},
{
name = blueScale;
value = 0.037;
},
{
name = glyphOrder;
value = (
.notdef,
space,
A,
Aacute,
Abreve,
uni1EAE,
uni1EB6,
uni1EB0,
uni1EB2,
uni1EB4,
Acircumflex,
uni1EA4,
uni1EAC,
uni1EA6,
uni1EA8,
uni1EAA,
Adieresis,
uni1EA0,
Agrave,
uni1EA2,
Amacron,
Aogonek,
Aring,
Atilde,
AE,
B,
C,
Cacute,
Ccaron,
Ccedilla,
Ccircumflex,
Cdotaccent,
D,
Eth,
Dcaron,
Dcroat,
E,
Eacute,
Ebreve,
Ecaron,
Ecircumflex,
uni1EBE,
uni1EC6,
uni1EC0,
uni1EC2,
uni1EC4,
Edieresis,
Edotaccent,
uni1EB8,
Egrave,
uni1EBA,
Emacron,
Eogonek,
uni1EBC,
uni018F,
F,
G,
Gbreve,
Gcircumflex,
uni0122,
Gdotaccent,
H,
Hbar,
Hcircumflex,
I,
IJ,
Iacute,
Ibreve,
Icircumflex,
Idieresis,
Idotaccent,
uni1ECA,
Igrave,
uni1EC8,
Imacron,
Iogonek,
Itilde,
J,
uni004A0301,
Jcircumflex,
K,
uni0136,
L,
Lacute,
Lcaron,
uni013B,
Lslash,
M,
N,
Nacute,
Ncaron,
uni0145,
Ntilde,
O,
Oacute,
Obreve,
Ocircumflex,
uni1ED0,
uni1ED8,
uni1ED2,
uni1ED4,
uni1ED6,
Odieresis,
uni1ECC,
Ograve,
uni1ECE,
Ohorn,
uni1EDA,
uni1EE2,
uni1EDC,
uni1EDE,
uni1EE0,
Ohungarumlaut,
Omacron,
Oslash,
Otilde,
OE,
P,
Thorn,
Q,
R,
Racute,
Rcaron,
uni0156,
S,
Sacute,
Scaron,
Scedilla,
Scircumflex,
uni0218,
uni1E9E,
T,
Tbar,
Tcaron,
uni0162,
uni021A,
U,
Uacute,
Ubreve,
Ucircumflex,
Udieresis,
uni1EE4,
Ugrave,
uni1EE6,
Uhorn,
uni1EE8,
uni1EF0,
uni1EEA,
uni1EEC,
uni1EEE,
Uhungarumlaut,
Umacron,
Uogonek,
Uring,
Utilde,
V,
W,
Wacute,
Wcircumflex,
Wdieresis,
Wgrave,
X,
Y,
Yacute,
Ycircumflex,
Ydieresis,
uni1EF4,
Ygrave,
uni1EF6,
uni1EF6.,
uni1EF8,
Z,
Zacute,
Zcaron,
Zdotaccent,
A.ss01,
Aacute.ss01,
Abreve.ss01,
uni1EB2.ss01,
Acircumflex.ss01,
uni1EA8.ss01,
Adieresis.ss01,
Agrave.ss01,
uni1EA2.ss01,
Amacron.ss01,
Aogonek.ss01,
Aring.ss01,
Atilde.ss01,
M.ss01,
N.ss01,

glyphs = (
{
glyphname = .notdef;
layers = (
{
hints = (
{
horizontal = 1;
place = "{-200, 69}";
type = Stem;
},
{
horizontal = 1;
place = "{-98, 47}";
type = Stem;
},
{
horizontal = 1;
place = "{-18, 23}";
type = Stem;
},
{
horizontal = 1;
place = "{38, 47}";
type = Stem;
},
{
horizontal = 1;
place = "{118, 60}";
type = Stem;
},
{
horizontal = 1;
place = "{211, 24}";
type = Stem;
},
{
horizontal = 1;
place = "{291, 22}";
type = Stem;
},
{
horizontal = 1;
place = "{347, 23}";
type = Stem;
},
{
horizontal = 1;
place = "{403, 37}";
type = Stem;
},
{
horizontal = 1;
place = "{473, 27}";
type = Stem;
},
{
horizontal = 1;
place = "{534, 36}";
type = Stem;
},
{
horizontal = 1;
place = "{604, 26}";
type = Stem;
},
{
horizontal = 1;
place = "{663, 37}";
type = Stem;
},
{
horizontal = 1;
place = "{733, 67}";
type = Stem;
},
{
place = "{93, 74}";
type = Stem;
},
{
place = "{200, 33}";
type = Stem;
},
{
place = "{267, 33}";
type = Stem;
},
{
place = "{333, 77}";
type = Stem;
},
{
place = "{93, 140}";
type = Stem;
},
{
place = "{267, 143}";
type = Stem;
},
{
horizontal = 1;
place = "{413, 27}";
type = Stem;
},
{
place = "{93, 75}";
type = Stem;
},
{
place = "{200, 210}";
type = Stem;
},
{
place = "{93, 207}";
type = Stem;
}
);
layerId = "932F2AAA-B43D-49B5-A115-0F830113A58F";
paths = (
{
closed = 1;
nodes = (
"410 800 LINE",
"93 800 LINE",
"93 -200 LINE",
"410 -200 LINE"
);
},
{
closed = 1;
nodes = (
"167 -131 LINE",
"167 -98 LINE",
"237 -51 LINE",
"167 -51 LINE",
"167 -18 LINE",
"333 -18 LINE",
"333 -51 LINE",
"301 -51 LINE",
"231 -98 LINE",
"333 -98 LINE",
"333 -131 LINE"
);
},
{
closed = 1;
nodes = (
"167 5 LINE",
"167 118 LINE",
"333 118 LINE",
"333 5 LINE"
);
},
{
closed = 1;
nodes = (
"167 178 LINE",
"167 291 LINE",
"200 291 LINE",
"200 211 LINE",
"300 211 LINE",
"300 258 LINE",
"267 258 LINE",
"267 235 LINE",
"233 235 LINE",
"233 291 LINE",
"333 291 LINE",
"333 178 LINE"
);
},
{
closed = 1;
nodes = (
"167 313 LINE",
"167 347 LINE",
"300 347 LINE",
"300 413 LINE",
"333 413 LINE",
"333 313 LINE"
);
},
{
closed = 1;
nodes = (
"167 370 LINE",
"167 403 LINE",
"233 403 LINE",
"233 440 LINE",
"167 440 LINE",
"167 473 LINE",
"333 473 LINE",
"333 440 LINE",
"267 440 LINE",
"267 370 LINE"
);
},
{
closed = 1;
nodes = (
"167 500 LINE",
"167 604 LINE",
"267 604 LINE",
"267 534 LINE",
"333 534 LINE",
"333 500 LINE"
);
},
{
closed = 1;
nodes = (
"167 630 LINE",
"167 663 LINE",
"233 663 LINE",
"233 700 LINE",
"168 700 LINE",
"168 733 LINE",
"333 733 LINE",
"333 700 LINE",
"267 700 LINE",
"267 663 LINE",
"333 663 LINE",
"333 630 LINE"
);
},
{
closed = 1;
nodes = (
"200 38 LINE",
"300 38 LINE",
"300 85 LINE",
"200 85 LINE"
);
},
{
closed = 1;
nodes = (
"200 534 LINE",
"233 534 LINE",
"233 570 LINE",
"200 570 LINE"
);
}
);
width = 500;
}
);
note = .notdef;
},
{
glyphname = A;
layers = (
{
hints = (
{
horizontal = 1;
place = "{0, 21}";
target = up;
type = BottomGhost;
},
{
horizontal = 1;
place = "{116, 128}";
type = Stem;
},
{
horizontal = 1;
place = "{700, -20}";
target = down;
type = TopGhost;
},
{
place = "{-2, 787}";
type = Stem;
}
);
layerId = "932F2AAA-B43D-49B5-A115-0F830113A58F";
paths = (
{
closed = 1;
nodes = (
"-2 0 LINE",
"179 0 LINE",
"233 116 LINE",
"548 116 LINE",
"601 0 LINE",
"785 0 LINE",
"451 700 LINE",
"337 700 LINE"
);
},
{
closed = 1;
nodes = (
"292 244 LINE",
"392 460 LINE",
"490 244 LINE"
);
}
);
width = 786;
}
);
leftKerningGroup = A;
note = A;
rightKerningGroup = A;
unicode = 0041;
},
{
glyphname = Aacute;
layers = (
{
hints = (
{
horizontal = 1;
place = "{0, 21}";
target = up;
type = BottomGhost;
},
{
horizontal = 1;
place = "{116, 128}";
type = Stem;
},
{
horizontal = 1;
place = "{700, -20}";
target = down;
type = TopGhost;
},
{
horizontal = 1;
place = "{761, 179}";
type = Stem;
},
{
place = "{-2, 787}";
type = Stem;
}
);
layerId = "932F2AAA-B43D-49B5-A115-0F830113A58F";
paths = (
{
closed = 1;
nodes = (
"-2 0 LINE",
"179 0 LINE",
"233 116 LINE",
"548 116 LINE",
"601 0 LINE",
"785 0 LINE",
"451 700 LINE",
"337 700 LINE"
);
},
{
closed = 1;
nodes = (
"292 244 LINE",
"392 460 LINE",
"490 244 LINE"
);
},
{
closed = 1;
nodes = (
"327 761 LINE",
"430 761 LINE",
"563 940 LINE",
"390 940 LINE"
);
}
);
width = 786;
}
);
leftKerningGroup = A;
note = Aacute;
rightKerningGroup = A;
unicode = 00C1;
},
{
glyphname = Abreve;
layers = (
{
hints = (
{
horizontal = 1;
place = "{0, 21}";
target = up;
type = BottomGhost;
},
{
horizontal = 1;
place = "{116, 128}";
type = Stem;
},
{
horizontal = 1;
place = "{700, -20}";
target = down;
type = TopGhost;
},
{
horizontal = 1;
place = "{747, 170}";
type = Stem;
},
{
place = "{-2, 787}";
type = Stem;
},
{
horizontal = 1;
place = "{747, 107}";
type = Stem;
}
);
layerId = "932F2AAA-B43D-49B5-A115-0F830113A58F";
paths = (
{
closed = 1;
nodes = (
"-2 0 LINE",
"179 0 LINE",
"233 116 LINE",
"548 116 LINE",
"601 0 LINE",
"785 0 LINE",
"451 700 LINE",
"337 700 LINE"
);
},
{
closed = 1;
nodes = (
"211 917 LINE",
"219 802 OFFCURVE",
"302 747 OFFCURVE",
"393 747 CURVE SMOOTH",
"484 747 OFFCURVE",
"566 801 OFFCURVE",
"574 917 CURVE",
"458 917 LINE",
"456 884 OFFCURVE",
"434 854 OFFCURVE",
"393 854 CURVE SMOOTH",
"351 854 OFFCURVE",
"329 884 OFFCURVE",
"327 917 CURVE"
);
},
{
closed = 1;
nodes = (
"292 244 LINE",
"392 460 LINE",
"490 244 LINE"
);
}
);
width = 786;
}
);
leftKerningGroup = A;
note = Abreve;
rightKerningGroup = A;
unicode = 0102;
},
{
glyphname = uni1EAE;
layers = (
{
hints = (
{
horizontal = 1;
place = "{0, 21}";
target = up;
type = BottomGhost;
},
{
horizontal = 1;
place = "{116, 128}";
type = Stem;
},
{
horizontal = 1;
place = "{700, -20}";
target = down;
type = TopGhost;
},
{
horizontal = 1;
place = "{747, 107}";
type = Stem;
},
{
horizontal = 1;
place = "{930, 179}";
type = Stem;
},
{
place = "{-2, 787}";
type = Stem;
},
{
horizontal = 1;
place = "{747, 170}";
type = Stem;
}
);
layerId = "932F2AAA-B43D-49B5-A115-0F830113A58F";
paths = (
{
closed = 1;
nodes = (
"-2 0 LINE",
"179 0 LINE",
"233 116 LINE",
"548 116 LINE",
"601 0 LINE",
"785 0 LINE",
"451 700 LINE",
"337 700 LINE"
);
},
{
closed = 1;
nodes = (
"213 917 LINE",
"221 802 OFFCURVE",
"304 747 OFFCURVE",
"395 747 CURVE SMOOTH",
"486 747 OFFCURVE",
"568 801 OFFCURVE",
"576 917 CURVE",
"460 917 LINE",
"458 884 OFFCURVE",
"436 854 OFFCURVE",
"395 854 CURVE SMOOTH",
"353 854 OFFCURVE",
"331 884 OFFCURVE",
"329 917 CURVE"
);
},
{
closed = 1;
nodes = (
"292 244 LINE",
"392 460 LINE",
"490 244 LINE"
);
},
{
closed = 1;
nodes = (
"329 930 LINE",
"432 930 LINE",
"565 1109 LINE",
"392 1109 LINE"
);
}
);
width = 786;
}
);
leftKerningGroup = A;
note = uni1EAE;
rightKerningGroup = A;
unicode = 1EAE;
},
{
glyphname = uni1EB6;
layers = (
{
hints = (
{
horizontal = 1;
place = "{-243, 186}";
type = Stem;
},
{
horizontal = 1;
place = "{0, 21}";
target = up;
type = BottomGhost;
},
{
horizontal = 1;
place = "{116, 128}";
type = Stem;
},
{
horizontal = 1;
place = "{700, -20}";
target = down;
type = TopGhost;
},
{
horizontal = 1;
place = "{747, 170}";
type = Stem;
},
{
place = "{299, 186}";
type = Stem;
},
{
horizontal = 1;
place = "{747, 107}";
type = Stem;
}
);
layerId = "932F2AAA-B43D-49B5-A115-0F830113A58F";
paths = (
{
closed = 1;
nodes = (
"-2 0 LINE",
"179 0 LINE",
"233 116 LINE",
"548 116 LINE",
"601 0 LINE",
"785 0 LINE",
"451 700 LINE",
"337 700 LINE"
);
},
{
closed = 1;
nodes = (
"211 917 LINE",
"219 802 OFFCURVE",
"302 747 OFFCURVE",
"393 747 CURVE SMOOTH",
"484 747 OFFCURVE",
"566 801 OFFCURVE",
"574 917 CURVE",
"458 917 LINE",
"456 884 OFFCURVE",
"434 854 OFFCURVE",
"393 854 CURVE SMOOTH",
"351 854 OFFCURVE",
"329 884 OFFCURVE",
"327 917 CURVE"
);
},
{
closed = 1;
nodes = (
"292 244 LINE",
"392 460 LINE",
"490 244 LINE"
);
},
{
closed = 1;
nodes = (
"299 -201 OFFCURVE",
"341 -243 OFFCURVE",
"392 -243 CURVE SMOOTH",
"443 -243 OFFCURVE",
"485 -201 OFFCURVE",
"485 -150 CURVE SMOOTH",
"485 -100 OFFCURVE",
"443 -57 OFFCURVE",
"392 -57 CURVE SMOOTH",
"341 -57 OFFCURVE",
"299 -100 OFFCURVE",
"299 -150 CURVE SMOOTH"
);
}
);
width = 786;
}
);
leftKerningGroup = A;
note = uni1EB6;
rightKerningGroup = A;
unicode = 1EB6;
},
{
glyphname = uni1EB0;
layers = (
{
hints = (
{
horizontal = 1;
place = "{0, 21}";
target = up;
type = BottomGhost;
},
{
horizontal = 1;
place = "{116, 128}";
type = Stem;
},
{
horizontal = 1;
place = "{700, -20}";
target = down;
type = TopGhost;
},
{
horizontal = 1;
place = "{747, 107}";
type = Stem;
},
{
horizontal = 1;
place = "{930, 179}";
type = Stem;
},
{
place = "{-2, 787}";
type = Stem;
},
{
horizontal = 1;
place = "{747, 170}";
type = Stem;
}
);
layerId = "932F2AAA-B43D-49B5-A115-0F830113A58F";
paths = (
{
closed = 1;
nodes = (
"-2 0 LINE",
"179 0 LINE",
"233 116 LINE",
"548 116 LINE",
"601 0 LINE",
"785 0 LINE",
"451 700 LINE",
"337 700 LINE"
);
},
{
closed = 1;
nodes = (
"211 917 LINE",
"219 802 OFFCURVE",
"302 747 OFFCURVE",
"393 747 CURVE SMOOTH",
"484 747 OFFCURVE",
"566 801 OFFCURVE",
"574 917 CURVE",
"458 917 LINE",
"456 884 OFFCURVE",
"434 854 OFFCURVE",
"393 854 CURVE SMOOTH",
"351 854 OFFCURVE",
"329 884 OFFCURVE",
"327 917 CURVE"
);
},
{
closed = 1;
nodes = (
"229 1109 LINE",
"362 930 LINE",
"465 930 LINE",
"402 1109 LINE"
);
},
{
closed = 1;
nodes = (
"292 244 LINE",
"392 460 LINE",
"490 244 LINE"
);
}
);
width = 786;
}
);
leftKerningGroup = A;
note = uni1EB0;
rightKerningGroup = A;
unicode = 1EB0;
},
{
glyphname = uni1EB2;
layers = (
{
hints = (
{
horizontal = 1;
place = "{0, 21}";
target = up;
type = BottomGhost;
},
{
horizontal = 1;
place = "{116, 128}";
type = Stem;
},
{
horizontal = 1;
place = "{700, -20}";
target = down;
type = TopGhost;
},
{
horizontal = 1;
place = "{747, 170}";
type = Stem;
},
{
horizontal = 1;
place = "{1000, 119}";
type = Stem;
},
{
place = "{267, 99}";
type = Stem;
},
{
place = "{419, 103}";
type = Stem;
},
{
horizontal = 1;
place = "{747, 107}";
type = Stem;
},
{
horizontal = 1;
place = "{1034, 85}";
type = Stem;
},
{
horizontal = 1;
place = "{930, 189}";
type = Stem;
}
);
layerId = "932F2AAA-B43D-49B5-A115-0F830113A58F";
paths = (
{
closed = 1;
nodes = (
"-2 0 LINE",
"179 0 LINE",
"233 116 LINE",
"548 116 LINE",
"601 0 LINE",
"785 0 LINE",
"451 700 LINE",
"337 700 LINE"
);
},
{
closed = 1;
nodes = (
"211 917 LINE",
"219 802 OFFCURVE",
"302 747 OFFCURVE",
"393 747 CURVE SMOOTH",
"484 747 OFFCURVE",
"566 801 OFFCURVE",
"574 917 CURVE",
"458 917 LINE",
"456 884 OFFCURVE",
"434 854 OFFCURVE",
"393 854 CURVE SMOOTH",
"351 854 OFFCURVE",
"329 884 OFFCURVE",
"327 917 CURVE"
);
},
{
closed = 1;
nodes = (
"366 1000 LINE",
"366 1020 OFFCURVE",
"376 1034 OFFCURVE",
"395 1034 CURVE SMOOTH",
"413 1034 OFFCURVE",
"419 1025 OFFCURVE",
"419 1014 CURVE SMOOTH",
"419 983 OFFCURVE",
"352 982 OFFCURVE",
"352 930 CURVE",
"450 930 LINE",
"455 958 OFFCURVE",
"522 955 OFFCURVE",
"522 1032 CURVE SMOOTH",
"522 1088 OFFCURVE",
"478 1119 OFFCURVE",
"401 1119 CURVE SMOOTH",
"314 1119 OFFCURVE",
"267 1066 OFFCURVE",
"267 1000 CURVE"
);
},
{
closed = 1;
nodes = (
"292 244 LINE",
"392 460 LINE",
"490 244 LINE"
);
}
);
width = 786;
}
);
leftKerningGroup = A;
note = uni1EB2;
rightKerningGroup = A;
unicode = 1EB2;
},
{
glyphname = uni1EB4;
layers = (
{
hints = (
{
horizontal = 1;
place = "{0, 21}";
target = up;
type = BottomGhost;
},
{
horizontal = 1;
place = "{116, 128}";
type = Stem;
},
{
horizontal = 1;
place = "{700, -20}";
target = down;
type = TopGhost;
},
{
horizontal = 1;
place = "{747, 170}";
type = Stem;
},
{
horizontal = 1;
place = "{985, 109}";
type = Stem;
},
{
place = "{-2, 787}";
type = Stem;
},
{
horizontal = 1;
place = "{945, 149}";
type = Stem;
},
{
place = "{197, 111}";
type = Stem;
},
{
horizontal = 1;
place = "{940, 149}";
type = Stem;
},
{
place = "{478, 110}";
type = Stem;
},
{
horizontal = 1;
place = "{940, 109}";
type = Stem;
},
{
place = "{211, 97}";
type = Stem;
},
{
horizontal = 1;
place = "{747, 107}";
type = Stem;
}
);
layerId = "932F2AAA-B43D-49B5-A115-0F830113A58F";
paths = (
{
closed = 1;
nodes = (
"-2 0 LINE",
"179 0 LINE",
"233 116 LINE",
"548 116 LINE",
"601 0 LINE",
"785 0 LINE",
"451 700 LINE",
"337 700 LINE"
);
},
{
closed = 1;
nodes = (
"308 945 LINE",
"310 969 OFFCURVE",
"321 985 OFFCURVE",
"343 985 CURVE SMOOTH",
"374 985 OFFCURVE",
"394 940 OFFCURVE",
"458 940 CURVE SMOOTH",
"535 940 OFFCURVE",
"583 995 OFFCURVE",
"588 1089 CURVE",
"478 1089 LINE",
"476 1065 OFFCURVE",
"465 1049 OFFCURVE",
"443 1049 CURVE SMOOTH",
"412 1049 OFFCURVE",
"393 1094 OFFCURVE",
"330 1094 CURVE SMOOTH",
"253 1094 OFFCURVE",
"202 1043 OFFCURVE",
"197 945 CURVE"
);
},
{
closed = 1;
nodes = (
"211 917 LINE",
"219 802 OFFCURVE",
"302 747 OFFCURVE",
"393 747 CURVE SMOOTH",
"484 747 OFFCURVE",
"566 801 OFFCURVE",
"574 917 CURVE",
"458 917 LINE",
"456 884 OFFCURVE",
"434 854 OFFCURVE",
"393 854 CURVE SMOOTH",
"351 854 OFFCURVE",
"329 884 OFFCURVE",
"327 917 CURVE"
);
},
{
closed = 1;
nodes = (
"292 244 LINE",
"392 460 LINE",
"490 244 LINE"
);
}
);
width = 786;
}
);
leftKerningGroup = A;
note = uni1EB4;
rightKerningGroup = A;
unicode = 1EB4;
},
{
glyphname = Acircumflex;
layers = (
{
hints = (
{
horizontal = 1;
place = "{0, 21}";
target = up;
type = BottomGhost;
},
{
horizontal = 1;
place = "{116, 128}";
type = Stem;
},
{
horizontal = 1;
place = "{700, -20}";
target = down;
type = TopGhost;
},
{
place = "{-2, 787}";
type = Stem;
},
{
place = "{229, 327}";
type = Stem;
}
);
layerId = "932F2AAA-B43D-49B5-A115-0F830113A58F";
paths = (
{
closed = 1;
nodes = (
"-2 0 LINE",
"179 0 LINE",
"233 116 LINE",
"548 116 LINE",
"601 0 LINE",
"785 0 LINE",
"451 700 LINE",
"337 700 LINE"
);
},
{
closed = 1;
nodes = (
"229 747 LINE",
"392 827 LINE",
"556 747 LINE",
"556 867 LINE",
"392 948 LINE",
"229 867 LINE"
);
},
{
closed = 1;
nodes = (
"292 244 LINE",
"392 460 LINE",
"490 244 LINE"
);
}
);
width = 786;
}
);
leftKerningGroup = A;
note = Acircumflex;
rightKerningGroup = A;
unicode = 00C2;
},
{
glyphname = uni1EA4;
layers = (
{
hints = (
{
horizontal = 1;
place = "{0, 21}";
target = up;
type = BottomGhost;
},
{
horizontal = 1;
place = "{116, 128}";
type = Stem;
},
{
horizontal = 1;
place = "{700, -20}";
target = down;
type = TopGhost;
},
{
horizontal = 1;
place = "{930, 179}";
type = Stem;
},
{
place = "{-2, 787}";
type = Stem;
},
{
place = "{229, 327}";
type = Stem;
}
);
layerId = "932F2AAA-B43D-49B5-A115-0F830113A58F";
paths = (
{
closed = 1;
nodes = (
"-2 0 LINE",
"179 0 LINE",
"233 116 LINE",
"548 116 LINE",
"601 0 LINE",
"785 0 LINE",
"451 700 LINE",
"337 700 LINE"
);
},
{
closed = 1;
nodes = (
"229 747 LINE",
"392 827 LINE",
"556 747 LINE",
"556 867 LINE",
"392 948 LINE",
"229 867 LINE"
);
},
{
closed = 1;
nodes = (
"292 244 LINE",
"392 460 LINE",
"490 244 LINE"
);
},
{
closed = 1;
nodes = (
"457 930 LINE",
"560 930 LINE",
"693 1109 LINE",
"520 1109 LINE"
);
}
);
width = 786;
}
);
leftKerningGroup = A;
note = uni1EA4;
rightKerningGroup = A;
unicode = 1EA4;
},
{
glyphname = uni1EAC;
layers = (
{
hints = (
{
horizontal = 1;
place = "{0, 21}";
target = up;
type = BottomGhost;
},
{
horizontal = 1;
place = "{116, 128}";
type = Stem;
},
{
horizontal = 1;
place = "{700, -20}";
target = down;
type = TopGhost;
},
{
place = "{299, 186}";
type = Stem;
},
{
place = "{229, 327}";
type = Stem;
},
{
horizontal = 1;
place = "{-243, 186}";
type = Stem;
}
);
layerId = "932F2AAA-B43D-49B5-A115-0F830113A58F";
paths = (
{
closed = 1;
nodes = (
"-2 0 LINE",
"179 0 LINE",
"233 116 LINE",
"548 116 LINE",
"601 0 LINE",
"785 0 LINE",
"451 700 LINE",
"337 700 LINE"
);
},
{
closed = 1;
nodes = (
"229 747 LINE",
"392 827 LINE",
"556 747 LINE",
"556 867 LINE",
"392 948 LINE",
"229 867 LINE"
);
},
{
closed = 1;
nodes = (
"292 244 LINE",
"392 460 LINE",
"490 244 LINE"
);
},
{
closed = 1;
nodes = (
"299 -201 OFFCURVE",
"341 -243 OFFCURVE",
"392 -243 CURVE SMOOTH",
"443 -243 OFFCURVE",
"485 -201 OFFCURVE",
"485 -150 CURVE SMOOTH",
"485 -100 OFFCURVE",
"443 -57 OFFCURVE",
"392 -57 CURVE SMOOTH",
"341 -57 OFFCURVE",
"299 -100 OFFCURVE",
"299 -150 CURVE SMOOTH"
);
}
);
width = 786;
}
);
leftKerningGroup = A;
note = uni1EAC;
rightKerningGroup = A;
unicode = 1EAC;
},
{
glyphname = uni1EA6;
layers = (
{
hints = (
{
horizontal = 1;
place = "{0, 21}";
target = up;
type = BottomGhost;
},
{
horizontal = 1;
place = "{116, 128}";
type = Stem;
},
{
horizontal = 1;
place = "{700, -20}";
target = down;
type = TopGhost;
},
{
horizontal = 1;
place = "{930, 179}";
type = Stem;
},
{
place = "{-2, 787}";
type = Stem;
},
{
place = "{229, 327}";
type = Stem;
}
);
layerId = "932F2AAA-B43D-49B5-A115-0F830113A58F";
paths = (
{
closed = 1;
nodes = (
"-2 0 LINE",
"179 0 LINE",
"233 116 LINE",
"548 116 LINE",
"601 0 LINE",
"785 0 LINE",
"451 700 LINE",
"337 700 LINE"
);
},
{
closed = 1;
nodes = (
"229 747 LINE",
"392 827 LINE",
"556 747 LINE",
"556 867 LINE",
"392 948 LINE",
"229 867 LINE"
);
},
{
closed = 1;
nodes = (
"292 244 LINE",
"392 460 LINE",
"490 244 LINE"
);
},
{
closed = 1;
nodes = (
"358 1109 LINE",
"491 930 LINE",
"594 930 LINE",
"531 1109 LINE"
);
}
);
width = 786;
}
);
leftKerningGroup = A;
note = uni1EA6;
rightKerningGroup = A;
unicode = 1EA6;
},
{
glyphname = uni1EA8;
layers = (
{
hints = (
{
horizontal = 1;
place = "{0, 21}";
target = up;
type = BottomGhost;
},
{
horizontal = 1;
place = "{116, 128}";
type = Stem;
},
{
horizontal = 1;
place = "{700, -20}";
target = down;
type = TopGhost;
},
{
horizontal = 1;
place = "{1000, 119}";
type = Stem;
},
{
place = "{396, 99}";
type = Stem;
},
{
place = "{548, 103}";
type = Stem;
},
{
place = "{229, 327}";
type = Stem;
},
{
place = "{481, 75}";
type = Stem;
},
{
horizontal = 1;
place = "{1034, 85}";
type = Stem;
},
{
horizontal = 1;
place = "{930, 189}";
type = Stem;
}
);
layerId = "932F2AAA-B43D-49B5-A115-0F830113A58F";
paths = (
{
closed = 1;
nodes = (
"-2 0 LINE",
"179 0 LINE",
"233 116 LINE",
"548 116 LINE",
"601 0 LINE",
"785 0 LINE",
"451 700 LINE",
"337 700 LINE"
);
},
{
closed = 1;
nodes = (
"229 747 LINE",
"392 827 LINE",
"556 747 LINE",
"556 867 LINE",
"392 948 LINE",
"229 867 LINE"
);
},
{
closed = 1;
nodes = (
"292 244 LINE",
"392 460 LINE",
"490 244 LINE"
);
},
{
closed = 1;
nodes = (
"495 1000 LINE",
"495 1020 OFFCURVE",
"505 1034 OFFCURVE",
"524 1034 CURVE SMOOTH",
"542 1034 OFFCURVE",
"548 1025 OFFCURVE",
"548 1014 CURVE SMOOTH",
"548 983 OFFCURVE",
"481 982 OFFCURVE",
"481 930 CURVE",
"579 930 LINE",
"584 958 OFFCURVE",
"651 955 OFFCURVE",
"651 1032 CURVE SMOOTH",
"651 1088 OFFCURVE",
"607 1119 OFFCURVE",
"530 1119 CURVE SMOOTH",
"443 1119 OFFCURVE",
"396 1066 OFFCURVE",
"396 1000 CURVE"
);
}
);
width = 786;
}
);
leftKerningGroup = A;
note = uni1EA8;
rightKerningGroup = A;
unicode = 1EA8;
},
{
glyphname = uni1EAA;
layers = (
{
hints = (
{
horizontal = 1;
place = "{0, 21}";
target = up;
type = BottomGhost;
},
{
horizontal = 1;
place = "{116, 128}";
type = Stem;
},
{
horizontal = 1;
place = "{700, -20}";
target = down;
type = TopGhost;
},
{
place = "{-2, 787}";
type = Stem;
},
{
horizontal = 1;
place = "{951, 149}";
type = Stem;
},
{
place = "{202, 111}";
type = Stem;
},
{
horizontal = 1;
place = "{991, 109}";
type = Stem;
},
{
horizontal = 1;
place = "{946, 149}";
type = Stem;
},
{
place = "{483, 110}";
type = Stem;
},
{
horizontal = 1;
place = "{946, 109}";
type = Stem;
},
{
place = "{229, 327}";
type = Stem;
}
);
layerId = "932F2AAA-B43D-49B5-A115-0F830113A58F";
paths = (
{
closed = 1;
nodes = (
"-2 0 LINE",
"179 0 LINE",
"233 116 LINE",
"548 116 LINE",
"601 0 LINE",
"785 0 LINE",
"451 700 LINE",
"337 700 LINE"
);
},
{
closed = 1;
nodes = (
"313 951 LINE",
"315 975 OFFCURVE",
"326 991 OFFCURVE",
"348 991 CURVE SMOOTH",
"379 991 OFFCURVE",
"399 946 OFFCURVE",
"463 946 CURVE SMOOTH",
"540 946 OFFCURVE",
"588 1001 OFFCURVE",
"593 1095 CURVE",
"483 1095 LINE",
"481 1071 OFFCURVE",
"470 1055 OFFCURVE",
"448 1055 CURVE SMOOTH",
"417 1055 OFFCURVE",
"398 1100 OFFCURVE",
"335 1100 CURVE SMOOTH",
"258 1100 OFFCURVE",
"207 1049 OFFCURVE",
"202 951 CURVE"
);
},
{
closed = 1;
nodes = (
"229 747 LINE",
"392 827 LINE",
"556 747 LINE",
"556 867 LINE",
"392 948 LINE",
"229 867 LINE"
);
},
{
closed = 1;
nodes = (
"292 244 LINE",
"392 460 LINE",
"490 244 LINE"
);
}
);
width = 786;
}
);
leftKerningGroup = A;
note = uni1EAA;
rightKerningGroup = A;
unicode = 1EAA;
},
{
glyphname = Adieresis;
layers = (
{
hints = (
{
horizontal = 1;
place = "{0, 21}";
target = up;
type = BottomGhost;
},
{
horizontal = 1;
place = "{116, 128}";
type = Stem;
},
{
horizontal = 1;
place = "{700, -20}";
target = down;
type = TopGhost;
},
{
horizontal = 1;
place = "{761, 180}";
type = Stem;
},
{
place = "{188, 181}";
type = Stem;
},
{
place = "{418, 180}";
type = Stem;
}
);
layerId = "932F2AAA-B43D-49B5-A115-0F830113A58F";
paths = (
{
closed = 1;
nodes = (
"-2 0 LINE",
"179 0 LINE",
"233 116 LINE",
"548 116 LINE",
"601 0 LINE",
"785 0 LINE",
"451 700 LINE",
"337 700 LINE"
);
},
{
closed = 1;
nodes = (
"188 802 OFFCURVE",
"229 761 OFFCURVE",
"278 761 CURVE SMOOTH",
"328 761 OFFCURVE",
"369 802 OFFCURVE",
"369 851 CURVE SMOOTH",
"369 900 OFFCURVE",
"328 941 OFFCURVE",
"278 941 CURVE SMOOTH",
"229 941 OFFCURVE",
"188 900 OFFCURVE",
"188 851 CURVE SMOOTH"
);
},
{
closed = 1;
nodes = (
"292 244 LINE",
"392 460 LINE",
"490 244 LINE"
);
},
{
closed = 1;
nodes = (
"418 802 OFFCURVE",
"458 761 OFFCURVE",
"508 761 CURVE SMOOTH",
"557 761 OFFCURVE",
"598 802 OFFCURVE",
"598 851 CURVE SMOOTH",
"598 900 OFFCURVE",
"557 941 OFFCURVE",
"508 941 CURVE SMOOTH",
"458 941 OFFCURVE",
"418 900 OFFCURVE",
"418 851 CURVE SMOOTH"
);
}
);
width = 786;
}
);
leftKerningGroup = A;
note = Adieresis;
rightKerningGroup = A;
unicode = 00C4;
},
{
glyphname = uni1EA0;
layers = (
{
hints = (
{
horizontal = 1;
place = "{-243, 186}";
type = Stem;
},
{
horizontal = 1;
place = "{0, 21}";
target = up;
type = BottomGhost;
},
{
horizontal = 1;
place = "{116, 128}";
type = Stem;
},
{
horizontal = 1;
place = "{700, -20}";
target = down;
type = TopGhost;
},
{
place = "{299, 186}";
type = Stem;
}
);
layerId = "932F2AAA-B43D-49B5-A115-0F830113A58F";
paths = (
{
closed = 1;
nodes = (
"-2 0 LINE",
"179 0 LINE",
"233 116 LINE",
"548 116 LINE",
"601 0 LINE",
"785 0 LINE",
"451 700 LINE",
"337 700 LINE"
);
},
{
closed = 1;
nodes = (
"292 244 LINE",
"392 460 LINE",
"490 244 LINE"
);
},
{
closed = 1;
nodes = (
"299 -201 OFFCURVE",
"341 -243 OFFCURVE",
"392 -243 CURVE SMOOTH",
"443 -243 OFFCURVE",
"485 -201 OFFCURVE",
"485 -150 CURVE SMOOTH",
"485 -100 OFFCURVE",
"443 -57 OFFCURVE",
"392 -57 CURVE SMOOTH",
"341 -57 OFFCURVE",
"299 -100 OFFCURVE",
"299 -150 CURVE SMOOTH"
);
}
);
width = 786;
}
);
leftKerningGroup = A;
note = uni1EA0;
rightKerningGroup = A;
unicode = 1EA0;
},
{
glyphname = Agrave;
layers = (
{
hints = (
{
horizontal = 1;
place = "{0, 21}";
target = up;
type = BottomGhost;
},
{
horizontal = 1;
place = "{116, 128}";
type = Stem;
},
{
horizontal = 1;
place = "{700, -20}";
target = down;
type = TopGhost;
},
{
horizontal = 1;
place = "{761, 179}";
type = Stem;
},
{
place = "{-2, 787}";
type = Stem;
}
);
layerId = "932F2AAA-B43D-49B5-A115-0F830113A58F";
paths = (
{
closed = 1;
nodes = (
"-2 0 LINE",
"179 0 LINE",
"233 116 LINE",
"548 116 LINE",
"601 0 LINE",
"785 0 LINE",
"451 700 LINE",
"337 700 LINE"
);
},
{
closed = 1;
nodes = (
"229 940 LINE",
"362 761 LINE",
"465 761 LINE",
"402 940 LINE"
);
},
{
closed = 1;
nodes = (
"292 244 LINE",
"392 460 LINE",
"490 244 LINE"
);
}
);
width = 786;
}
);
leftKerningGroup = A;
note = Agrave;
rightKerningGroup = A;
unicode = 00C0;
},
{
glyphname = uni1EA2;
layers = (
{
hints = (
{
horizontal = 1;
place = "{0, 21}";
target = up;
type = BottomGhost;
},
{
horizontal = 1;
place = "{116, 128}";
type = Stem;
},
{
horizontal = 1;
place = "{700, -20}";
target = down;
type = TopGhost;
},
{
horizontal = 1;
place = "{831, 119}";
type = Stem;
},
{
place = "{266, 99}";
type = Stem;
},
{
place = "{418, 103}";
type = Stem;
},
{
horizontal = 1;
place = "{865, 85}";
type = Stem;
},
{
horizontal = 1;
place = "{761, 189}";
type = Stem;
}
);
layerId = "932F2AAA-B43D-49B5-A115-0F830113A58F";
paths = (
{
closed = 1;
nodes = (
"-2 0 LINE",
"179 0 LINE",
"233 116 LINE",
"548 116 LINE",
"601 0 LINE",
"785 0 LINE",
"451 700 LINE",
"337 700 LINE"
);
},
{
closed = 1;
nodes = (
"365 831 LINE",
"365 851 OFFCURVE",
"375 865 OFFCURVE",
"394 865 CURVE SMOOTH",
"412 865 OFFCURVE",
"418 856 OFFCURVE",
"418 845 CURVE SMOOTH",
"418 814 OFFCURVE",
"351 813 OFFCURVE",
"351 761 CURVE",
"449 761 LINE",
"454 789 OFFCURVE",
"521 786 OFFCURVE",
"521 863 CURVE SMOOTH",
"521 919 OFFCURVE",
"477 950 OFFCURVE",
"400 950 CURVE SMOOTH",
"313 950 OFFCURVE",
"266 897 OFFCURVE",
"266 831 CURVE"
);
},
{
closed = 1;
nodes = (
"292 244 LINE",
"392 460 LINE",
"490 244 LINE"
);
}
);
width = 786;
}
);
leftKerningGroup = A;
note = uni1EA2;
rightKerningGroup = A;
unicode = 1EA2;
},
{
glyphname = Amacron;
layers = (
{
hints = (
{
horizontal = 1;
place = "{0, 21}";
target = up;
type = BottomGhost;
},
{
horizontal = 1;
place = "{116, 128}";
type = Stem;
},
{
horizontal = 1;
place = "{700, -20}";
target = down;
type = TopGhost;
},
{
horizontal = 1;
place = "{786, 113}";
type = Stem;
},
{
place = "{-2, 787}";
type = Stem;
}
);
layerId = "932F2AAA-B43D-49B5-A115-0F830113A58F";
paths = (
{
closed = 1;
nodes = (
"-2 0 LINE",
"179 0 LINE",
"233 116 LINE",
"548 116 LINE",
"601 0 LINE",
"785 0 LINE",
"451 700 LINE",
"337 700 LINE"
);
},
{
closed = 1;
nodes = (
"213 786 LINE",
"575 786 LINE",
"575 899 LINE",
"213 899 LINE"
);
},
{
closed = 1;
nodes = (
"292 244 LINE",
"392 460 LINE",
"490 244 LINE"
);
}
);
width = 786;
}
);
leftKerningGroup = A;
note = Amacron;
rightKerningGroup = A;
unicode = 0100;
},
{
glyphname = Aogonek;
layers = (
{
hints = (
{
horizontal = 1;
place = "{-210, 21}";
target = up;
type = BottomGhost;
},
{
horizontal = 1;
place = "{0, 21}";
target = up;
type = BottomGhost;
},
{
horizontal = 1;
place = "{116, 128}";
type = Stem;
},
{
horizontal = 1;
place = "{700, -20}";
target = down;
type = TopGhost;
},
{
place = "{541, 158}";
type = Stem;
},
{
horizontal = 1;
place = "{-210, 105}";
type = Stem;
},
{
place = "{-4, 792}";
type = Stem;
}
);
layerId = "932F2AAA-B43D-49B5-A115-0F830113A58F";
paths = (
{
closed = 1;
nodes = (
"720 -210 OFFCURVE",
"759 -203 OFFCURVE",
"775 -198 CURVE",
"788 -98 LINE",
"788 -98 OFFCURVE",
"765 -105 OFFCURVE",
"744 -105 CURVE SMOOTH",
"717 -105 OFFCURVE",
"699 -94 OFFCURVE",
"699 -71 CURVE SMOOTH",
"699 -45 OFFCURVE",
"722 -20 OFFCURVE",
"783 0 CURVE",
"448 700 LINE",
"334 700 LINE",
"-4 0 LINE",
"177 0 LINE",
"230 116 LINE",
"547 116 LINE",
"605 -11 LINE",
"558 -35 OFFCURVE",
"541 -72 OFFCURVE",
"541 -105 CURVE SMOOTH",
"541 -184 OFFCURVE",
"614 -210 OFFCURVE",
"687 -210 CURVE SMOOTH"
);
},
{
closed = 1;
nodes = (
"289 244 LINE",
"389 460 LINE",
"488 244 LINE"
);
}
);
width = 785;
}
);
leftKerningGroup = A;
note = Aogonek;
rightKerningGroup = A;
unicode = 0104;
},
{
glyphname = Aring;
layers = (
{
hints = (
{
horizontal = 1;
place = "{0, 21}";
target = up;
type = BottomGhost;
},
{
horizontal = 1;
place = "{116, 128}";
type = Stem;
},
{
horizontal = 1;
place = "{826, 85}";
type = Stem;
},
{
place = "{267, 86}";
type = Stem;
},
{
place = "{425, 85}";
type = Stem;
}
);
layerId = "932F2AAA-B43D-49B5-A115-0F830113A58F";
paths = (
{
closed = 1;
nodes = (
"-2 0 LINE",
"179 0 LINE",
"233 116 LINE",
"548 116 LINE",
"601 0 LINE",
"785 0 LINE",
"456 689 LINE",
"489 711 OFFCURVE",
"510 748 OFFCURVE",
"510 789 CURVE SMOOTH",
"510 856 OFFCURVE",
"456 911 OFFCURVE",
"389 911 CURVE SMOOTH",
"321 911 OFFCURVE",
"267 856 OFFCURVE",
"267 789 CURVE SMOOTH",
"267 744 OFFCURVE",
"292 705 OFFCURVE",
"329 684 CURVE"
);
},
{
closed = 1;
nodes = (
"292 244 LINE",
"392 460 LINE",
"490 244 LINE"
);
},
{
closed = 1;
nodes = (
"353 810 OFFCURVE",
"369 826 OFFCURVE",
"389 826 CURVE SMOOTH",
"408 826 OFFCURVE",
"425 810 OFFCURVE",
"425 790 CURVE SMOOTH",
"425 770 OFFCURVE",
"408 754 OFFCURVE",
"389 754 CURVE SMOOTH",
"369 754 OFFCURVE",
"353 770 OFFCURVE",
"353 790 CURVE SMOOTH"
);
}
);
width = 782;
}
);
leftKerningGroup = A;
note = Aring;
rightKerningGroup = A;
unicode = 00C5;
},
{
glyphname = Atilde;
layers = (
{
hints = (
{
horizontal = 1;
place = "{0, 21}";
target = up;
type = BottomGhost;
},
{
horizontal = 1;
place = "{116, 128}";
type = Stem;
},
{
horizontal = 1;
place = "{700, -20}";
target = down;
type = TopGhost;
},
{
place = "{-2, 787}";
type = Stem;
},
{
horizontal = 1;
place = "{776, 149}";
type = Stem;
},
{
place = "{197, 111}";
type = Stem;
},
{
horizontal = 1;
place = "{816, 109}";
type = Stem;
},
{
horizontal = 1;
place = "{771, 149}";
type = Stem;
},
{
place = "{478, 110}";
type = Stem;
},
{
horizontal = 1;
place = "{771, 109}";
type = Stem;
}
);
layerId = "932F2AAA-B43D-49B5-A115-0F830113A58F";
paths = (
{
closed = 1;
nodes = (
"-2 0 LINE",
"179 0 LINE",
"233 116 LINE",
"548 116 LINE",
"601 0 LINE",
"785 0 LINE",
"451 700 LINE",
"337 700 LINE"
);
},
{
closed = 1;
nodes = (
"308 776 LINE",
"310 800 OFFCURVE",
"321 816 OFFCURVE",
"343 816 CURVE SMOOTH",
"374 816 OFFCURVE",
"394 771 OFFCURVE",
"458 771 CURVE SMOOTH",
"535 771 OFFCURVE",
"583 826 OFFCURVE",
"588 920 CURVE",
"478 920 LINE",
"476 896 OFFCURVE",
"465 880 OFFCURVE",
"443 880 CURVE SMOOTH",
"412 880 OFFCURVE",
"393 925 OFFCURVE",
"330 925 CURVE SMOOTH",
"253 925 OFFCURVE",
"202 874 OFFCURVE",
"197 776 CURVE"
);
},
{
closed = 1;
nodes = (
"292 244 LINE",
"392 460 LINE",
"490 244 LINE"
);
}
);
width = 786;
}
);
leftKerningGroup = A;
note = Atilde;
rightKerningGroup = A;
unicode = 00C3;
},
{
glyphname = AE;
layers = (
{
hints = (
{
horizontal = 1;
place = "{0, 151}";
type = Stem;
},
{
horizontal = 1;
place = "{284, 142}";
type = Stem;
},
{
horizontal = 1;
place = "{549, 151}";
type = Stem;
},
{
place = "{531, 165}";
type = Stem;
},
{
horizontal = 1;
place = "{106, 124}";
type = Stem;
}
);
layerId = "932F2AAA-B43D-49B5-A115-0F830113A58F";
paths = (
{
closed = 1;
nodes = (
"-4 0 LINE",
"200 0 LINE",
"278 106 LINE",
"531 106 LINE",
"531 0 LINE",
"1067 0 LINE",
"1067 151 LINE",
"696 151 LINE",
"696 284 LINE",
"1027 284 LINE",
"1027 426 LINE",
"696 426 LINE",
"696 549 LINE",
"1057 549 LINE",
"1057 700 LINE",
"531 700 LINE"
);
},
{
closed = 1;
nodes = (
"369 230 LINE",
"531 450 LINE",
"531 230 LINE"
);
}
);
width = 1102;
}
);
leftKerningGroup = A;
note = AE;
rightKerningGroup = AE;
unicode = 00C6;
},
{
glyphname = B;
layers = (
{
hints = (
{
horizontal = 1;
place = "{0, 151}";
type = Stem;
},
{
horizontal = 1;
place = "{292, 131}";
type = Stem;
},
{
horizontal = 1;
place = "{549, 151}";
type = Stem;
},
{
place = "{61, 165}";
type = Stem;
},
{
place = "{543, 169}";
type = Stem;
},
{
place = "{514, 166}";
type = Stem;
}
);
layerId = "932F2AAA-B43D-49B5-A115-0F830113A58F";
paths = (
{
closed = 1;
nodes = (
"61 0 LINE",
"477 0 LINE SMOOTH",
"622 0 OFFCURVE",
"712 91 OFFCURVE",
"712 205 CURVE SMOOTH",
"712 280 OFFCURVE",
"674 340 OFFCURVE",
"609 373 CURVE",
"655 403 OFFCURVE",
"680 449 OFFCURVE",
"680 509 CURVE SMOOTH",
"680 618 OFFCURVE",
"600 700 OFFCURVE",
"459 700 CURVE SMOOTH",
"61 700 LINE"
);
},
{
closed = 1;
nodes = (
"226 151 LINE",
"226 292 LINE",
"466 292 LINE SMOOTH",
"507 292 OFFCURVE",
"543 261 OFFCURVE",
"543 221 CURVE SMOOTH",
"543 181 OFFCURVE",
"507 151 OFFCURVE",
"466 151 CURVE SMOOTH"
);
},
{
closed = 1;
nodes = (
"226 423 LINE",
"226 549 LINE",
"446 549 LINE SMOOTH",
"490 549 OFFCURVE",
"514 520 OFFCURVE",
"514 487 CURVE SMOOTH",
"514 453 OFFCURVE",
"490 423 OFFCURVE",
"446 423 CURVE SMOOTH"
);
}
);
width = 740;
}
);
leftKerningGroup = B;
note = B;
rightKerningGroup = B;
unicode = 0042;
},
{
glyphname = C;
layers = (
{
hints = (
{
horizontal = 1;
place = "{-12, 164}";
type = Stem;
},
{
horizontal = 1;
place = "{548, 164}";
type = Stem;
},
{
place = "{28, 171}";
type = Stem;
}
);
layerId = "932F2AAA-B43D-49B5-A115-0F830113A58F";
paths = (
{
closed = 1;
nodes = (
"581 -12 OFFCURVE",
"727 114 OFFCURVE",
"757 284 CURVE",
"581 284 LINE",
"554 205 OFFCURVE",
"483 152 OFFCURVE",
"397 152 CURVE SMOOTH",
"288 152 OFFCURVE",
"199 237 OFFCURVE",
"199 350 CURVE SMOOTH",
"199 463 OFFCURVE",
"288 548 OFFCURVE",
"397 548 CURVE SMOOTH",
"483 548 OFFCURVE",
"554 495 OFFCURVE",
"582 417 CURVE",
"757 417 LINE",
"727 586 OFFCURVE",
"581 712 OFFCURVE",
"397 712 CURVE SMOOTH",
"189 712 OFFCURVE",
"28 551 OFFCURVE",
"28 350 CURVE SMOOTH",
"28 149 OFFCURVE",
"189 -12 OFFCURVE",
"397 -12 CURVE SMOOTH"
);
}
);
width = 786;
}
);
leftKerningGroup = C;
note = C;
rightKerningGroup = C;
unicode = 0043;
},
{
glyphname = Cacute;
layers = (
{
hints = (
{
horizontal = 1;
place = "{-12, 164}";
type = Stem;
},
{
horizontal = 1;
place = "{548, 164}";
type = Stem;
},
{
horizontal = 1;
place = "{761, 179}";
type = Stem;
},
{
place = "{28, 171}";
type = Stem;
}
);
layerId = "932F2AAA-B43D-49B5-A115-0F830113A58F";
paths = (
{
closed = 1;
nodes = (
"581 -12 OFFCURVE",
"727 114 OFFCURVE",
"757 284 CURVE",
"581 284 LINE",
"554 205 OFFCURVE",
"483 152 OFFCURVE",
"397 152 CURVE SMOOTH",
"288 152 OFFCURVE",
"199 237 OFFCURVE",
"199 350 CURVE SMOOTH",
"199 463 OFFCURVE",
"288 548 OFFCURVE",
"397 548 CURVE SMOOTH",
"483 548 OFFCURVE",
"554 495 OFFCURVE",
"582 417 CURVE",
"757 417 LINE",
"727 586 OFFCURVE",
"581 712 OFFCURVE",
"397 712 CURVE SMOOTH",
"189 712 OFFCURVE",
"28 551 OFFCURVE",
"28 350 CURVE SMOOTH",
"28 149 OFFCURVE",
"189 -12 OFFCURVE",
"397 -12 CURVE SMOOTH"
);
},
{
closed = 1;
nodes = (
"329 761 LINE",
"432 761 LINE",
"565 940 LINE",
"392 940 LINE"
);
}
);
width = 786;
}
);
leftKerningGroup = C;
note = Cacute;
rightKerningGroup = C;
unicode = 0106;
},
{
glyphname = Ccaron;
layers = (
{
hints = (
{
horizontal = 1;
place = "{-12, 164}";
type = Stem;
},
{
horizontal = 1;
place = "{548, 164}";
type = Stem;
},
{
place = "{28, 171}";
type = Stem;
},
{
place = "{230, 327}";
type = Stem;
}
);
layerId = "932F2AAA-B43D-49B5-A115-0F830113A58F";
paths = (
{
closed = 1;
nodes = (
"581 -12 OFFCURVE",
"727 114 OFFCURVE",
"757 284 CURVE",
"581 284 LINE",
"554 205 OFFCURVE",
"483 152 OFFCURVE",
"397 152 CURVE SMOOTH",
"288 152 OFFCURVE",
"199 237 OFFCURVE",
"199 350 CURVE SMOOTH",
"199 463 OFFCURVE",
"288 548 OFFCURVE",
"397 548 CURVE SMOOTH",
"483 548 OFFCURVE",
"554 495 OFFCURVE",
"582 417 CURVE",
"757 417 LINE",
"727 586 OFFCURVE",
"581 712 OFFCURVE",
"397 712 CURVE SMOOTH",
"189 712 OFFCURVE",
"28 551 OFFCURVE",
"28 350 CURVE SMOOTH",
"28 149 OFFCURVE",
"189 -12 OFFCURVE",
"397 -12 CURVE SMOOTH"
);
},
{
closed = 1;
nodes = (
"230 819 LINE",
"393 738 LINE",
"557 819 LINE",
"557 939 LINE",
"393 859 LINE",
"230 939 LINE"
);
}
);
width = 786;
}
);
leftKerningGroup = C;
note = Ccaron;
rightKerningGroup = C;
unicode = 010C;
},
{
glyphname = Ccedilla;
layers = (
{
hints = (
{
horizontal = 1;
place = "{-210, 72}";
type = Stem;
},
{
horizontal = 1;
place = "{-9, 21}";
target = up;
type = BottomGhost;
},
{
horizontal = 1;
place = "{548, 164}";
type = Stem;
},
{
place = "{28, 171}";
type = Stem;
},
{
place = "{430, 142}";
type = Stem;
},
{
place = "{345, 97.5}";
type = Stem;
},
{
horizontal = 1;
place = "{-200, 21}";
target = up;
type = BottomGhost;
}
);
layerId = "932F2AAA-B43D-49B5-A115-0F830113A58F";
paths = (
{
closed = 1;
nodes = (
"515 -210 OFFCURVE",
"572 -179 OFFCURVE",
"572 -115 CURVE SMOOTH",
"572 -62 OFFCURVE",
"533 -31 OFFCURVE",
"442 -23 CURVE",
"443 -9 LINE",
"605 10 OFFCURVE",
"730 129 OFFCURVE",
"757 284 CURVE",
"581 284 LINE",
"554 205 OFFCURVE",
"483 152 OFFCURVE",
"397 152 CURVE SMOOTH",
"288 152 OFFCURVE",
"199 237 OFFCURVE",
"199 350 CURVE SMOOTH",
"199 463 OFFCURVE",
"288 548 OFFCURVE",
"397 548 CURVE SMOOTH",
"483 548 OFFCURVE",
"554 495 OFFCURVE",
"582 417 CURVE",
"757 417 LINE",
"727 586 OFFCURVE",
"581 712 OFFCURVE",
"397 712 CURVE SMOOTH",
"189 712 OFFCURVE",
"28 551 OFFCURVE",
"28 350 CURVE SMOOTH",
"28 165 OFFCURVE",
"164 14 OFFCURVE",
"348 -9 CURVE",
"342 -98 LINE",
"410 -98 OFFCURVE",
"430 -108 OFFCURVE",
"430 -122 CURVE SMOOTH",
"430 -137 OFFCURVE",
"408 -146 OFFCURVE",
"319 -130 CURVE",
"319 -200 LINE",
"319 -200 OFFCURVE",
"360 -210 OFFCURVE",
"427 -210 CURVE SMOOTH"
);
}
);
width = 786;
}
);
leftKerningGroup = C;
note = Ccedilla;
rightKerningGroup = C;
unicode = 00C7;
},
{
glyphname = Ccircumflex;
layers = (
{
hints = (
{
horizontal = 1;
place = "{-12, 164}";
type = Stem;
},
{
horizontal = 1;
place = "{548, 164}";
type = Stem;
},
{
place = "{28, 171}";
type = Stem;
},
{
place = "{231, 327}";
type = Stem;
}
);
layerId = "932F2AAA-B43D-49B5-A115-0F830113A58F";
paths = (
{
closed = 1;
nodes = (
"581 -12 OFFCURVE",
"727 114 OFFCURVE",
"757 284 CURVE",
"581 284 LINE",
"554 205 OFFCURVE",
"483 152 OFFCURVE",
"397 152 CURVE SMOOTH",
"288 152 OFFCURVE",
"199 237 OFFCURVE",
"199 350 CURVE SMOOTH",
"199 463 OFFCURVE",
"288 548 OFFCURVE",
"397 548 CURVE SMOOTH",
"483 548 OFFCURVE",
"554 495 OFFCURVE",
"582 417 CURVE",
"757 417 LINE",
"727 586 OFFCURVE",
"581 712 OFFCURVE",
"397 712 CURVE SMOOTH",
"189 712 OFFCURVE",
"28 551 OFFCURVE",
"28 350 CURVE SMOOTH",
"28 149 OFFCURVE",
"189 -12 OFFCURVE",
"397 -12 CURVE SMOOTH"
);
},
{
closed = 1;
nodes = (
"231 747 LINE",
"394 827 LINE",
"558 747 LINE",
"558 867 LINE",
"394 948 LINE",
"231 867 LINE"
);
}
);
width = 786;
}
);
leftKerningGroup = C;
note = Ccircumflex;
rightKerningGroup = C;
unicode = 0108;
},
{
glyphname = Cdotaccent;
layers = (
{
hints = (
{
horizontal = 1;
place = "{-12, 164}";
type = Stem;
},
{
horizontal = 1;
place = "{548, 164}";
type = Stem;
},
{
horizontal = 1;
place = "{758, 186}";
type = Stem;
},
{
place = "{28, 171}";
type = Stem;
},
{
place = "{301, 186}";
type = Stem;
}
);
layerId = "932F2AAA-B43D-49B5-A115-0F830113A58F";
paths = (
{
closed = 1;
nodes = (
"581 -12 OFFCURVE",
"727 114 OFFCURVE",
"757 284 CURVE",
"581 284 LINE",
"554 205 OFFCURVE",
"483 152 OFFCURVE",
"397 152 CURVE SMOOTH",
"288 152 OFFCURVE",
"199 237 OFFCURVE",
"199 350 CURVE SMOOTH",
"199 463 OFFCURVE",
"288 548 OFFCURVE",
"397 548 CURVE SMOOTH",
"483 548 OFFCURVE",
"554 495 OFFCURVE",
"582 417 CURVE",
"757 417 LINE",
"727 586 OFFCURVE",
"581 712 OFFCURVE",
"397 712 CURVE SMOOTH",
"189 712 OFFCURVE",
"28 551 OFFCURVE",
"28 350 CURVE SMOOTH",
"28 149 OFFCURVE",
"189 -12 OFFCURVE",
"397 -12 CURVE SMOOTH"
);
},
{
closed = 1;
nodes = (
"301 800 OFFCURVE",
"343 758 OFFCURVE",
"394 758 CURVE SMOOTH",
"445 758 OFFCURVE",
"487 800 OFFCURVE",
"487 851 CURVE SMOOTH",
"487 901 OFFCURVE",
"445 944 OFFCURVE",
"394 944 CURVE SMOOTH",
"343 944 OFFCURVE",
"301 901 OFFCURVE",
"301 851 CURVE SMOOTH"
);
}
);
width = 786;
}
);
leftKerningGroup = C;
note = Cdotaccent;
rightKerningGroup = C;
unicode = 010A;
},
{
glyphname = D;
layers = (
{
hints = (
{
horizontal = 1;
place = "{0, 156}";
type = Stem;
},
{
horizontal = 1;
place = "{545, 155}";
type = Stem;
},
{
place = "{61, 165}";
type = Stem;
},
{
place = "{557, 169}";
type = Stem;
}
);
layerId = "932F2AAA-B43D-49B5-A115-0F830113A58F";
paths = (
{
closed = 1;
nodes = (
"363 0 LINE SMOOTH",
"568 0 OFFCURVE",
"726 152 OFFCURVE",
"726 350 CURVE SMOOTH",
"726 548 OFFCURVE",
"568 700 OFFCURVE",
"363 700 CURVE SMOOTH",
"61 700 LINE",
"61 0 LINE"
);
},
{
closed = 1;
nodes = (
"226 156 LINE",
"226 545 LINE",
"363 545 LINE SMOOTH",
"470 545 OFFCURVE",
"557 461 OFFCURVE",
"557 350 CURVE SMOOTH",
"557 239 OFFCURVE",
"470 156 OFFCURVE",
"363 156 CURVE SMOOTH"
);
}
);
width = 754;
}
);
leftKerningGroup = B;
note = D;
rightKerningGroup = C;
unicode = 0044;
},
{
glyphname = Eth;
layers = (
{
hints = (
{
horizontal = 1;
place = "{0, 156}";
type = Stem;
},
{
horizontal = 1;
place = "{301, 113}";
type = Stem;
},
{
horizontal = 1;
place = "{545, 155}";
type = Stem;
},
{
place = "{61, 165}";
type = Stem;
},
{
place = "{557, 169}";
type = Stem;
}
);
layerId = "932F2AAA-B43D-49B5-A115-0F830113A58F";
paths = (
{
closed = 1;
nodes = (
"6 301 LINE",
"61 301 LINE",
"61 0 LINE",
"363 0 LINE SMOOTH",
"568 0 OFFCURVE",
"726 152 OFFCURVE",
"726 350 CURVE SMOOTH",
"726 548 OFFCURVE",
"568 700 OFFCURVE",
"363 700 CURVE SMOOTH",
"61 700 LINE",
"61 414 LINE",
"6 414 LINE"
);
},
{
closed = 1;
nodes = (
"226 156 LINE",
"226 301 LINE",
"379 301 LINE",
"379 414 LINE",
"226 414 LINE",
"226 545 LINE",
"363 545 LINE SMOOTH",
"470 545 OFFCURVE",
"557 461 OFFCURVE",
"557 350 CURVE SMOOTH",
"557 239 OFFCURVE",
"470 156 OFFCURVE",
"363 156 CURVE SMOOTH"
);
}
);
width = 747;
}
);
leftKerningGroup = B;
note = Eth;
rightKerningGroup = C;
unicode = 00D0;
},
{
glyphname = Dcaron;
layers = (
{
hints = (
{
horizontal = 1;
place = "{0, 156}";
type = Stem;
},
{
horizontal = 1;
place = "{545, 155}";
type = Stem;
},
{
place = "{61, 165}";
type = Stem;
},
{
place = "{557, 169}";
type = Stem;
},
{
place = "{188, 327}";
type = Stem;
}
);
layerId = "932F2AAA-B43D-49B5-A115-0F830113A58F";
paths = (
{
closed = 1;
nodes = (
"363 0 LINE SMOOTH",
"568 0 OFFCURVE",
"726 152 OFFCURVE",
"726 350 CURVE SMOOTH",
"726 548 OFFCURVE",
"568 700 OFFCURVE",
"363 700 CURVE SMOOTH",
"61 700 LINE",
"61 0 LINE"
);
},
{
closed = 1;
nodes = (
"188 819 LINE",
"351 738 LINE",
"515 819 LINE",
"515 939 LINE",
"351 859 LINE",
"188 939 LINE"
);
},
{
closed = 1;
nodes = (
"226 156 LINE",
"226 545 LINE",
"363 545 LINE SMOOTH",
"470 545 OFFCURVE",
"557 461 OFFCURVE",
"557 350 CURVE SMOOTH",
"557 239 OFFCURVE",
"470 156 OFFCURVE",
"363 156 CURVE SMOOTH"
);
}
);
width = 754;
}
);
leftKerningGroup = B;
note = Dcaron;
rightKerningGroup = C;
unicode = 010E;
},
{
glyphname = Dcroat;
layers = (
{
hints = (
{
horizontal = 1;
place = "{0, 156}";
type = Stem;
},
{
horizontal = 1;
place = "{301, 113}";
type = Stem;
},
{
horizontal = 1;
place = "{545, 155}";
type = Stem;
},
{
place = "{61, 165}";
type = Stem;
},
{
place = "{557, 169}";
type = Stem;
}
);
layerId = "932F2AAA-B43D-49B5-A115-0F830113A58F";
paths = (
{
closed = 1;
nodes = (
"6 301 LINE",
"61 301 LINE",
"61 0 LINE",
"363 0 LINE SMOOTH",
"568 0 OFFCURVE",
"726 152 OFFCURVE",
"726 350 CURVE SMOOTH",
"726 548 OFFCURVE",
"568 700 OFFCURVE",
"363 700 CURVE SMOOTH",
"61 700 LINE",
"61 414 LINE",
"6 414 LINE"
);
},
{
closed = 1;
nodes = (
"226 156 LINE",
"226 301 LINE",
"379 301 LINE",
"379 414 LINE",
"226 414 LINE",
"226 545 LINE",
"363 545 LINE SMOOTH",
"470 545 OFFCURVE",
"557 461 OFFCURVE",
"557 350 CURVE SMOOTH",
"557 239 OFFCURVE",
"470 156 OFFCURVE",
"363 156 CURVE SMOOTH"
);
}
);
width = 747;
}
);
leftKerningGroup = B;
note = Dcroat;
rightKerningGroup = C;
unicode = 0110;
},
{
glyphname = E;
layers = (
{
hints = (
{
horizontal = 1;
place = "{0, 151}";
type = Stem;
},
{
horizontal = 1;
place = "{284, 142}";
type = Stem;
},
{
horizontal = 1;
place = "{549, 151}";
type = Stem;
},
{
place = "{61, 165}";
type = Stem;
}
);
layerId = "932F2AAA-B43D-49B5-A115-0F830113A58F";
paths = (
{
closed = 1;
nodes = (
"61 0 LINE",
"622 0 LINE",
"622 151 LINE",
"226 151 LINE",
"226 284 LINE",
"582 284 LINE",
"582 426 LINE",
"226 426 LINE",
"226 549 LINE",
"612 549 LINE",
"612 700 LINE",
"61 700 LINE"
);
}
);
width = 657;
}
);
leftKerningGroup = B;
note = E;
rightKerningGroup = AE;
unicode = 0045;
},
{
glyphname = Eacute;
layers = (
{
hints = (
{
horizontal = 1;
place = "{0, 151}";
type = Stem;
},
{
horizontal = 1;
place = "{284, 142}";
type = Stem;
},
{
horizontal = 1;
place = "{549, 151}";
type = Stem;
},
{
horizontal = 1;
place = "{761, 179}";
type = Stem;
},
{
place = "{61, 165}";
type = Stem;
}
);
layerId = "932F2AAA-B43D-49B5-A115-0F830113A58F";
paths = (
{
closed = 1;
nodes = (
"61 0 LINE",
"622 0 LINE",
"622 151 LINE",
"226 151 LINE",
"226 284 LINE",
"582 284 LINE",
"582 426 LINE",
"226 426 LINE",
"226 549 LINE",
"612 549 LINE",
"612 700 LINE",
"61 700 LINE"
);
},
{
closed = 1;
nodes = (
"286 761 LINE",
"389 761 LINE",
"522 940 LINE",
"349 940 LINE"
);
}
);
width = 657;
}
);
leftKerningGroup = B;
note = Eacute;
rightKerningGroup = AE;
unicode = 00C9;
},
{
glyphname = Ebreve;
layers = (
{
hints = (
{
horizontal = 1;
place = "{0, 151}";
type = Stem;
},
{
horizontal = 1;
place = "{284, 142}";
type = Stem;
},
{
horizontal = 1;
place = "{549, 151}";
type = Stem;
},
{
horizontal = 1;
place = "{747, 170}";
type = Stem;
},
{
place = "{61, 165}";
type = Stem;
},
{
horizontal = 1;
place = "{747, 107}";
type = Stem;
}
);
layerId = "932F2AAA-B43D-49B5-A115-0F830113A58F";
paths = (
{
closed = 1;
nodes = (
"61 0 LINE",
"622 0 LINE",
"622 151 LINE",
"226 151 LINE",
"226 284 LINE",
"582 284 LINE",
"582 426 LINE",
"226 426 LINE",
"226 549 LINE",
"612 549 LINE",
"612 700 LINE",
"61 700 LINE"
);
},
{
closed = 1;
nodes = (
"170 917 LINE",
"178 802 OFFCURVE",
"261 747 OFFCURVE",
"352 747 CURVE SMOOTH",
"443 747 OFFCURVE",
"525 801 OFFCURVE",
"533 917 CURVE",
"417 917 LINE",
"415 884 OFFCURVE",
"393 854 OFFCURVE",
"352 854 CURVE SMOOTH",
"310 854 OFFCURVE",
"288 884 OFFCURVE",
"286 917 CURVE"
);
}
);
width = 657;
}
);
leftKerningGroup = B;
note = Ebreve;
rightKerningGroup = AE;
unicode = 0114;
},
{
glyphname = Ecaron;
layers = (
{
hints = (
{
horizontal = 1;
place = "{0, 151}";
type = Stem;
},
{
horizontal = 1;
place = "{284, 142}";
type = Stem;
},
{
horizontal = 1;
place = "{549, 151}";
type = Stem;
},
{
place = "{61, 165}";
type = Stem;
},
{
place = "{187, 327}";
type = Stem;
}
);
layerId = "932F2AAA-B43D-49B5-A115-0F830113A58F";
paths = (
{
closed = 1;
nodes = (
"61 0 LINE",
"622 0 LINE",
"622 151 LINE",
"226 151 LINE",
"226 284 LINE",
"582 284 LINE",
"582 426 LINE",
"226 426 LINE",
"226 549 LINE",
"612 549 LINE",
"612 700 LINE",
"61 700 LINE"
);
},
{
closed = 1;
nodes = (
"187 819 LINE",
"350 738 LINE",
"514 819 LINE",
"514 939 LINE",
"350 859 LINE",
"187 939 LINE"
);
}
);
width = 657;
}
);
leftKerningGroup = B;
note = Ecaron;
rightKerningGroup = AE;
unicode = 011A;
},
{
glyphname = Ecircumflex;
layers = (
{
hints = (
{
horizontal = 1;
place = "{0, 151}";
type = Stem;
},
{
horizontal = 1;
place = "{284, 142}";
type = Stem;
},
{
horizontal = 1;
place = "{549, 151}";
type = Stem;
},
{
place = "{61, 165}";
type = Stem;
},
{
place = "{188, 327}";
type = Stem;
}
);
layerId = "932F2AAA-B43D-49B5-A115-0F830113A58F";
paths = (
{
closed = 1;
nodes = (
"61 0 LINE",
"622 0 LINE",
"622 151 LINE",
"226 151 LINE",
"226 284 LINE",
"582 284 LINE",
"582 426 LINE",
"226 426 LINE",
"226 549 LINE",
"612 549 LINE",
"612 700 LINE",
"61 700 LINE"
);
},
{
closed = 1;
nodes = (
"188 747 LINE",
"351 827 LINE",
"515 747 LINE",
"515 867 LINE",
"351 948 LINE",
"188 867 LINE"
);
}
);
width = 657;
}
);
leftKerningGroup = B;
note = Ecircumflex;
rightKerningGroup = AE;
unicode = 00CA;
},
{
glyphname = uni1EBE;
layers = (
{
hints = (
{
horizontal = 1;
place = "{0, 151}";
type = Stem;
},
{
horizontal = 1;
place = "{284, 142}";
type = Stem;
},
{
horizontal = 1;
place = "{549, 151}";
type = Stem;
},
{
horizontal = 1;
place = "{930, 179}";
type = Stem;
},
{
place = "{61, 165}";
type = Stem;
},
{
place = "{188, 327}";
type = Stem;
}
);
layerId = "932F2AAA-B43D-49B5-A115-0F830113A58F";
paths = (
{
closed = 1;
nodes = (
"61 0 LINE",
"622 0 LINE",
"622 151 LINE",
"226 151 LINE",
"226 284 LINE",
"582 284 LINE",
"582 426 LINE",
"226 426 LINE",
"226 549 LINE",
"612 549 LINE",
"612 700 LINE",
"61 700 LINE"
);
},
{
closed = 1;
nodes = (
"188 747 LINE",
"351 827 LINE",
"515 747 LINE",
"515 867 LINE",
"351 948 LINE",
"188 867 LINE"
);
},
{
closed = 1;
nodes = (
"416 930 LINE",
"519 930 LINE",
"652 1109 LINE",
"479 1109 LINE"
);
}
);
width = 657;
}
);
leftKerningGroup = B;
note = uni1EBE;
rightKerningGroup = AE;
unicode = 1EBE;
},
{
glyphname = uni1EC6;
layers = (
{
hints = (
{
horizontal = 1;
place = "{0, 151}";
type = Stem;
},
{
horizontal = 1;
place = "{284, 142}";
type = Stem;
},
{
horizontal = 1;
place = "{549, 151}";
type = Stem;
},
{
place = "{61, 165}";
type = Stem;
},
{
place = "{188, 327}";
type = Stem;
},
{
horizontal = 1;
place = "{-243, 186}";
type = Stem;
},
{
place = "{268, 186}";
type = Stem;
}
);
layerId = "932F2AAA-B43D-49B5-A115-0F830113A58F";
paths = (
{
closed = 1;
nodes = (
"61 0 LINE",
"622 0 LINE",
"622 151 LINE",
"226 151 LINE",
"226 284 LINE",
"582 284 LINE",
"582 426 LINE",
"226 426 LINE",
"226 549 LINE",
"612 549 LINE",
"612 700 LINE",
"61 700 LINE"
);
},
{
closed = 1;
nodes = (
"188 747 LINE",
"351 827 LINE",
"515 747 LINE",
"515 867 LINE",
"351 948 LINE",
"188 867 LINE"
);
},
{
closed = 1;
nodes = (
"268 -201 OFFCURVE",
"310 -243 OFFCURVE",
"361 -243 CURVE SMOOTH",
"412 -243 OFFCURVE",
"454 -201 OFFCURVE",
"454 -150 CURVE SMOOTH",
"454 -100 OFFCURVE",
"412 -57 OFFCURVE",
"361 -57 CURVE SMOOTH",
"310 -57 OFFCURVE",
"268 -100 OFFCURVE",
"268 -150 CURVE SMOOTH"
);
}
);
width = 657;
}
);
leftKerningGroup = B;
note = uni1EC6;
rightKerningGroup = AE;
unicode = 1EC6;
},
{
glyphname = uni1EC0;
layers = (
{
hints = (
{
horizontal = 1;
place = "{0, 151}";
type = Stem;
},
{
horizontal = 1;
place = "{284, 142}";
type = Stem;
},
{
horizontal = 1;
place = "{549, 151}";
type = Stem;
},
{
horizontal = 1;
place = "{930, 179}";
type = Stem;
},
{
place = "{61, 165}";
type = Stem;
},
{
place = "{188, 327}";
type = Stem;
}
);
layerId = "932F2AAA-B43D-49B5-A115-0F830113A58F";
paths = (
{
closed = 1;
nodes = (
"61 0 LINE",
"622 0 LINE",
"622 151 LINE",
"226 151 LINE",
"226 284 LINE",
"582 284 LINE",
"582 426 LINE",
"226 426 LINE",
"226 549 LINE",
"612 549 LINE",
"612 700 LINE",
"61 700 LINE"
);
},
{
closed = 1;
nodes = (
"188 747 LINE",
"351 827 LINE",
"515 747 LINE",
"515 867 LINE",
"351 948 LINE",
"188 867 LINE"
);
},
{
closed = 1;
nodes = (
"318 1109 LINE",
"451 930 LINE",
"554 930 LINE",
"491 1109 LINE"
);
}
);
width = 657;
}
);
leftKerningGroup = B;
note = uni1EC0;
rightKerningGroup = AE;
unicode = 1EC0;
},
{
glyphname = uni1EC2;
layers = (
{
hints = (
{
horizontal = 1;
place = "{0, 151}";
type = Stem;
},
{
horizontal = 1;
place = "{284, 142}";
type = Stem;
},
{
horizontal = 1;
place = "{549, 151}";
type = Stem;
},
{
horizontal = 1;
place = "{1000, 119}";
type = Stem;
},
{
place = "{61, 165}";
type = Stem;
},
{
place = "{188, 327}";
type = Stem;
},
{
place = "{440, 75}";
type = Stem;
},
{
place = "{355, 99}";
type = Stem;
},
{
horizontal = 1;
place = "{1034, 85}";
type = Stem;
},
{
place = "{507, 103}";
type = Stem;
},
{
horizontal = 1;
place = "{930, 189}";
type = Stem;
}
);
layerId = "932F2AAA-B43D-49B5-A115-0F830113A58F";
paths = (
{
closed = 1;
nodes = (
"61 0 LINE",
"622 0 LINE",
"622 151 LINE",
"226 151 LINE",
"226 284 LINE",
"582 284 LINE",
"582 426 LINE",
"226 426 LINE",
"226 549 LINE",
"612 549 LINE",
"612 700 LINE",
"61 700 LINE"
);
},
{
closed = 1;
nodes = (
"188 747 LINE",
"351 827 LINE",
"515 747 LINE",
"515 867 LINE",
"351 948 LINE",
"188 867 LINE"
);
},
{
closed = 1;
nodes = (
"454 1000 LINE",
"454 1020 OFFCURVE",
"464 1034 OFFCURVE",
"483 1034 CURVE SMOOTH",
"501 1034 OFFCURVE",
"507 1025 OFFCURVE",
"507 1014 CURVE SMOOTH",
"507 983 OFFCURVE",
"440 982 OFFCURVE",
"440 930 CURVE",
"538 930 LINE",
"543 958 OFFCURVE",
"610 955 OFFCURVE",
"610 1032 CURVE SMOOTH",
"610 1088 OFFCURVE",
"566 1119 OFFCURVE",
"489 1119 CURVE SMOOTH",
"402 1119 OFFCURVE",
"355 1066 OFFCURVE",
"355 1000 CURVE"
);
}
);
width = 657;
}
);
leftKerningGroup = B;
note = uni1EC2;
rightKerningGroup = AE;
unicode = 1EC2;
},
{
glyphname = uni1EC4;
layers = (
{
hints = (
{
horizontal = 1;
place = "{0, 151}";
type = Stem;
},
{
horizontal = 1;
place = "{284, 142}";
type = Stem;
},
{
horizontal = 1;
place = "{549, 151}";
type = Stem;
},
{
place = "{61, 165}";
type = Stem;
},
{
horizontal = 1;
place = "{951, 149}";
type = Stem;
},
{
place = "{161, 111}";
type = Stem;
},
{
horizontal = 1;
place = "{991, 109}";
type = Stem;
},
{
horizontal = 1;
place = "{946, 149}";
type = Stem;
},
{
place = "{442, 110}";
type = Stem;
},
{
horizontal = 1;
place = "{946, 109}";
type = Stem;
},
{
place = "{188, 327}";
type = Stem;
}
);
layerId = "932F2AAA-B43D-49B5-A115-0F830113A58F";
paths = (
{
closed = 1;
nodes = (
"61 0 LINE",
"622 0 LINE",
"622 151 LINE",
"226 151 LINE",
"226 284 LINE",
"582 284 LINE",
"582 426 LINE",
"226 426 LINE",
"226 549 LINE",
"612 549 LINE",
"612 700 LINE",
"61 700 LINE"
);
},
{
closed = 1;
nodes = (
"272 951 LINE",
"274 975 OFFCURVE",
"285 991 OFFCURVE",
"307 991 CURVE SMOOTH",
"338 991 OFFCURVE",
"358 946 OFFCURVE",
"422 946 CURVE SMOOTH",
"499 946 OFFCURVE",
"547 1001 OFFCURVE",
"552 1095 CURVE",
"442 1095 LINE",
"440 1071 OFFCURVE",
"429 1055 OFFCURVE",
"407 1055 CURVE SMOOTH",
"376 1055 OFFCURVE",
"357 1100 OFFCURVE",
"294 1100 CURVE SMOOTH",
"217 1100 OFFCURVE",
"166 1049 OFFCURVE",
"161 951 CURVE"
);
},
{
closed = 1;
nodes = (
"188 747 LINE",
"351 827 LINE",
"515 747 LINE",
"515 867 LINE",
"351 948 LINE",
"188 867 LINE"
);
}
);
width = 657;
}
);
leftKerningGroup = B;
note = uni1EC4;
rightKerningGroup = AE;
unicode = 1EC4;
},
{
glyphname = Edieresis;
layers = (
{
hints = (
{
horizontal = 1;
place = "{0, 151}";
type = Stem;
},
{
horizontal = 1;
place = "{284, 142}";
type = Stem;
},
{
horizontal = 1;
place = "{549, 151}";
type = Stem;
},
{
place = "{61, 165}";
type = Stem;
},
{
horizontal = 1;
place = "{761, 180}";
type = Stem;
},
{
place = "{148, 180}";
type = Stem;
},
{
place = "{377, 180}";
type = Stem;
}
);
layerId = "932F2AAA-B43D-49B5-A115-0F830113A58F";
paths = (
{
closed = 1;
nodes = (
"61 0 LINE",
"622 0 LINE",
"622 151 LINE",
"226 151 LINE",
"226 284 LINE",
"582 284 LINE",
"582 426 LINE",
"226 426 LINE",
"226 549 LINE",
"612 549 LINE",
"612 700 LINE",
"61 700 LINE"
);
},
{
closed = 1;
nodes = (
"148 802 OFFCURVE",
"188 761 OFFCURVE",
"238 761 CURVE SMOOTH",
"287 761 OFFCURVE",
"328 802 OFFCURVE",
"328 851 CURVE SMOOTH",
"328 900 OFFCURVE",
"287 941 OFFCURVE",
"238 941 CURVE SMOOTH",
"188 941 OFFCURVE",
"148 900 OFFCURVE",
"148 851 CURVE SMOOTH"
);
},
{
closed = 1;
nodes = (
"377 802 OFFCURVE",
"418 761 OFFCURVE",
"467 761 CURVE SMOOTH",
"517 761 OFFCURVE",
"557 802 OFFCURVE",
"557 851 CURVE SMOOTH",
"557 900 OFFCURVE",
"517 941 OFFCURVE",
"467 941 CURVE SMOOTH",
"418 941 OFFCURVE",
"377 900 OFFCURVE",
"377 851 CURVE SMOOTH"
);
}
);
width = 657;
}
);
leftKerningGroup = B;
note = Edieresis;
rightKerningGroup = AE;
unicode = 00CB;
},
{
glyphname = Edotaccent;
layers = (
{
hints = (
{
horizontal = 1;
place = "{0, 151}";
type = Stem;
},
{
horizontal = 1;
place = "{284, 142}";
type = Stem;
},
{
horizontal = 1;
place = "{549, 151}";
type = Stem;
},
{
horizontal = 1;
place = "{758, 186}";
type = Stem;
},
{
place = "{61, 165}";
type = Stem;
},
{
place = "{259, 186}";
type = Stem;
}
);
layerId = "932F2AAA-B43D-49B5-A115-0F830113A58F";
paths = (
{
closed = 1;
nodes = (
"61 0 LINE",
"622 0 LINE",
"622 151 LINE",
"226 151 LINE",
"226 284 LINE",
"582 284 LINE",
"582 426 LINE",
"226 426 LINE",
"226 549 LINE",
"612 549 LINE",
"612 700 LINE",
"61 700 LINE"
);
},
{
closed = 1;
nodes = (
"259 800 OFFCURVE",
"301 758 OFFCURVE",
"352 758 CURVE SMOOTH",
"403 758 OFFCURVE",
"445 800 OFFCURVE",
"445 851 CURVE SMOOTH",
"445 901 OFFCURVE",
"403 944 OFFCURVE",
"352 944 CURVE SMOOTH",
"301 944 OFFCURVE",
"259 901 OFFCURVE",
"259 851 CURVE SMOOTH"
);
}
);
width = 657;
}
);
leftKerningGroup = B;
note = Edotaccent;
rightKerningGroup = AE;
unicode = 0116;
},
{
glyphname = uni1EB8;
layers = (
{
hints = (
{
horizontal = 1;
place = "{-243, 186}";
type = Stem;
},
{
horizontal = 1;
place = "{0, 151}";
type = Stem;
},
{
horizontal = 1;
place = "{284, 142}";
type = Stem;
},
{
horizontal = 1;
place = "{549, 151}";
type = Stem;
},
{
place = "{61, 165}";
type = Stem;
},
{
place = "{268, 186}";
type = Stem;
}
);
layerId = "932F2AAA-B43D-49B5-A115-0F830113A58F";
paths = (
{
closed = 1;
nodes = (
"61 0 LINE",
"622 0 LINE",
"622 151 LINE",
"226 151 LINE",
"226 284 LINE",
"582 284 LINE",
"582 426 LINE",
"226 426 LINE",
"226 549 LINE",
"612 549 LINE",
"612 700 LINE",
"61 700 LINE"
);
},
{
closed = 1;
nodes = (
"268 -201 OFFCURVE",
"310 -243 OFFCURVE",
"361 -243 CURVE SMOOTH",
"412 -243 OFFCURVE",
"454 -201 OFFCURVE",
"454 -150 CURVE SMOOTH",
"454 -100 OFFCURVE",
"412 -57 OFFCURVE",
"361 -57 CURVE SMOOTH",
"310 -57 OFFCURVE",
"268 -100 OFFCURVE",
"268 -150 CURVE SMOOTH"
);
}
);
width = 657;
}
);
leftKerningGroup = B;
note = uni1EB8;
rightKerningGroup = AE;
unicode = 1EB8;
},
{
glyphname = Egrave;
layers = (
{
hints = (
{
horizontal = 1;
place = "{0, 151}";
type = Stem;
},
{
horizontal = 1;
place = "{284, 142}";
type = Stem;
},
{
horizontal = 1;
place = "{549, 151}";
type = Stem;
},
{
horizontal = 1;
place = "{761, 179}";
type = Stem;
},
{
place = "{61, 165}";
type = Stem;
}
);
layerId = "932F2AAA-B43D-49B5-A115-0F830113A58F";
paths = (
{
closed = 1;
nodes = (
"61 0 LINE",
"622 0 LINE",
"622 151 LINE",
"226 151 LINE",
"226 284 LINE",
"582 284 LINE",
"582 426 LINE",
"226 426 LINE",
"226 549 LINE",
"612 549 LINE",
"612 700 LINE",
"61 700 LINE"
);
},
{
closed = 1;
nodes = (
"188 940 LINE",
"321 761 LINE",
"424 761 LINE",
"361 940 LINE"
);
}
);
width = 657;
}
);
leftKerningGroup = B;
note = Egrave;
rightKerningGroup = AE;
unicode = 00C8;
},
{
glyphname = uni1EBA;
layers = (
{
hints = (
{
horizontal = 1;
place = "{0, 151}";
type = Stem;
},
{
horizontal = 1;
place = "{284, 142}";
type = Stem;
},
{
horizontal = 1;
place = "{549, 151}";
type = Stem;
},
{
horizontal = 1;
place = "{831, 119}";
type = Stem;
},
{
place = "{61, 165}";
type = Stem;
},
{
place = "{226, 99}";
type = Stem;
},
{
horizontal = 1;
place = "{865, 85}";
type = Stem;
},
{
place = "{378, 103}";
type = Stem;
},
{
horizontal = 1;
place = "{761, 189}";
type = Stem;
}
);
layerId = "932F2AAA-B43D-49B5-A115-0F830113A58F";
paths = (
{
closed = 1;
nodes = (
"61 0 LINE",
"622 0 LINE",
"622 151 LINE",
"226 151 LINE",
"226 284 LINE",
"582 284 LINE",
"582 426 LINE",
"226 426 LINE",
"226 549 LINE",
"612 549 LINE",
"612 700 LINE",
"61 700 LINE"
);
},
{
closed = 1;
nodes = (
"325 831 LINE",
"325 851 OFFCURVE",
"335 865 OFFCURVE",
"354 865 CURVE SMOOTH",
"372 865 OFFCURVE",
"378 856 OFFCURVE",
"378 845 CURVE SMOOTH",
"378 814 OFFCURVE",
"311 813 OFFCURVE",
"311 761 CURVE",
"409 761 LINE",
"414 789 OFFCURVE",
"481 786 OFFCURVE",
"481 863 CURVE SMOOTH",
"481 919 OFFCURVE",
"437 950 OFFCURVE",
"360 950 CURVE SMOOTH",
"273 950 OFFCURVE",
"226 897 OFFCURVE",
"226 831 CURVE"
);
}
);
width = 657;
}
);
leftKerningGroup = B;
note = uni1EBA;
rightKerningGroup = AE;
unicode = 1EBA;
},
{
glyphname = Emacron;
layers = (
{
hints = (
{
horizontal = 1;
place = "{0, 151}";
type = Stem;
},
{
horizontal = 1;
place = "{284, 142}";
type = Stem;
},
{
horizontal = 1;
place = "{549, 151}";
type = Stem;
},
{
horizontal = 1;
place = "{786, 113}";
type = Stem;
},
{
place = "{61, 165}";
type = Stem;
}
);
layerId = "932F2AAA-B43D-49B5-A115-0F830113A58F";
paths = (
{
closed = 1;
nodes = (
"61 0 LINE",
"622 0 LINE",
"622 151 LINE",
"226 151 LINE",
"226 284 LINE",
"582 284 LINE",
"582 426 LINE",
"226 426 LINE",
"226 549 LINE",
"612 549 LINE",
"612 700 LINE",
"61 700 LINE"
);
},
{
closed = 1;
nodes = (
"172 786 LINE",
"534 786 LINE",
"534 899 LINE",
"172 899 LINE"
);
}
);
width = 657;
}
);
leftKerningGroup = B;
note = Emacron;
rightKerningGroup = AE;
unicode = 0112;
},
{
glyphname = Eogonek;
layers = (
{
hints = (
{
horizontal = 1;
place = "{-210, 21}";
target = up;
type = BottomGhost;
},
{
horizontal = 1;
place = "{0, 151}";
type = Stem;
},
{
horizontal = 1;
place = "{284, 142}";
type = Stem;
},
{
horizontal = 1;
place = "{549, 151}";
type = Stem;
},
{
place = "{61, 165}";
type = Stem;
},
{
place = "{381, 158}";
type = Stem;
},
{
horizontal = 1;
place = "{-210, 105}";
type = Stem;
}
);
layerId = "932F2AAA-B43D-49B5-A115-0F830113A58F";
paths = (
{
closed = 1;
nodes = (
"61 0 LINE",
"474 0 LINE",
"406 -24 OFFCURVE",
"381 -66 OFFCURVE",
"381 -105 CURVE SMOOTH",
"381 -184 OFFCURVE",
"454 -210 OFFCURVE",
"527 -210 CURVE SMOOTH",
"560 -210 OFFCURVE",
"599 -203 OFFCURVE",
"615 -198 CURVE",
"628 -98 LINE",
"628 -98 OFFCURVE",
"605 -105 OFFCURVE",
"584 -105 CURVE SMOOTH",
"557 -105 OFFCURVE",
"539 -94 OFFCURVE",
"539 -71 CURVE SMOOTH",
"539 -45 OFFCURVE",
"562 -20 OFFCURVE",
"623 0 CURVE",
"622 0 LINE",
"622 151 LINE",
"226 151 LINE",
"226 284 LINE",
"582 284 LINE",
"582 426 LINE",
"226 426 LINE",
"226 549 LINE",
"612 549 LINE",
"612 700 LINE",
"61 700 LINE"
);
}
);
width = 657;
}
);
leftKerningGroup = B;
note = Eogonek;
rightKerningGroup = AE;
unicode = 0118;
},
{
glyphname = uni1EBC;
layers = (
{
hints = (
{
horizontal = 1;
place = "{0, 151}";
type = Stem;
},
{
horizontal = 1;
place = "{284, 142}";
type = Stem;
},
{
horizontal = 1;
place = "{549, 151}";
type = Stem;
},
{
place = "{61, 165}";
type = Stem;
},
{
horizontal = 1;
place = "{776, 149}";
type = Stem;
},
{
place = "{156, 111}";
type = Stem;
},
{
horizontal = 1;
place = "{816, 109}";
type = Stem;
},
{
horizontal = 1;
place = "{771, 149}";
type = Stem;
},
{
place = "{437, 110}";
type = Stem;
},
{
horizontal = 1;
place = "{771, 109}";
type = Stem;
}
);
layerId = "932F2AAA-B43D-49B5-A115-0F830113A58F";
paths = (
{
closed = 1;
nodes = (
"61 0 LINE",
"622 0 LINE",
"622 151 LINE",
"226 151 LINE",
"226 284 LINE",
"582 284 LINE",
"582 426 LINE",
"226 426 LINE",
"226 549 LINE",
"612 549 LINE",
"612 700 LINE",
"61 700 LINE"
);
},
{
closed = 1;
nodes = (
"267 776 LINE",
"269 800 OFFCURVE",
"280 816 OFFCURVE",
"302 816 CURVE SMOOTH",
"333 816 OFFCURVE",
"353 771 OFFCURVE",
"417 771 CURVE SMOOTH",
"494 771 OFFCURVE",
"542 826 OFFCURVE",
"547 920 CURVE",
"437 920 LINE",
"435 896 OFFCURVE",
"424 880 OFFCURVE",
"402 880 CURVE SMOOTH",
"371 880 OFFCURVE",
"352 925 OFFCURVE",
"289 925 CURVE SMOOTH",
"212 925 OFFCURVE",
"161 874 OFFCURVE",
"156 776 CURVE"
);
}
);
width = 657;
}
);
leftKerningGroup = B;
note = uni1EBC;
rightKerningGroup = AE;
unicode = 1EBC;
},
{
glyphname = uni018F;
layers = (
{
hints = (
{
horizontal = 1;
place = "{-12, 155}";
type = Stem;
},
{
horizontal = 1;
place = "{268, 121}";
type = Stem;
},
{
horizontal = 1;
place = "{553, 159}";
type = Stem;
},
{
place = "{28, 737}";
type = Stem;
}
);
layerId = "932F2AAA-B43D-49B5-A115-0F830113A58F";
paths = (
{
closed = 1;
nodes = (
"604 -12 OFFCURVE",
"765 146 OFFCURVE",
"765 348 CURVE SMOOTH",
"765 549 OFFCURVE",
"604 712 OFFCURVE",
"397 712 CURVE SMOOTH",
"224 712 OFFCURVE",
"85 607 OFFCURVE",
"41 453 CURVE",
"226 453 LINE",
"259 520 OFFCURVE",
"318 553 OFFCURVE",
"397 553 CURVE SMOOTH",
"494 553 OFFCURVE",
"576 487 OFFCURVE",
"591 389 CURVE",
"28 389 LINE",
"28 359 LINE SMOOTH",
"28 159 OFFCURVE",
"178 -12 OFFCURVE",
"397 -12 CURVE SMOOTH"
);
},
{
closed = 1;
nodes = (
"577 268 LINE",
"546 193 OFFCURVE",
"476 143 OFFCURVE",
"395 143 CURVE SMOOTH",
"316 143 OFFCURVE",
"243 188 OFFCURVE",
"212 268 CURVE"
);
}
);
width = 793;
}
);
leftKerningGroup = C;
note = uni018F;
rightKerningGroup = C;
unicode = 018F;
},
{
glyphname = F;
layers = (
{
hints = (
{
horizontal = 1;
place = "{0, 21}";
target = up;
type = BottomGhost;
},
{
horizontal = 1;
place = "{260, 146}";
type = Stem;
},
{
horizontal = 1;
place = "{549, 151}";
type = Stem;
},
{
place = "{61, 165}";
type = Stem;
}
);
layerId = "932F2AAA-B43D-49B5-A115-0F830113A58F";
paths = (
{
closed = 1;
nodes = (
"61 0 LINE",
"226 0 LINE",
"226 260 LINE",
"587 260 LINE",
"587 406 LINE",
"226 406 LINE",
"226 549 LINE",
"607 549 LINE",
"607 700 LINE",
"61 700 LINE"
);
}
);
width = 628;
}
);
leftKerningGroup = B;
note = F;
rightKerningGroup = F;
unicode = 0046;
},
{
glyphname = G;
layers = (
{
hints = (
{
horizontal = 1;
place = "{-12, 157}";
type = Stem;
},
{
horizontal = 1;
place = "{258, 131}";
type = Stem;
},
{
horizontal = 1;
place = "{553, 159}";
type = Stem;
},
{
place = "{28, 171}";
type = Stem;
}
);
layerId = "932F2AAA-B43D-49B5-A115-0F830113A58F";
paths = (
{
closed = 1;
nodes = (
"604 -12 OFFCURVE",
"762 148 OFFCURVE",
"762 355 CURVE SMOOTH",
"762 389 LINE",
"384 389 LINE",
"384 258 LINE",
"576 258 LINE",
"545 188 OFFCURVE",
"481 145 OFFCURVE",
"398 145 CURVE SMOOTH",
"289 145 OFFCURVE",
"199 230 OFFCURVE",
"199 350 CURVE SMOOTH",
"199 467 OFFCURVE",
"288 553 OFFCURVE",
"399 553 CURVE SMOOTH",
"474 553 OFFCURVE",
"530 523 OFFCURVE",
"563 465 CURVE",
"747 465 LINE",
"701 614 OFFCURVE",
"564 712 OFFCURVE",
"397 712 CURVE SMOOTH",
"189 712 OFFCURVE",
"28 551 OFFCURVE",
"28 350 CURVE SMOOTH",
"28 149 OFFCURVE",
"189 -12 OFFCURVE",
"397 -12 CURVE SMOOTH"
);
}
);
width = 791;
}
);
leftKerningGroup = C;
note = G;
rightKerningGroup = C;
unicode = 0047;
},
{
glyphname = Gbreve;
layers = (
{
hints = (
{
horizontal = 1;
place = "{-12, 157}";
type = Stem;
},
{
horizontal = 1;
place = "{258, 131}";
type = Stem;
},
{
horizontal = 1;
place = "{553, 159}";
type = Stem;
},
{
horizontal = 1;
place = "{747, 170}";
type = Stem;
},
{
place = "{28, 171}";
type = Stem;
},
{
horizontal = 1;
place = "{747, 107}";
type = Stem;
}
);
layerId = "932F2AAA-B43D-49B5-A115-0F830113A58F";
paths = (
{
closed = 1;
nodes = (
"604 -12 OFFCURVE",
"762 148 OFFCURVE",
"762 355 CURVE SMOOTH",
"762 389 LINE",
"384 389 LINE",
"384 258 LINE",
"576 258 LINE",
"545 188 OFFCURVE",
"481 145 OFFCURVE",
"398 145 CURVE SMOOTH",
"289 145 OFFCURVE",
"199 230 OFFCURVE",
"199 350 CURVE SMOOTH",
"199 467 OFFCURVE",
"288 553 OFFCURVE",
"399 553 CURVE SMOOTH",
"474 553 OFFCURVE",
"530 523 OFFCURVE",
"563 465 CURVE",
"747 465 LINE",
"701 614 OFFCURVE",
"564 712 OFFCURVE",
"397 712 CURVE SMOOTH",
"189 712 OFFCURVE",
"28 551 OFFCURVE",
"28 350 CURVE SMOOTH",
"28 149 OFFCURVE",
"189 -12 OFFCURVE",
"397 -12 CURVE SMOOTH"
);
},
{
closed = 1;
nodes = (
"213 917 LINE",
"221 802 OFFCURVE",
"304 747 OFFCURVE",
"395 747 CURVE SMOOTH",
"486 747 OFFCURVE",
"568 801 OFFCURVE",
"576 917 CURVE",
"460 917 LINE",
"458 884 OFFCURVE",
"436 854 OFFCURVE",
"395 854 CURVE SMOOTH",
"353 854 OFFCURVE",
"331 884 OFFCURVE",
"329 917 CURVE"
);
}
);
width = 791;
}
);
leftKerningGroup = C;
note = Gbreve;
rightKerningGroup = C;
unicode = 011E;
},
{
glyphname = Gcircumflex;
layers = (
{
hints = (
{
horizontal = 1;
place = "{-12, 157}";
type = Stem;
},
{
horizontal = 1;
place = "{258, 131}";
type = Stem;
},
{
horizontal = 1;
place = "{553, 159}";
type = Stem;
},
{
place = "{28, 171}";
type = Stem;
},
{
place = "{231, 327}";
type = Stem;
}
);
layerId = "932F2AAA-B43D-49B5-A115-0F830113A58F";
paths = (
{
closed = 1;
nodes = (
"604 -12 OFFCURVE",
"762 148 OFFCURVE",
"762 355 CURVE SMOOTH",
"762 389 LINE",
"384 389 LINE",
"384 258 LINE",
"576 258 LINE",
"545 188 OFFCURVE",
"481 145 OFFCURVE",
"398 145 CURVE SMOOTH",
"289 145 OFFCURVE",
"199 230 OFFCURVE",
"199 350 CURVE SMOOTH",
"199 467 OFFCURVE",
"288 553 OFFCURVE",
"399 553 CURVE SMOOTH",
"474 553 OFFCURVE",
"530 523 OFFCURVE",
"563 465 CURVE",
"747 465 LINE",
"701 614 OFFCURVE",
"564 712 OFFCURVE",
"397 712 CURVE SMOOTH",
"189 712 OFFCURVE",
"28 551 OFFCURVE",
"28 350 CURVE SMOOTH",
"28 149 OFFCURVE",
"189 -12 OFFCURVE",
"397 -12 CURVE SMOOTH"
);
},
{
closed = 1;
nodes = (
"231 747 LINE",
"394 827 LINE",
"558 747 LINE",
"558 867 LINE",
"394 948 LINE",
"231 867 LINE"
);
}
);
width = 791;
}
);
leftKerningGroup = C;
note = Gcircumflex;
rightKerningGroup = C;
unicode = 011C;
},
{
glyphname = uni0122;
layers = (
{
hints = (
{
horizontal = 1;
place = "{-200, 159}";
type = Stem;
},
{
horizontal = 1;
place = "{-12, 157}";
type = Stem;
},
{
horizontal = 1;
place = "{258, 131}";
type = Stem;
},
{
horizontal = 1;
place = "{553, 159}";
type = Stem;
},
{
place = "{28, 171}";
type = Stem;
}
);
layerId = "932F2AAA-B43D-49B5-A115-0F830113A58F";
paths = (
{
closed = 1;
nodes = (
"604 -12 OFFCURVE",
"762 148 OFFCURVE",
"762 355 CURVE SMOOTH",
"762 389 LINE",
"384 389 LINE",
"384 258 LINE",
"576 258 LINE",
"545 188 OFFCURVE",
"481 145 OFFCURVE",
"398 145 CURVE SMOOTH",
"289 145 OFFCURVE",
"199 230 OFFCURVE",
"199 350 CURVE SMOOTH",
"199 467 OFFCURVE",
"288 553 OFFCURVE",
"399 553 CURVE SMOOTH",
"474 553 OFFCURVE",
"530 523 OFFCURVE",
"563 465 CURVE",
"747 465 LINE",
"701 614 OFFCURVE",
"564 712 OFFCURVE",
"397 712 CURVE SMOOTH",
"189 712 OFFCURVE",
"28 551 OFFCURVE",
"28 350 CURVE SMOOTH",
"28 149 OFFCURVE",
"189 -12 OFFCURVE",
"397 -12 CURVE SMOOTH"
);
},
{
closed = 1;
nodes = (
"296 -200 LINE",
"414 -200 LINE",
"480 -41 LINE",
"323 -41 LINE"
);
}
);
width = 791;
}
);
leftKerningGroup = C;
note = uni0122;
rightKerningGroup = C;
unicode = 0122;
},
{
glyphname = Gdotaccent;
layers = (
{
hints = (
{
horizontal = 1;
place = "{-12, 157}";
type = Stem;
},
{
horizontal = 1;
place = "{258, 131}";
type = Stem;
},
{
horizontal = 1;
place = "{553, 159}";
type = Stem;
},
{
horizontal = 1;
place = "{758, 186}";
type = Stem;
},
{
place = "{28, 171}";
type = Stem;
},
{
place = "{302, 186}";
type = Stem;
}
);
layerId = "932F2AAA-B43D-49B5-A115-0F830113A58F";
paths = (
{
closed = 1;
nodes = (
"604 -12 OFFCURVE",
"762 148 OFFCURVE",
"762 355 CURVE SMOOTH",
"762 389 LINE",
"384 389 LINE",
"384 258 LINE",
"576 258 LINE",
"545 188 OFFCURVE",
"481 145 OFFCURVE",
"398 145 CURVE SMOOTH",
"289 145 OFFCURVE",
"199 230 OFFCURVE",
"199 350 CURVE SMOOTH",
"199 467 OFFCURVE",
"288 553 OFFCURVE",
"399 553 CURVE SMOOTH",
"474 553 OFFCURVE",
"530 523 OFFCURVE",
"563 465 CURVE",
"747 465 LINE",
"701 614 OFFCURVE",
"564 712 OFFCURVE",
"397 712 CURVE SMOOTH",
"189 712 OFFCURVE",
"28 551 OFFCURVE",
"28 350 CURVE SMOOTH",
"28 149 OFFCURVE",
"189 -12 OFFCURVE",
"397 -12 CURVE SMOOTH"
);
},
{
closed = 1;
nodes = (
"302 800 OFFCURVE",
"344 758 OFFCURVE",
"395 758 CURVE SMOOTH",
"446 758 OFFCURVE",
"488 800 OFFCURVE",
"488 851 CURVE SMOOTH",
"488 901 OFFCURVE",
"446 944 OFFCURVE",
"395 944 CURVE SMOOTH",
"344 944 OFFCURVE",
"302 901 OFFCURVE",
"302 851 CURVE SMOOTH"
);
}
);
width = 791;
}
);
leftKerningGroup = C;
note = Gdotaccent;
rightKerningGroup = C;
unicode = 0120;
},
{
glyphname = H;
layers = (
{
hints = (
{
horizontal = 1;
place = "{0, 21}";
target = up;
type = BottomGhost;
},
{
horizontal = 1;
place = "{290, 156}";
type = Stem;
},
{
horizontal = 1;
place = "{700, -20}";
target = down;
type = TopGhost;
},
{
place = "{61, 165}";
type = Stem;
},
{
place = "{541, 165}";
type = Stem;
}
);
layerId = "932F2AAA-B43D-49B5-A115-0F830113A58F";
paths = (
{
closed = 1;
nodes = (
"61 0 LINE",
"226 0 LINE",
"226 290 LINE",
"541 290 LINE",
"541 0 LINE",
"706 0 LINE",
"706 700 LINE",
"541 700 LINE",
"541 446 LINE",
"226 446 LINE",
"226 700 LINE",
"61 700 LINE"
);
}
);
width = 767;
}
);
leftKerningGroup = B;
note = H;
unicode = 0048;
},
{
glyphname = Hbar;
layers = (
{
hints = (
{
horizontal = 1;
place = "{0, 21}";
target = up;
type = BottomGhost;
},
{
horizontal = 1;
place = "{290, 156}";
type = Stem;
},
{
horizontal = 1;
place = "{516, 184}";
type = Stem;
},
{
place = "{61, 165}";
type = Stem;
},
{
place = "{541, 165}";
type = Stem;
},
{
horizontal = 1;
place = "{516, 113}";
type = Stem;
}
);
layerId = "932F2AAA-B43D-49B5-A115-0F830113A58F";
paths = (
{
closed = 1;
nodes = (
"0 516 LINE",
"61 516 LINE",
"61 0 LINE",
"226 0 LINE",
"226 290 LINE",
"541 290 LINE",
"541 0 LINE",
"706 0 LINE",
"706 516 LINE",
"767 516 LINE",
"767 629 LINE",
"706 629 LINE",
"706 700 LINE",
"541 700 LINE",
"541 629 LINE",
"226 629 LINE",
"226 700 LINE",
"61 700 LINE",
"61 629 LINE",
"0 629 LINE"
);
},
{
closed = 1;
nodes = (
"226 446 LINE",
"226 516 LINE",
"541 516 LINE",
"541 446 LINE"
);
}
);
width = 767;
}
);
leftKerningGroup = B;
note = Hbar;
unicode = 0126;
},
{
glyphname = Hcircumflex;
layers = (
{
hints = (
{
horizontal = 1;
place = "{0, 21}";
target = up;
type = BottomGhost;
},
{
horizontal = 1;
place = "{290, 156}";
type = Stem;
},
{
horizontal = 1;
place = "{700, -20}";
target = down;
type = TopGhost;
},
{
place = "{61, 165}";
type = Stem;
},
{
place = "{541, 165}";
type = Stem;
},
{
place = "{220, 327}";
type = Stem;
}
);
layerId = "932F2AAA-B43D-49B5-A115-0F830113A58F";
paths = (
{
closed = 1;
nodes = (
"61 0 LINE",
"226 0 LINE",
"226 290 LINE",
"541 290 LINE",
"541 0 LINE",
"706 0 LINE",
"706 700 LINE",
"541 700 LINE",
"541 446 LINE",
"226 446 LINE",
"226 700 LINE",
"61 700 LINE"
);
},
{
closed = 1;
nodes = (
"220 747 LINE",
"383 827 LINE",
"547 747 LINE",
"547 867 LINE",
"383 948 LINE",
"220 867 LINE"
);
}
);
width = 767;
}
);
leftKerningGroup = B;
note = Hcircumflex;
unicode = 0124;
},
{
glyphname = I;
layers = (
{
hints = (
{
horizontal = 1;
place = "{0, 21}";
target = up;
type = BottomGhost;
},
{
horizontal = 1;
place = "{700, -20}";
target = down;
type = TopGhost;
},
{
place = "{61, 165}";
type = Stem;
}
);
layerId = "932F2AAA-B43D-49B5-A115-0F830113A58F";
paths = (
{
closed = 1;
nodes = (
"61 0 LINE",
"226 0 LINE",
"226 700 LINE",
"61 700 LINE"
);
}
);
width = 287;
}
);
leftKerningGroup = B;
note = I;
unicode = 0049;
},
{
glyphname = IJ;
layers = (
{
hints = (
{
horizontal = 1;
place = "{0, 21}";
target = up;
type = BottomGhost;
},
{
horizontal = 1;
place = "{700, -20}";
target = down;
type = TopGhost;
},
{
place = "{61, 165}";
type = Stem;
},
{
place = "{632, 165}";
type = Stem;
},
{
horizontal = 1;
place = "{0, 234}";
type = Stem;
},
{
place = "{312, 165}";
type = Stem;
},
{
horizontal = 1;
place = "{-12, 159}";
type = Stem;
}
);
layerId = "932F2AAA-B43D-49B5-A115-0F830113A58F";
paths = (
{
closed = 1;
nodes = (
"61 0 LINE",
"226 0 LINE",
"226 700 LINE",
"61 700 LINE"
);
},
{
closed = 1;
nodes = (
"312 234 LINE",
"312 89 OFFCURVE",
"419 -12 OFFCURVE",
"555 -12 CURVE SMOOTH",
"690 -12 OFFCURVE",
"797 89 OFFCURVE",
"797 234 CURVE SMOOTH",
"797 700 LINE",
"632 700 LINE",
"632 234 LINE SMOOTH",
"632 181 OFFCURVE",
"599 147 OFFCURVE",
"555 147 CURVE SMOOTH",
"510 147 OFFCURVE",
"477 181 OFFCURVE",
"477 234 CURVE"
);
}
);
width = 852;
}
);
leftKerningGroup = B;
note = IJ;
rightKerningGroup = IJ;
unicode = 0132;
},
{
glyphname = Iacute;
layers = (
{
hints = (
{
horizontal = 1;
place = "{0, 21}";
target = up;
type = BottomGhost;
},
{
horizontal = 1;
place = "{700, -20}";
target = down;
type = TopGhost;
},
{
horizontal = 1;
place = "{761, 179}";
type = Stem;
},
{
place = "{61, 165}";
type = Stem;
}
);
layerId = "932F2AAA-B43D-49B5-A115-0F830113A58F";
paths = (
{
closed = 1;
nodes = (
"61 0 LINE",
"226 0 LINE",
"226 700 LINE",
"61 700 LINE"
);
},
{
closed = 1;
nodes = (
"78 761 LINE",
"181 761 LINE",
"314 940 LINE",
"141 940 LINE"
);
}
);
width = 287;
}
);
leftKerningGroup = B;
note = Iacute;
unicode = 00CD;
},
{
glyphname = Ibreve;
layers = (
{
hints = (
{
horizontal = 1;
place = "{0, 21}";
target = up;
type = BottomGhost;
},
{
horizontal = 1;
place = "{700, -20}";
target = down;
type = TopGhost;
},
{
horizontal = 1;
place = "{747, 170}";
type = Stem;
},
{
place = "{61, 165}";
type = Stem;
},
{
horizontal = 1;
place = "{747, 107}";
type = Stem;
}
);
layerId = "932F2AAA-B43D-49B5-A115-0F830113A58F";
paths = (
{
closed = 1;
nodes = (
"61 0 LINE",
"226 0 LINE",
"226 700 LINE",
"61 700 LINE"
);
},
{
closed = 1;
nodes = (
"-38 917 LINE",
"-30 802 OFFCURVE",
"53 747 OFFCURVE",
"144 747 CURVE SMOOTH",
"235 747 OFFCURVE",
"317 801 OFFCURVE",
"325 917 CURVE",
"209 917 LINE",
"207 884 OFFCURVE",
"185 854 OFFCURVE",
"144 854 CURVE SMOOTH",
"102 854 OFFCURVE",
"80 884 OFFCURVE",
"78 917 CURVE"
);
}
);
width = 287;
}
);
leftKerningGroup = B;
note = Ibreve;
unicode = 012C;
},
{
glyphname = Icircumflex;
layers = (
{
hints = (
{
horizontal = 1;
place = "{0, 21}";
target = up;
type = BottomGhost;
},
{
horizontal = 1;
place = "{700, -20}";
target = down;
type = TopGhost;
},
{
place = "{61, 165}";
type = Stem;
}
);
layerId = "932F2AAA-B43D-49B5-A115-0F830113A58F";
paths = (
{
closed = 1;
nodes = (
"61 0 LINE",
"226 0 LINE",
"226 700 LINE",
"61 700 LINE"
);
},
{
closed = 1;
nodes = (
"-20 747 LINE",
"143 827 LINE",
"307 747 LINE",
"307 867 LINE",
"143 948 LINE",
"-20 867 LINE"
);
}
);
width = 287;
}
);
leftKerningGroup = B;
note = Icircumflex;
unicode = 00CE;
},
{
glyphname = Idieresis;
layers = (
{
hints = (
{
horizontal = 1;
place = "{0, 21}";
target = up;
type = BottomGhost;
},
{
horizontal = 1;
place = "{700, -20}";
target = down;
type = TopGhost;
},
{
horizontal = 1;
place = "{761, 180}";
type = Stem;
},
{
place = "{61, 165}";
type = Stem;
},
{
place = "{-61, 181}";
type = Stem;
},
{
place = "{169, 180}";
type = Stem;
}
);
layerId = "932F2AAA-B43D-49B5-A115-0F830113A58F";
paths = (
{
closed = 1;
nodes = (
"61 0 LINE",
"226 0 LINE",
"226 700 LINE",
"61 700 LINE"
);
},
{
closed = 1;
nodes = (
"-61 802 OFFCURVE",
"-20 761 OFFCURVE",
"29 761 CURVE SMOOTH",
"79 761 OFFCURVE",
"120 802 OFFCURVE",
"120 851 CURVE SMOOTH",
"120 900 OFFCURVE",
"79 941 OFFCURVE",
"29 941 CURVE SMOOTH",
"-20 941 OFFCURVE",
"-61 900 OFFCURVE",
"-61 851 CURVE SMOOTH"
);
},
{
closed = 1;
nodes = (
"169 802 OFFCURVE",
"209 761 OFFCURVE",
"259 761 CURVE SMOOTH",
"308 761 OFFCURVE",
"349 802 OFFCURVE",
"349 851 CURVE SMOOTH",
"349 900 OFFCURVE",
"308 941 OFFCURVE",
"259 941 CURVE SMOOTH",
"209 941 OFFCURVE",
"169 900 OFFCURVE",
"169 851 CURVE SMOOTH"
);
}
);
width = 287;
}
);
leftKerningGroup = B;
note = Idieresis;
unicode = 00CF;
},
{
glyphname = Idotaccent;
layers = (
{
hints = (
{
horizontal = 1;
place = "{0, 21}";
target = up;
type = BottomGhost;
},
{
horizontal = 1;
place = "{700, -20}";
target = down;
type = TopGhost;
},
{
horizontal = 1;
place = "{758, 186}";
type = Stem;
},
{
place = "{61, 165}";
type = Stem;
},
{
place = "{51, 186}";
type = Stem;
}
);
layerId = "932F2AAA-B43D-49B5-A115-0F830113A58F";
paths = (
{
closed = 1;
nodes = (
"61 0 LINE",
"226 0 LINE",
"226 700 LINE",
"61 700 LINE"
);
},
{
closed = 1;
nodes = (
"51 800 OFFCURVE",
"93 758 OFFCURVE",
"144 758 CURVE SMOOTH",
"195 758 OFFCURVE",
"237 800 OFFCURVE",
"237 851 CURVE SMOOTH",
"237 901 OFFCURVE",
"195 944 OFFCURVE",
"144 944 CURVE SMOOTH",
"93 944 OFFCURVE",
"51 901 OFFCURVE",
"51 851 CURVE SMOOTH"
);
}
);
width = 287;
}
);
leftKerningGroup = B;
note = Idotaccent;
unicode = 0130;
},
{
glyphname = uni1ECA;
layers = (
{
hints = (
{
horizontal = 1;
place = "{-243, 186}";
type = Stem;
},
{
horizontal = 1;
place = "{0, 21}";
target = up;
type = BottomGhost;
},
{
horizontal = 1;
place = "{700, -20}";
target = down;
type = TopGhost;
},
{
place = "{61, 165}";
type = Stem;
},
{
place = "{51, 186}";
type = Stem;
}
);
layerId = "932F2AAA-B43D-49B5-A115-0F830113A58F";
paths = (
{
closed = 1;
nodes = (
"61 0 LINE",
"226 0 LINE",
"226 700 LINE",
"61 700 LINE"
);
},
{
closed = 1;
nodes = (
"51 -201 OFFCURVE",
"93 -243 OFFCURVE",
"144 -243 CURVE SMOOTH",
"195 -243 OFFCURVE",
"237 -201 OFFCURVE",
"237 -150 CURVE SMOOTH",
"237 -100 OFFCURVE",
"195 -57 OFFCURVE",
"144 -57 CURVE SMOOTH",
"93 -57 OFFCURVE",
"51 -100 OFFCURVE",
"51 -150 CURVE SMOOTH"
);
}
);
width = 287;
}
);
leftKerningGroup = B;
note = uni1ECA;
unicode = 1ECA;
},
{
glyphname = Igrave;
layers = (
{
hints = (
{
horizontal = 1;
place = "{0, 21}";
target = up;
type = BottomGhost;
},
{
horizontal = 1;
place = "{700, -20}";
target = down;
type = TopGhost;
},
{
horizontal = 1;
place = "{761, 179}";
type = Stem;
},
{
place = "{61, 165}";
type = Stem;
}
);
layerId = "932F2AAA-B43D-49B5-A115-0F830113A58F";
paths = (
{
closed = 1;
nodes = (
"61 0 LINE",
"226 0 LINE",
"226 700 LINE",
"61 700 LINE"
);
},
{
closed = 1;
nodes = (
"-20 940 LINE",
"113 761 LINE",
"216 761 LINE",
"153 940 LINE"
);
}
);
width = 287;
}
);
leftKerningGroup = B;
note = Igrave;
unicode = 00CC;
},
{
glyphname = uni1EC8;
layers = (
{
hints = (
{
horizontal = 1;
place = "{0, 21}";
target = up;
type = BottomGhost;
},
{
horizontal = 1;
place = "{700, -20}";
target = down;
type = TopGhost;
},
{
horizontal = 1;
place = "{831, 119}";
type = Stem;
},
{
place = "{61, 165}";
type = Stem;
},
{
place = "{17, 99}";
type = Stem;
},
{
horizontal = 1;
place = "{865, 85}";
type = Stem;
},
{
place = "{169, 103}";
type = Stem;
},
{
horizontal = 1;
place = "{761, 189}";
type = Stem;
},
{
place = "{102, 124}";
type = Stem;
}
);
layerId = "932F2AAA-B43D-49B5-A115-0F830113A58F";
paths = (
{
closed = 1;
nodes = (
"61 0 LINE",
"226 0 LINE",
"226 700 LINE",
"61 700 LINE"
);
},
{
closed = 1;
nodes = (
"116 831 LINE",
"116 851 OFFCURVE",
"126 865 OFFCURVE",
"145 865 CURVE SMOOTH",
"163 865 OFFCURVE",
"169 856 OFFCURVE",
"169 845 CURVE SMOOTH",
"169 814 OFFCURVE",
"102 813 OFFCURVE",
"102 761 CURVE",
"200 761 LINE",
"205 789 OFFCURVE",
"272 786 OFFCURVE",
"272 863 CURVE SMOOTH",
"272 919 OFFCURVE",
"228 950 OFFCURVE",
"151 950 CURVE SMOOTH",
"64 950 OFFCURVE",
"17 897 OFFCURVE",
"17 831 CURVE"
);
}
);
width = 287;
}
);
leftKerningGroup = B;
note = uni1EC8;
unicode = 1EC8;
},
{
glyphname = Imacron;
layers = (
{
hints = (
{
horizontal = 1;
place = "{0, 21}";
target = up;
type = BottomGhost;
},
{
horizontal = 1;
place = "{700, -20}";
target = down;
type = TopGhost;
},
{
horizontal = 1;
place = "{786, 113}";
type = Stem;
},
{
place = "{61, 165}";
type = Stem;
}
);
layerId = "932F2AAA-B43D-49B5-A115-0F830113A58F";
paths = (
{
closed = 1;
nodes = (
"61 0 LINE",
"226 0 LINE",
"226 700 LINE",
"61 700 LINE"
);
},
{
closed = 1;
nodes = (
"-36 786 LINE",
"326 786 LINE",
"326 899 LINE",
"-36 899 LINE"
);
}
);
width = 287;
}
);
leftKerningGroup = B;
note = Imacron;
unicode = 012A;
},
{
glyphname = Iogonek;
layers = (
{
hints = (
{
horizontal = 1;
place = "{-210, 21}";
target = up;
type = BottomGhost;
},
{
horizontal = 1;
place = "{0, 21}";
target = up;
type = BottomGhost;
},
{
horizontal = 1;
place = "{700, -20}";
target = down;
type = TopGhost;
},
{
place = "{61, 82}";
type = Stem;
},
{
horizontal = 1;
place = "{-210, 105}";
type = Stem;
},
{
place = "{61, 165}";
type = Stem;
}
);
layerId = "932F2AAA-B43D-49B5-A115-0F830113A58F";
paths = (
{
closed = 1;
nodes = (
"164 -210 OFFCURVE",
"203 -203 OFFCURVE",
"219 -198 CURVE",
"232 -98 LINE",
"232 -98 OFFCURVE",
"209 -105 OFFCURVE",
"188 -105 CURVE SMOOTH",
"161 -105 OFFCURVE",
"143 -94 OFFCURVE",
"143 -71 CURVE SMOOTH",
"143 -45 OFFCURVE",
"166 -20 OFFCURVE",
"227 0 CURVE",
"226 0 LINE",
"226 700 LINE",
"61 700 LINE",
"61 -6 LINE",
"6 -31 OFFCURVE",
"-15 -69 OFFCURVE",
"-15 -105 CURVE SMOOTH",
"-15 -184 OFFCURVE",
"58 -210 OFFCURVE",
"131 -210 CURVE SMOOTH"
);
}
);
width = 287;
}
);
leftKerningGroup = B;
note = Iogonek;
unicode = 012E;
},
{
glyphname = Itilde;
layers = (
{
hints = (
{
horizontal = 1;
place = "{0, 21}";
target = up;
type = BottomGhost;
},
{
horizontal = 1;
place = "{700, -20}";
target = down;
type = TopGhost;
},
{
horizontal = 1;
place = "{771, 149}";
type = Stem;
},
{
place = "{61, 165}";
type = Stem;
},
{
horizontal = 1;
place = "{776, 149}";
type = Stem;
},
{
place = "{-52, 111}";
type = Stem;
},
{
horizontal = 1;
place = "{816, 109}";
type = Stem;
},
{
place = "{229, 110}";
type = Stem;
},
{
horizontal = 1;
place = "{771, 109}";
type = Stem;
}
);
layerId = "932F2AAA-B43D-49B5-A115-0F830113A58F";
paths = (
{
closed = 1;
nodes = (
"61 0 LINE",
"226 0 LINE",
"226 700 LINE",
"61 700 LINE"
);
},
{
closed = 1;
nodes = (
"59 776 LINE",
"61 800 OFFCURVE",
"72 816 OFFCURVE",
"94 816 CURVE SMOOTH",
"125 816 OFFCURVE",
"145 771 OFFCURVE",
"209 771 CURVE SMOOTH",
"286 771 OFFCURVE",
"334 826 OFFCURVE",
"339 920 CURVE",
"229 920 LINE",
"227 896 OFFCURVE",
"216 880 OFFCURVE",
"194 880 CURVE SMOOTH",
"163 880 OFFCURVE",
"144 925 OFFCURVE",
"81 925 CURVE SMOOTH",
"4 925 OFFCURVE",
"-47 874 OFFCURVE",
"-52 776 CURVE"
);
}
);
width = 287;
}
);
leftKerningGroup = B;
note = Itilde;
unicode = 0128;
},
{
glyphname = J;
layers = (
{
hints = (
{
horizontal = 1;
place = "{-12, 159}";
type = Stem;
},
{
horizontal = 1;
place = "{700, -20}";
target = down;
type = TopGhost;
},
{
place = "{25, 165}";
type = Stem;
},
{
place = "{345, 165}";
type = Stem;
}
);
layerId = "932F2AAA-B43D-49B5-A115-0F830113A58F";
paths = (
{
closed = 1;
nodes = (
"403 -12 OFFCURVE",
"510 89 OFFCURVE",
"510 234 CURVE SMOOTH",
"510 700 LINE",
"345 700 LINE",
"345 234 LINE SMOOTH",
"345 181 OFFCURVE",
"312 147 OFFCURVE",
"268 147 CURVE SMOOTH",
"223 147 OFFCURVE",
"190 181 OFFCURVE",
"190 234 CURVE",
"25 234 LINE",
"25 89 OFFCURVE",
"132 -12 OFFCURVE",
"268 -12 CURVE SMOOTH"
);
}
);
width = 565;
}
);
leftKerningGroup = J;
note = J;
rightKerningGroup = IJ;
unicode = 004A;
},
{
glyphname = uni004A0301;
layers = (
{
hints = (
{
horizontal = 1;
place = "{-12, 159}";
type = Stem;
},
{
horizontal = 1;
place = "{700, -20}";
target = down;
type = TopGhost;
},
{
horizontal = 1;
place = "{761, 179}";
type = Stem;
},
{
place = "{25, 165}";
type = Stem;
},
{
place = "{345, 165}";
type = Stem;
}
);
layerId = "932F2AAA-B43D-49B5-A115-0F830113A58F";
paths = (
{
closed = 1;
nodes = (
"403 -12 OFFCURVE",
"510 89 OFFCURVE",
"510 234 CURVE SMOOTH",
"510 700 LINE",
"345 700 LINE",
"345 234 LINE SMOOTH",
"345 181 OFFCURVE",
"312 147 OFFCURVE",
"268 147 CURVE SMOOTH",
"223 147 OFFCURVE",
"190 181 OFFCURVE",
"190 234 CURVE",
"25 234 LINE",
"25 89 OFFCURVE",
"132 -12 OFFCURVE",
"268 -12 CURVE SMOOTH"
);
},
{
closed = 1;
nodes = (
"362 761 LINE",
"465 761 LINE",
"598 940 LINE",
"425 940 LINE"
);
}
);
width = 565;
}
);
leftKerningGroup = J;
note = uni004A0301;
rightKerningGroup = IJ;
},
{
glyphname = Jcircumflex;
layers = (
{
hints = (
{
horizontal = 1;
place = "{-12, 159}";
type = Stem;
},
{
horizontal = 1;
place = "{700, -20}";
target = down;
type = TopGhost;
},
{
place = "{25, 165}";
type = Stem;
},
{
place = "{345, 165}";
type = Stem;
}
);
layerId = "932F2AAA-B43D-49B5-A115-0F830113A58F";
paths = (
{
closed = 1;
nodes = (
"403 -12 OFFCURVE",
"510 89 OFFCURVE",
"510 234 CURVE SMOOTH",
"510 700 LINE",
"345 700 LINE",
"345 234 LINE SMOOTH",
"345 181 OFFCURVE",
"312 147 OFFCURVE",
"268 147 CURVE SMOOTH",
"223 147 OFFCURVE",
"190 181 OFFCURVE",
"190 234 CURVE",
"25 234 LINE",
"25 89 OFFCURVE",
"132 -12 OFFCURVE",
"268 -12 CURVE SMOOTH"
);
},
{
closed = 1;
nodes = (
"264 747 LINE",
"427 827 LINE",
"591 747 LINE",
"591 867 LINE",
"427 948 LINE",
"264 867 LINE"
);
}
);
width = 565;
}
);
leftKerningGroup = J;
note = Jcircumflex;
rightKerningGroup = IJ;
unicode = 0134;
},
{
glyphname = K;
layers = (
{
hints = (
{
horizontal = 1;
place = "{0, 21}";
target = up;
type = BottomGhost;
},
{
horizontal = 1;
place = "{700, -20}";
target = down;
type = TopGhost;
},
{
place = "{61, 165}";
type = Stem;
}
);
layerId = "932F2AAA-B43D-49B5-A115-0F830113A58F";
paths = (
{
closed = 1;
nodes = (
"518 0 LINE",
"718 0 LINE",
"423 363 LINE",
"703 700 LINE",
"515 700 LINE",
"233 356 LINE"
);
},
{
closed = 1;
nodes = (
"61 0 LINE",
"226 0 LINE",
"226 700 LINE",
"61 700 LINE"
);
}
);
width = 699;
}
);
leftKerningGroup = B;
note = K;
rightKerningGroup = K;
unicode = 004B;
},
{
glyphname = uni0136;
layers = (
{
hints = (
{
horizontal = 1;
place = "{-200, 159}";
type = Stem;
},
{
horizontal = 1;
place = "{0, 21}";
target = up;
type = BottomGhost;
},
{
horizontal = 1;
place = "{700, -20}";
target = down;
type = TopGhost;
},
{
place = "{61, 165}";
type = Stem;
}
);
layerId = "932F2AAA-B43D-49B5-A115-0F830113A58F";
paths = (
{
closed = 1;
nodes = (
"518 0 LINE",
"718 0 LINE",
"423 363 LINE",
"703 700 LINE",
"515 700 LINE",
"233 356 LINE"
);
},
{
closed = 1;
nodes = (
"61 0 LINE",
"226 0 LINE",
"226 700 LINE",
"61 700 LINE"
);
},
{
closed = 1;
nodes = (
"260 -200 LINE",
"378 -200 LINE",
"444 -41 LINE",
"287 -41 LINE"
);
}
);
width = 699;
}
);
leftKerningGroup = B;
note = uni0136;
rightKerningGroup = K;
unicode = 0136;
},
{
glyphname = L;
layers = (
{
hints = (
{
horizontal = 1;
place = "{0, 156}";
type = Stem;
},
{
horizontal = 1;
place = "{700, -20}";
target = down;
type = TopGhost;
},
{
place = "{61, 165}";
type = Stem;
}
);
layerId = "932F2AAA-B43D-49B5-A115-0F830113A58F";
paths = (
{
closed = 1;
nodes = (
"61 0 LINE",
"559 0 LINE",
"559 156 LINE",
"226 156 LINE",
"226 700 LINE",
"61 700 LINE"
);
}
);
width = 569;
}
);
leftKerningGroup = B;
note = L;
rightKerningGroup = L;
unicode = 004C;
},
{
glyphname = Lacute;
layers = (
{
hints = (
{
horizontal = 1;
place = "{0, 156}";
type = Stem;
},
{
horizontal = 1;
place = "{700, -20}";
target = down;
type = TopGhost;
},
{
horizontal = 1;
place = "{761, 179}";
type = Stem;
},
{
place = "{61, 165}";
type = Stem;
}
);
layerId = "932F2AAA-B43D-49B5-A115-0F830113A58F";
paths = (
{
closed = 1;
nodes = (
"61 0 LINE",
"559 0 LINE",
"559 156 LINE",
"226 156 LINE",
"226 700 LINE",
"61 700 LINE"
);
},
{
closed = 1;
nodes = (
"89 761 LINE",
"192 761 LINE",
"325 940 LINE",
"152 940 LINE"
);
}
);
width = 569;
}
);
leftKerningGroup = B;
note = Lacute;
rightKerningGroup = L;
unicode = 0139;
},
{
glyphname = Lcaron;
layers = (
{
hints = (
{
horizontal = 1;
place = "{0, 156}";
type = Stem;
},
{
horizontal = 1;
place = "{466, 234}";
type = Stem;
},
{
place = "{61, 165}";
type = Stem;
}
);
layerId = "932F2AAA-B43D-49B5-A115-0F830113A58F";
paths = (
{
closed = 1;
nodes = (
"61 0 LINE",
"559 0 LINE",
"559 156 LINE",
"226 156 LINE",
"226 700 LINE",
"61 700 LINE"
);
},
{
closed = 1;
nodes = (
"378 466 LINE",
"497 466 LINE",
"541 700 LINE",
"389 700 LINE"
);
}
);
width = 569;
}
);
leftKerningGroup = B;
note = Lcaron;
rightKerningGroup = L;
unicode = 013D;
},
{
glyphname = uni013B;
layers = (
{
hints = (
{
horizontal = 1;
place = "{-200, 159}";
type = Stem;
},
{
horizontal = 1;
place = "{0, 156}";
type = Stem;
},
{
horizontal = 1;
place = "{700, -20}";
target = down;
type = TopGhost;
},
{
place = "{61, 165}";
type = Stem;
}
);
layerId = "932F2AAA-B43D-49B5-A115-0F830113A58F";
paths = (
{
closed = 1;
nodes = (
"61 0 LINE",
"559 0 LINE",
"559 156 LINE",
"226 156 LINE",
"226 700 LINE",
"61 700 LINE"
);
},
{
closed = 1;
nodes = (
"218 -200 LINE",
"336 -200 LINE",
"402 -41 LINE",
"245 -41 LINE"
);
}
);
width = 569;
}
);
leftKerningGroup = B;
note = uni013B;
rightKerningGroup = L;
unicode = 013B;
},
{
glyphname = Lslash;
layers = (
{
hints = (
{
horizontal = 1;
place = "{0, 156}";
type = Stem;
},
{
horizontal = 1;
place = "{700, -20}";
target = down;
type = TopGhost;
},
{
place = "{61, 165}";
type = Stem;
}
);
layerId = "932F2AAA-B43D-49B5-A115-0F830113A58F";
paths = (
{
closed = 1;
nodes = (
"0 224 LINE",
"61 246 LINE",
"61 0 LINE",
"559 0 LINE",
"559 156 LINE",
"226 156 LINE",
"226 296 LINE",
"422 368 LINE",
"422 523 LINE",
"226 452 LINE",
"226 700 LINE",
"61 700 LINE",
"61 401 LINE",
"0 379 LINE"
);
}
);
width = 554;
}
);
leftKerningGroup = B;
note = Lslash;
rightKerningGroup = Lslash;
unicode = 0141;
},
{
glyphname = M;
layers = (
{
hints = (
{
horizontal = 1;
place = "{0, 21}";
target = up;
type = BottomGhost;
},
{
horizontal = 1;
place = "{700, -20}";
target = down;
type = TopGhost;
},
{
place = "{61, 165}";
type = Stem;
},
{
place = "{653, 165}";
type = Stem;
}
);
layerId = "932F2AAA-B43D-49B5-A115-0F830113A58F";
paths = (
{
closed = 1;
nodes = (
"61 700 LINE",
"61 0 LINE",
"226 0 LINE",
"226 388 LINE",
"445 144 LINE",
"653 388 LINE",
"653 0 LINE",
"818 0 LINE",
"818 700 LINE",
"717 700 LINE",
"445 370 LINE",
"163 700 LINE"
);
}
);
width = 879;
}
);
leftKerningGroup = B;
note = M;
unicode = 004D;
},
{
glyphname = N;
layers = (
{
hints = (
{
horizontal = 1;
place = "{0, 21}";
target = up;
type = BottomGhost;
},
{
horizontal = 1;
place = "{700, -20}";
target = down;
type = TopGhost;
},
{
place = "{61, 165}";
type = Stem;
},
{
place = "{542, 165}";
type = Stem;
}
);
layerId = "932F2AAA-B43D-49B5-A115-0F830113A58F";
paths = (
{
closed = 1;
nodes = (
"707 0 LINE",
"707 700 LINE",
"542 700 LINE",
"542 296 LINE",
"163 700 LINE",
"61 700 LINE",
"61 0 LINE",
"226 0 LINE",
"226 404 LINE",
"600 0 LINE"
);
}
);
width = 768;
}
);
leftKerningGroup = B;
note = N;
unicode = 004E;
},
{
glyphname = Nacute;
layers = (
{
hints = (
{
horizontal = 1;
place = "{0, 21}";
target = up;
type = BottomGhost;
},
{
horizontal = 1;
place = "{700, -20}";
target = down;
type = TopGhost;
},
{
horizontal = 1;
place = "{761, 179}";
type = Stem;
},
{
place = "{61, 165}";
type = Stem;
},
{
place = "{542, 165}";
type = Stem;
}
);
layerId = "932F2AAA-B43D-49B5-A115-0F830113A58F";
paths = (
{
closed = 1;
nodes = (
"707 0 LINE",
"707 700 LINE",
"542 700 LINE",
"542 296 LINE",
"163 700 LINE",
"61 700 LINE",
"61 0 LINE",
"226 0 LINE",
"226 404 LINE",
"600 0 LINE"
);
},
{
closed = 1;
nodes = (
"321 761 LINE",
"424 761 LINE",
"557 940 LINE",
"384 940 LINE"
);
}
);
width = 768;
}
);
leftKerningGroup = B;
note = Nacute;
unicode = 0143;
},
{
glyphname = Ncaron;
layers = (
{
hints = (
{
horizontal = 1;
place = "{0, 21}";
target = up;
type = BottomGhost;
},
{
horizontal = 1;
place = "{700, -20}";
target = down;
type = TopGhost;
},
{
place = "{61, 165}";
type = Stem;
},
{
place = "{542, 165}";
type = Stem;
},
{
place = "{222, 327}";
type = Stem;
}
);
layerId = "932F2AAA-B43D-49B5-A115-0F830113A58F";
paths = (
{
closed = 1;
nodes = (
"707 0 LINE",
"707 700 LINE",
"542 700 LINE",
"542 296 LINE",
"163 700 LINE",
"61 700 LINE",
"61 0 LINE",
"226 0 LINE",
"226 404 LINE",
"600 0 LINE"
);
},
{
closed = 1;
nodes = (
"222 819 LINE",
"385 738 LINE",
"549 819 LINE",
"549 939 LINE",
"385 859 LINE",
"222 939 LINE"
);
}
);
width = 768;
}
);
leftKerningGroup = B;
note = Ncaron;
unicode = 0147;
},
{
glyphname = uni0145;
layers = (
{
hints = (
{
horizontal = 1;
place = "{-200, 159}";
type = Stem;
},
{
horizontal = 1;
place = "{0, 21}";
target = up;
type = BottomGhost;
},
{
horizontal = 1;
place = "{700, -20}";
target = down;
type = TopGhost;
},
{
place = "{61, 165}";
type = Stem;
},
{
place = "{542, 165}";
type = Stem;
}
);
layerId = "932F2AAA-B43D-49B5-A115-0F830113A58F";
paths = (
{
closed = 1;
nodes = (
"707 0 LINE",
"707 700 LINE",
"542 700 LINE",
"542 296 LINE",
"163 700 LINE",
"61 700 LINE",
"61 0 LINE",
"226 0 LINE",
"226 404 LINE",
"600 0 LINE"
);
},
{
closed = 1;
nodes = (
"299 -200 LINE",
"417 -200 LINE",
"483 -41 LINE",
"326 -41 LINE"
);
}
);
width = 768;
}
);
leftKerningGroup = B;
note = uni0145;
unicode = 0145;
},
{
glyphname = Ntilde;
layers = (
{
hints = (
{
horizontal = 1;
place = "{0, 21}";
target = up;
type = BottomGhost;
},
{
horizontal = 1;
place = "{700, -20}";
target = down;
type = TopGhost;
},
{
horizontal = 1;
place = "{771, 149}";
type = Stem;
},
{
place = "{61, 165}";
type = Stem;
},
{
place = "{542, 165}";
type = Stem;
},
{
horizontal = 1;
place = "{776, 149}";
type = Stem;
},
{
place = "{191, 111}";
type = Stem;
},
{
horizontal = 1;
place = "{816, 109}";
type = Stem;
},
{
place = "{472, 110}";
type = Stem;
},
{
horizontal = 1;
place = "{771, 109}";
type = Stem;
}
);
layerId = "932F2AAA-B43D-49B5-A115-0F830113A58F";
paths = (
{
closed = 1;
nodes = (
"707 0 LINE",
"707 700 LINE",
"542 700 LINE",
"542 296 LINE",
"163 700 LINE",
"61 700 LINE",
"61 0 LINE",
"226 0 LINE",
"226 404 LINE",
"600 0 LINE"
);
},
{
closed = 1;
nodes = (
"302 776 LINE",
"304 800 OFFCURVE",
"315 816 OFFCURVE",
"337 816 CURVE SMOOTH",
"368 816 OFFCURVE",
"388 771 OFFCURVE",
"452 771 CURVE SMOOTH",
"529 771 OFFCURVE",
"577 826 OFFCURVE",
"582 920 CURVE",
"472 920 LINE",
"470 896 OFFCURVE",
"459 880 OFFCURVE",
"437 880 CURVE SMOOTH",
"406 880 OFFCURVE",
"387 925 OFFCURVE",
"324 925 CURVE SMOOTH",
"247 925 OFFCURVE",
"196 874 OFFCURVE",
"191 776 CURVE"
);
}
);
width = 768;
}
);
leftKerningGroup = B;
note = Ntilde;
unicode = 00D1;
},
{
glyphname = O;
layers = (
{
hints = (
{
horizontal = 1;
place = "{-12, 164}";
type = Stem;
},
{
horizontal = 1;
place = "{548, 164}";
type = Stem;
},
{
place = "{28, 171}";
type = Stem;
},
{
place = "{594, 171}";
type = Stem;
}
);
layerId = "932F2AAA-B43D-49B5-A115-0F830113A58F";
paths = (
{
closed = 1;
nodes = (
"604 -12 OFFCURVE",
"765 149 OFFCURVE",
"765 350 CURVE SMOOTH",
"765 551 OFFCURVE",
"604 712 OFFCURVE",
"397 712 CURVE SMOOTH",
"189 712 OFFCURVE",
"28 551 OFFCURVE",
"28 350 CURVE SMOOTH",
"28 149 OFFCURVE",
"189 -12 OFFCURVE",
"397 -12 CURVE SMOOTH"
);
},
{
closed = 1;
nodes = (
"199 463 OFFCURVE",
"288 548 OFFCURVE",
"397 548 CURVE SMOOTH",
"505 548 OFFCURVE",
"594 463 OFFCURVE",
"594 350 CURVE SMOOTH",
"594 237 OFFCURVE",
"505 152 OFFCURVE",
"397 152 CURVE SMOOTH",
"288 152 OFFCURVE",
"199 237 OFFCURVE",
"199 350 CURVE SMOOTH"
);
}
);
width = 793;
}
);
leftKerningGroup = C;
note = O;
rightKerningGroup = C;
unicode = 004F;
},
{
glyphname = Oacute;
layers = (
{
hints = (
{
horizontal = 1;
place = "{-12, 164}";
type = Stem;
},
{
horizontal = 1;
place = "{548, 164}";
type = Stem;
},
{
horizontal = 1;
place = "{761, 179}";
type = Stem;
},
{
place = "{28, 171}";
type = Stem;
},
{
place = "{594, 171}";
type = Stem;
}
);
layerId = "932F2AAA-B43D-49B5-A115-0F830113A58F";
paths = (
{
closed = 1;
nodes = (
"604 -12 OFFCURVE",
"765 149 OFFCURVE",
"765 350 CURVE SMOOTH",
"765 551 OFFCURVE",
"604 712 OFFCURVE",
"397 712 CURVE SMOOTH",
"189 712 OFFCURVE",
"28 551 OFFCURVE",
"28 350 CURVE SMOOTH",
"28 149 OFFCURVE",
"189 -12 OFFCURVE",
"397 -12 CURVE SMOOTH"
);
},
{
closed = 1;
nodes = (
"199 463 OFFCURVE",
"288 548 OFFCURVE",
"397 548 CURVE SMOOTH",
"505 548 OFFCURVE",
"594 463 OFFCURVE",
"594 350 CURVE SMOOTH",
"594 237 OFFCURVE",
"505 152 OFFCURVE",
"397 152 CURVE SMOOTH",
"288 152 OFFCURVE",
"199 237 OFFCURVE",
"199 350 CURVE SMOOTH"
);
},
{
closed = 1;
nodes = (
"331 761 LINE",
"434 761 LINE",
"567 940 LINE",
"394 940 LINE"
);
}
);
width = 793;
}
);
leftKerningGroup = C;
note = Oacute;
rightKerningGroup = C;
unicode = 00D3;
},
{
glyphname = Obreve;
layers = (
{
hints = (
{
horizontal = 1;
place = "{-12, 164}";
type = Stem;
},
{
horizontal = 1;
place = "{548, 164}";
type = Stem;
},
{
horizontal = 1;
place = "{747, 170}";
type = Stem;
},
{
place = "{28, 171}";
type = Stem;
},
{
place = "{594, 171}";
type = Stem;
},
{
horizontal = 1;
place = "{747, 107}";
type = Stem;
}
);
layerId = "932F2AAA-B43D-49B5-A115-0F830113A58F";
paths = (
{
closed = 1;
nodes = (
"604 -12 OFFCURVE",
"765 149 OFFCURVE",
"765 350 CURVE SMOOTH",
"765 551 OFFCURVE",
"604 712 OFFCURVE",
"397 712 CURVE SMOOTH",
"189 712 OFFCURVE",
"28 551 OFFCURVE",
"28 350 CURVE SMOOTH",
"28 149 OFFCURVE",
"189 -12 OFFCURVE",
"397 -12 CURVE SMOOTH"
);
},
{
closed = 1;
nodes = (
"199 463 OFFCURVE",
"288 548 OFFCURVE",
"397 548 CURVE SMOOTH",
"505 548 OFFCURVE",
"594 463 OFFCURVE",
"594 350 CURVE SMOOTH",
"594 237 OFFCURVE",
"505 152 OFFCURVE",
"397 152 CURVE SMOOTH",
"288 152 OFFCURVE",
"199 237 OFFCURVE",
"199 350 CURVE SMOOTH"
);
},
{
closed = 1;
nodes = (
"215 917 LINE",
"223 802 OFFCURVE",
"306 747 OFFCURVE",
"397 747 CURVE SMOOTH",
"488 747 OFFCURVE",
"570 801 OFFCURVE",
"578 917 CURVE",
"462 917 LINE",
"460 884 OFFCURVE",
"438 854 OFFCURVE",
"397 854 CURVE SMOOTH",
"355 854 OFFCURVE",
"333 884 OFFCURVE",
"331 917 CURVE"
);
}
);
width = 793;
}
);
leftKerningGroup = C;
note = Obreve;
rightKerningGroup = C;
unicode = 014E;
},
{
glyphname = Ocircumflex;
layers = (
{
hints = (
{
horizontal = 1;
place = "{-12, 164}";
type = Stem;
},
{
horizontal = 1;
place = "{548, 164}";
type = Stem;
},
{
place = "{28, 171}";
type = Stem;
},
{
place = "{233, 327}";
type = Stem;
},
{
place = "{594, 171}";
type = Stem;
}
);
layerId = "932F2AAA-B43D-49B5-A115-0F830113A58F";
paths = (
{
closed = 1;
nodes = (
"604 -12 OFFCURVE",
"765 149 OFFCURVE",
"765 350 CURVE SMOOTH",
"765 551 OFFCURVE",
"604 712 OFFCURVE",
"397 712 CURVE SMOOTH",
"189 712 OFFCURVE",
"28 551 OFFCURVE",
"28 350 CURVE SMOOTH",
"28 149 OFFCURVE",
"189 -12 OFFCURVE",
"397 -12 CURVE SMOOTH"
);
},
{
closed = 1;
nodes = (
"199 463 OFFCURVE",
"288 548 OFFCURVE",
"397 548 CURVE SMOOTH",
"505 548 OFFCURVE",
"594 463 OFFCURVE",
"594 350 CURVE SMOOTH",
"594 237 OFFCURVE",
"505 152 OFFCURVE",
"397 152 CURVE SMOOTH",
"288 152 OFFCURVE",
"199 237 OFFCURVE",
"199 350 CURVE SMOOTH"
);
},
{
closed = 1;
nodes = (
"233 747 LINE",
"396 827 LINE",
"560 747 LINE",
"560 867 LINE",
"396 948 LINE",
"233 867 LINE"
);
}
);
width = 793;
}
);
leftKerningGroup = C;
note = Ocircumflex;
rightKerningGroup = C;
unicode = 00D4;
},
{
glyphname = uni1ED0;
layers = (
{
hints = (
{
horizontal = 1;
place = "{-12, 164}";
type = Stem;
},
{
horizontal = 1;
place = "{548, 164}";
type = Stem;
},
{
horizontal = 1;
place = "{930, 179}";
type = Stem;
},
{
place = "{28, 171}";
type = Stem;
},
{
place = "{233, 327}";
type = Stem;
},
{
place = "{594, 171}";
type = Stem;
}
);
layerId = "932F2AAA-B43D-49B5-A115-0F830113A58F";
paths = (
{
closed = 1;
nodes = (
"604 -12 OFFCURVE",
"765 149 OFFCURVE",
"765 350 CURVE SMOOTH",
"765 551 OFFCURVE",
"604 712 OFFCURVE",
"397 712 CURVE SMOOTH",
"189 712 OFFCURVE",
"28 551 OFFCURVE",
"28 350 CURVE SMOOTH",
"28 149 OFFCURVE",
"189 -12 OFFCURVE",
"397 -12 CURVE SMOOTH"
);
},
{
closed = 1;
nodes = (
"199 463 OFFCURVE",
"288 548 OFFCURVE",
"397 548 CURVE SMOOTH",
"505 548 OFFCURVE",
"594 463 OFFCURVE",
"594 350 CURVE SMOOTH",
"594 237 OFFCURVE",
"505 152 OFFCURVE",
"397 152 CURVE SMOOTH",
"288 152 OFFCURVE",
"199 237 OFFCURVE",
"199 350 CURVE SMOOTH"
);
},
{
closed = 1;
nodes = (
"233 747 LINE",
"396 827 LINE",
"560 747 LINE",
"560 867 LINE",
"396 948 LINE",
"233 867 LINE"
);
},
{
closed = 1;
nodes = (
"461 930 LINE",
"564 930 LINE",
"697 1109 LINE",
"524 1109 LINE"
);
}
);
width = 793;
}
);
leftKerningGroup = C;
note = uni1ED0;
rightKerningGroup = C;
unicode = 1ED0;
},
{
glyphname = uni1ED8;
layers = (
{
hints = (
{
horizontal = 1;
place = "{-12, 164}";
type = Stem;
},
{
horizontal = 1;
place = "{548, 164}";
type = Stem;
},
{
place = "{28, 171}";
type = Stem;
},
{
place = "{233, 327}";
type = Stem;
},
{
place = "{594, 171}";
type = Stem;
},
{
horizontal = 1;
place = "{-243, 186}";
type = Stem;
},
{
place = "{304, 186}";
type = Stem;
}
);
layerId = "932F2AAA-B43D-49B5-A115-0F830113A58F";
paths = (
{
closed = 1;
nodes = (
"604 -12 OFFCURVE",
"765 149 OFFCURVE",
"765 350 CURVE SMOOTH",
"765 551 OFFCURVE",
"604 712 OFFCURVE",
"397 712 CURVE SMOOTH",
"189 712 OFFCURVE",
"28 551 OFFCURVE",
"28 350 CURVE SMOOTH",
"28 149 OFFCURVE",
"189 -12 OFFCURVE",
"397 -12 CURVE SMOOTH"
);
},
{
closed = 1;
nodes = (
"199 463 OFFCURVE",
"288 548 OFFCURVE",
"397 548 CURVE SMOOTH",
"505 548 OFFCURVE",
"594 463 OFFCURVE",
"594 350 CURVE SMOOTH",
"594 237 OFFCURVE",
"505 152 OFFCURVE",
"397 152 CURVE SMOOTH",
"288 152 OFFCURVE",
"199 237 OFFCURVE",
"199 350 CURVE SMOOTH"
);
},
{
closed = 1;
nodes = (
"233 747 LINE",
"396 827 LINE",
"560 747 LINE",
"560 867 LINE",
"396 948 LINE",
"233 867 LINE"
);
},
{
closed = 1;
nodes = (
"304 -201 OFFCURVE",
"346 -243 OFFCURVE",
"397 -243 CURVE SMOOTH",
"448 -243 OFFCURVE",
"490 -201 OFFCURVE",
"490 -150 CURVE SMOOTH",
"490 -100 OFFCURVE",
"448 -57 OFFCURVE",
"397 -57 CURVE SMOOTH",
"346 -57 OFFCURVE",
"304 -100 OFFCURVE",
"304 -150 CURVE SMOOTH"
);
}
);
width = 793;
}
);
leftKerningGroup = C;
note = uni1ED8;
rightKerningGroup = C;
unicode = 1ED8;
},
{
glyphname = uni1ED2;
layers = (
{
hints = (
{
horizontal = 1;
place = "{-12, 164}";
type = Stem;
},
{
horizontal = 1;
place = "{548, 164}";
type = Stem;
},
{
horizontal = 1;
place = "{930, 179}";
type = Stem;
},
{
place = "{28, 171}";
type = Stem;
},
{
place = "{233, 327}";
type = Stem;
},
{
place = "{594, 171}";
type = Stem;
}
);
layerId = "932F2AAA-B43D-49B5-A115-0F830113A58F";
paths = (
{
closed = 1;
nodes = (
"604 -12 OFFCURVE",
"765 149 OFFCURVE",
"765 350 CURVE SMOOTH",
"765 551 OFFCURVE",
"604 712 OFFCURVE",
"397 712 CURVE SMOOTH",
"189 712 OFFCURVE",
"28 551 OFFCURVE",
"28 350 CURVE SMOOTH",
"28 149 OFFCURVE",
"189 -12 OFFCURVE",
"397 -12 CURVE SMOOTH"
);
},
{
closed = 1;
nodes = (
"199 463 OFFCURVE",
"288 548 OFFCURVE",
"397 548 CURVE SMOOTH",
"505 548 OFFCURVE",
"594 463 OFFCURVE",
"594 350 CURVE SMOOTH",
"594 237 OFFCURVE",
"505 152 OFFCURVE",
"397 152 CURVE SMOOTH",
"288 152 OFFCURVE",
"199 237 OFFCURVE",
"199 350 CURVE SMOOTH"
);
},
{
closed = 1;
nodes = (
"233 747 LINE",
"396 827 LINE",
"560 747 LINE",
"560 867 LINE",
"396 948 LINE",
"233 867 LINE"
);
},
{
closed = 1;
nodes = (
"362 1109 LINE",
"495 930 LINE",
"598 930 LINE",
"535 1109 LINE"
);
}
);
width = 793;
}
);
leftKerningGroup = C;
note = uni1ED2;
rightKerningGroup = C;
unicode = 1ED2;
},
{
glyphname = uni1ED4;
layers = (
{
hints = (
{
horizontal = 1;
place = "{-12, 164}";
type = Stem;
},
{
horizontal = 1;
place = "{548, 164}";
type = Stem;
},
{
horizontal = 1;
place = "{1000, 119}";
type = Stem;
},
{
place = "{28, 171}";
type = Stem;
},
{
place = "{485, 75}";
type = Stem;
},
{
place = "{594, 171}";
type = Stem;
},
{
place = "{233, 327}";
type = Stem;
},
{
place = "{400, 99}";
type = Stem;
},
{
horizontal = 1;
place = "{1034, 85}";
type = Stem;
},
{
place = "{552, 103}";
type = Stem;
},
{
horizontal = 1;
place = "{930, 189}";
type = Stem;
}
);
layerId = "932F2AAA-B43D-49B5-A115-0F830113A58F";
paths = (
{
closed = 1;
nodes = (
"604 -12 OFFCURVE",
"765 149 OFFCURVE",
"765 350 CURVE SMOOTH",
"765 551 OFFCURVE",
"604 712 OFFCURVE",
"397 712 CURVE SMOOTH",
"189 712 OFFCURVE",
"28 551 OFFCURVE",
"28 350 CURVE SMOOTH",
"28 149 OFFCURVE",
"189 -12 OFFCURVE",
"397 -12 CURVE SMOOTH"
);
},
{
closed = 1;
nodes = (
"199 463 OFFCURVE",
"288 548 OFFCURVE",
"397 548 CURVE SMOOTH",
"505 548 OFFCURVE",
"594 463 OFFCURVE",
"594 350 CURVE SMOOTH",
"594 237 OFFCURVE",
"505 152 OFFCURVE",
"397 152 CURVE SMOOTH",
"288 152 OFFCURVE",
"199 237 OFFCURVE",
"199 350 CURVE SMOOTH"
);
},
{
closed = 1;
nodes = (
"233 747 LINE",
"396 827 LINE",
"560 747 LINE",
"560 867 LINE",
"396 948 LINE",
"233 867 LINE"
);
},
{
closed = 1;
nodes = (
"499 1000 LINE",
"499 1020 OFFCURVE",
"509 1034 OFFCURVE",
"528 1034 CURVE SMOOTH",
"546 1034 OFFCURVE",
"552 1025 OFFCURVE",
"552 1014 CURVE SMOOTH",
"552 983 OFFCURVE",
"485 982 OFFCURVE",
"485 930 CURVE",
"583 930 LINE",
"588 958 OFFCURVE",
"655 955 OFFCURVE",
"655 1032 CURVE SMOOTH",
"655 1088 OFFCURVE",
"611 1119 OFFCURVE",
"534 1119 CURVE SMOOTH",
"447 1119 OFFCURVE",
"400 1066 OFFCURVE",
"400 1000 CURVE"
);
}
);
width = 793;
}
);
leftKerningGroup = C;
note = uni1ED4;
rightKerningGroup = C;
unicode = 1ED4;
},
{
glyphname = uni1ED6;
layers = (
{
hints = (
{
horizontal = 1;
place = "{-12, 164}";
type = Stem;
},
{
horizontal = 1;
place = "{548, 164}";
type = Stem;
},
{
horizontal = 1;
place = "{946, 149}";
type = Stem;
},
{
place = "{28, 171}";
type = Stem;
},
{
place = "{594, 171}";
type = Stem;
},
{
horizontal = 1;
place = "{951, 149}";
type = Stem;
},
{
place = "{206, 111}";
type = Stem;
},
{
horizontal = 1;
place = "{991, 109}";
type = Stem;
},
{
place = "{487, 110}";
type = Stem;
},
{
horizontal = 1;
place = "{946, 109}";
type = Stem;
},
{
place = "{233, 327}";
type = Stem;
}
);
layerId = "932F2AAA-B43D-49B5-A115-0F830113A58F";
paths = (
{
closed = 1;
nodes = (
"604 -12 OFFCURVE",
"765 149 OFFCURVE",
"765 350 CURVE SMOOTH",
"765 551 OFFCURVE",
"604 712 OFFCURVE",
"397 712 CURVE SMOOTH",
"189 712 OFFCURVE",
"28 551 OFFCURVE",
"28 350 CURVE SMOOTH",
"28 149 OFFCURVE",
"189 -12 OFFCURVE",
"397 -12 CURVE SMOOTH"
);
},
{
closed = 1;
nodes = (
"199 463 OFFCURVE",
"288 548 OFFCURVE",
"397 548 CURVE SMOOTH",
"505 548 OFFCURVE",
"594 463 OFFCURVE",
"594 350 CURVE SMOOTH",
"594 237 OFFCURVE",
"505 152 OFFCURVE",
"397 152 CURVE SMOOTH",
"288 152 OFFCURVE",
"199 237 OFFCURVE",
"199 350 CURVE SMOOTH"
);
},
{
closed = 1;
nodes = (
"317 951 LINE",
"319 975 OFFCURVE",
"330 991 OFFCURVE",
"352 991 CURVE SMOOTH",
"383 991 OFFCURVE",
"403 946 OFFCURVE",
"467 946 CURVE SMOOTH",
"544 946 OFFCURVE",
"592 1001 OFFCURVE",
"597 1095 CURVE",
"487 1095 LINE",
"485 1071 OFFCURVE",
"474 1055 OFFCURVE",
"452 1055 CURVE SMOOTH",
"421 1055 OFFCURVE",
"402 1100 OFFCURVE",
"339 1100 CURVE SMOOTH",
"262 1100 OFFCURVE",
"211 1049 OFFCURVE",
"206 951 CURVE"
);
},
{
closed = 1;
nodes = (
"233 747 LINE",
"396 827 LINE",
"560 747 LINE",
"560 867 LINE",
"396 948 LINE",
"233 867 LINE"
);
}
);
width = 793;
}
);
leftKerningGroup = C;
note = uni1ED6;
rightKerningGroup = C;
unicode = 1ED6;
},
{
glyphname = Odieresis;
layers = (
{
hints = (
{
horizontal = 1;
place = "{-12, 164}";
type = Stem;
},
{
horizontal = 1;
place = "{548, 164}";
type = Stem;
},
{
horizontal = 1;
place = "{761, 180}";
type = Stem;
},
{
place = "{28, 171}";
type = Stem;
},
{
place = "{594, 171}";
type = Stem;
},
{
place = "{192, 181}";
type = Stem;
},
{
place = "{422, 180}";
type = Stem;
}
);
layerId = "932F2AAA-B43D-49B5-A115-0F830113A58F";
paths = (
{
closed = 1;
nodes = (
"604 -12 OFFCURVE",
"765 149 OFFCURVE",
"765 350 CURVE SMOOTH",
"765 551 OFFCURVE",
"604 712 OFFCURVE",
"397 712 CURVE SMOOTH",
"189 712 OFFCURVE",
"28 551 OFFCURVE",
"28 350 CURVE SMOOTH",
"28 149 OFFCURVE",
"189 -12 OFFCURVE",
"397 -12 CURVE SMOOTH"
);
},
{
closed = 1;
nodes = (
"192 802 OFFCURVE",
"233 761 OFFCURVE",
"282 761 CURVE SMOOTH",
"332 761 OFFCURVE",
"373 802 OFFCURVE",
"373 851 CURVE SMOOTH",
"373 900 OFFCURVE",
"332 941 OFFCURVE",
"282 941 CURVE SMOOTH",
"233 941 OFFCURVE",
"192 900 OFFCURVE",
"192 851 CURVE SMOOTH"
);
},
{
closed = 1;
nodes = (
"199 463 OFFCURVE",
"288 548 OFFCURVE",
"397 548 CURVE SMOOTH",
"505 548 OFFCURVE",
"594 463 OFFCURVE",
"594 350 CURVE SMOOTH",
"594 237 OFFCURVE",
"505 152 OFFCURVE",
"397 152 CURVE SMOOTH",
"288 152 OFFCURVE",
"199 237 OFFCURVE",
"199 350 CURVE SMOOTH"
);
},
{
closed = 1;
nodes = (
"422 802 OFFCURVE",
"462 761 OFFCURVE",
"512 761 CURVE SMOOTH",
"561 761 OFFCURVE",
"602 802 OFFCURVE",
"602 851 CURVE SMOOTH",
"602 900 OFFCURVE",
"561 941 OFFCURVE",
"512 941 CURVE SMOOTH",
"462 941 OFFCURVE",
"422 900 OFFCURVE",
"422 851 CURVE SMOOTH"
);
}
);
width = 793;
}
);
leftKerningGroup = C;
note = Odieresis;
rightKerningGroup = C;
unicode = 00D6;
},
{
glyphname = uni1ECC;
layers = (
{
hints = (
{
horizontal = 1;
place = "{-243, 186}";
type = Stem;
},
{
horizontal = 1;
place = "{-12, 164}";
type = Stem;
},
{
horizontal = 1;
place = "{548, 164}";
type = Stem;
},
{
place = "{28, 171}";
type = Stem;
},
{
place = "{304, 186}";
type = Stem;
},
{
place = "{594, 171}";
type = Stem;
}
);
layerId = "932F2AAA-B43D-49B5-A115-0F830113A58F";
paths = (
{
closed = 1;
nodes = (
"604 -12 OFFCURVE",
"765 149 OFFCURVE",
"765 350 CURVE SMOOTH",
"765 551 OFFCURVE",
"604 712 OFFCURVE",
"397 712 CURVE SMOOTH",
"189 712 OFFCURVE",
"28 551 OFFCURVE",
"28 350 CURVE SMOOTH",
"28 149 OFFCURVE",
"189 -12 OFFCURVE",
"397 -12 CURVE SMOOTH"
);
},
{
closed = 1;
nodes = (
"199 463 OFFCURVE",
"288 548 OFFCURVE",
"397 548 CURVE SMOOTH",
"505 548 OFFCURVE",
"594 463 OFFCURVE",
"594 350 CURVE SMOOTH",
"594 237 OFFCURVE",
"505 152 OFFCURVE",
"397 152 CURVE SMOOTH",
"288 152 OFFCURVE",
"199 237 OFFCURVE",
"199 350 CURVE SMOOTH"
);
},
{
closed = 1;
nodes = (
"304 -201 OFFCURVE",
"346 -243 OFFCURVE",
"397 -243 CURVE SMOOTH",
"448 -243 OFFCURVE",
"490 -201 OFFCURVE",
"490 -150 CURVE SMOOTH",
"490 -100 OFFCURVE",
"448 -57 OFFCURVE",
"397 -57 CURVE SMOOTH",
"346 -57 OFFCURVE",
"304 -100 OFFCURVE",
"304 -150 CURVE SMOOTH"
);
}
);
width = 793;
}
);
leftKerningGroup = C;
note = uni1ECC;
rightKerningGroup = C;
unicode = 1ECC;
},
{
glyphname = Ograve;
layers = (
{
hints = (
{
horizontal = 1;
place = "{-12, 164}";
type = Stem;
},
{
horizontal = 1;
place = "{548, 164}";
type = Stem;
},
{
horizontal = 1;
place = "{761, 179}";
type = Stem;
},
{
place = "{28, 171}";
type = Stem;
},
{
place = "{594, 171}";
type = Stem;
}
);
layerId = "932F2AAA-B43D-49B5-A115-0F830113A58F";
paths = (
{
closed = 1;
nodes = (
"604 -12 OFFCURVE",
"765 149 OFFCURVE",
"765 350 CURVE SMOOTH",
"765 551 OFFCURVE",
"604 712 OFFCURVE",
"397 712 CURVE SMOOTH",
"189 712 OFFCURVE",
"28 551 OFFCURVE",
"28 350 CURVE SMOOTH",
"28 149 OFFCURVE",
"189 -12 OFFCURVE",
"397 -12 CURVE SMOOTH"
);
},
{
closed = 1;
nodes = (
"199 463 OFFCURVE",
"288 548 OFFCURVE",
"397 548 CURVE SMOOTH",
"505 548 OFFCURVE",
"594 463 OFFCURVE",
"594 350 CURVE SMOOTH",
"594 237 OFFCURVE",
"505 152 OFFCURVE",
"397 152 CURVE SMOOTH",
"288 152 OFFCURVE",
"199 237 OFFCURVE",
"199 350 CURVE SMOOTH"
);
},
{
closed = 1;
nodes = (
"233 940 LINE",
"366 761 LINE",
"469 761 LINE",
"406 940 LINE"
);
}
);
width = 793;
}
);
leftKerningGroup = C;
note = Ograve;
rightKerningGroup = C;
unicode = 00D2;
},
{
glyphname = uni1ECE;
layers = (
{
hints = (
{
horizontal = 1;
place = "{-12, 164}";
type = Stem;
},
{
horizontal = 1;
place = "{548, 164}";
type = Stem;
},
{
horizontal = 1;
place = "{831, 119}";
type = Stem;
},
{
place = "{28, 171}";
type = Stem;
},
{
place = "{270, 99}";
type = Stem;
},
{
place = "{422, 103}";
type = Stem;
},
{
place = "{594, 171}";
type = Stem;
},
{
horizontal = 1;
place = "{865, 85}";
type = Stem;
},
{
horizontal = 1;
place = "{761, 189}";
type = Stem;
}
);
layerId = "932F2AAA-B43D-49B5-A115-0F830113A58F";
paths = (
{
closed = 1;
nodes = (
"604 -12 OFFCURVE",
"765 149 OFFCURVE",
"765 350 CURVE SMOOTH",
"765 551 OFFCURVE",
"604 712 OFFCURVE",
"397 712 CURVE SMOOTH",
"189 712 OFFCURVE",
"28 551 OFFCURVE",
"28 350 CURVE SMOOTH",
"28 149 OFFCURVE",
"189 -12 OFFCURVE",
"397 -12 CURVE SMOOTH"
);
},
{
closed = 1;
nodes = (
"199 463 OFFCURVE",
"288 548 OFFCURVE",
"397 548 CURVE SMOOTH",
"505 548 OFFCURVE",
"594 463 OFFCURVE",
"594 350 CURVE SMOOTH",
"594 237 OFFCURVE",
"505 152 OFFCURVE",
"397 152 CURVE SMOOTH",
"288 152 OFFCURVE",
"199 237 OFFCURVE",
"199 350 CURVE SMOOTH"
);
},
{
closed = 1;
nodes = (
"369 831 LINE",
"369 851 OFFCURVE",
"379 865 OFFCURVE",
"398 865 CURVE SMOOTH",
"416 865 OFFCURVE",
"422 856 OFFCURVE",
"422 845 CURVE SMOOTH",
"422 814 OFFCURVE",
"355 813 OFFCURVE",
"355 761 CURVE",
"453 761 LINE",
"458 789 OFFCURVE",
"525 786 OFFCURVE",
"525 863 CURVE SMOOTH",
"525 919 OFFCURVE",
"481 950 OFFCURVE",
"404 950 CURVE SMOOTH",
"317 950 OFFCURVE",
"270 897 OFFCURVE",
"270 831 CURVE"
);
}
);
width = 793;
}
);
leftKerningGroup = C;
note = uni1ECE;
rightKerningGroup = C;
unicode = 1ECE;
},
{
glyphname = Ohorn;
layers = (
{
hints = (
{
horizontal = 1;
place = "{-12, 164}";
type = Stem;
},
{
horizontal = 1;
place = "{548, 164}";
type = Stem;
},
{
place = "{28, 171}";
type = Stem;
},
{
place = "{594, 171}";
type = Stem;
},
{
horizontal = 1;
place = "{700, -20}";
target = down;
type = TopGhost;
},
{
place = "{572, 161}";
type = Stem;
}
);
layerId = "932F2AAA-B43D-49B5-A115-0F830113A58F";
paths = (
{
closed = 1;
nodes = (
"604 -12 OFFCURVE",
"765 149 OFFCURVE",
"765 350 CURVE SMOOTH",
"765 454 OFFCURVE",
"722 547 OFFCURVE",
"652 612 CURVE",
"704 644 OFFCURVE",
"733 695 OFFCURVE",
"733 761 CURVE SMOOTH",
"733 771 OFFCURVE",
"732 786 OFFCURVE",
"730 796 CURVE",
"569 796 LINE",
"571 786 OFFCURVE",
"572 772 OFFCURVE",
"572 762 CURVE SMOOTH",
"572 715 OFFCURVE",
"543 700 OFFCURVE",
"493 700 CURVE",
"463 708 OFFCURVE",
"430 712 OFFCURVE",
"397 712 CURVE SMOOTH",
"189 712 OFFCURVE",
"28 551 OFFCURVE",
"28 350 CURVE SMOOTH",
"28 149 OFFCURVE",
"189 -12 OFFCURVE",
"397 -12 CURVE SMOOTH"
);
},
{
closed = 1;
nodes = (
"199 463 OFFCURVE",
"288 548 OFFCURVE",
"397 548 CURVE SMOOTH",
"505 548 OFFCURVE",
"594 463 OFFCURVE",
"594 350 CURVE SMOOTH",
"594 237 OFFCURVE",
"505 152 OFFCURVE",
"397 152 CURVE SMOOTH",
"288 152 OFFCURVE",
"199 237 OFFCURVE",
"199 350 CURVE SMOOTH"
);
}
);
width = 793;
}
);
leftKerningGroup = C;
note = Ohorn;
rightKerningGroup = C;
unicode = 01A0;
},
{
glyphname = uni1EDA;
layers = (
{
hints = (
{
horizontal = 1;
place = "{-12, 164}";
type = Stem;
},
{
horizontal = 1;
place = "{548, 164}";
type = Stem;
},
{
horizontal = 1;
place = "{761, 179}";
type = Stem;
},
{
place = "{28, 171}";
type = Stem;
},
{
place = "{594, 171}";
type = Stem;
},
{
horizontal = 1;
place = "{700, -20}";
target = down;
type = TopGhost;
},
{
place = "{572, 161}";
type = Stem;
}
);
layerId = "932F2AAA-B43D-49B5-A115-0F830113A58F";
paths = (
{
closed = 1;
nodes = (
"604 -12 OFFCURVE",
"765 149 OFFCURVE",
"765 350 CURVE SMOOTH",
"765 454 OFFCURVE",
"722 547 OFFCURVE",
"652 612 CURVE",
"704 644 OFFCURVE",
"733 695 OFFCURVE",
"733 761 CURVE SMOOTH",
"733 771 OFFCURVE",
"732 786 OFFCURVE",
"730 796 CURVE",
"569 796 LINE",
"571 786 OFFCURVE",
"572 772 OFFCURVE",
"572 762 CURVE SMOOTH",
"572 715 OFFCURVE",
"543 700 OFFCURVE",
"493 700 CURVE",
"463 708 OFFCURVE",
"430 712 OFFCURVE",
"397 712 CURVE SMOOTH",
"189 712 OFFCURVE",
"28 551 OFFCURVE",
"28 350 CURVE SMOOTH",
"28 149 OFFCURVE",
"189 -12 OFFCURVE",
"397 -12 CURVE SMOOTH"
);
},
{
closed = 1;
nodes = (
"199 463 OFFCURVE",
"288 548 OFFCURVE",
"397 548 CURVE SMOOTH",
"505 548 OFFCURVE",
"594 463 OFFCURVE",
"594 350 CURVE SMOOTH",
"594 237 OFFCURVE",
"505 152 OFFCURVE",
"397 152 CURVE SMOOTH",
"288 152 OFFCURVE",
"199 237 OFFCURVE",
"199 350 CURVE SMOOTH"
);
},
{
closed = 1;
nodes = (
"331 761 LINE",
"434 761 LINE",
"567 940 LINE",
"394 940 LINE"
);
}
);
width = 793;
}
);
leftKerningGroup = C;
note = uni1EDA;
rightKerningGroup = C;
unicode = 1EDA;
},
{
glyphname = uni1EE2;
layers = (
{
hints = (
{
horizontal = 1;
place = "{-12, 164}";
type = Stem;
},
{
horizontal = 1;
place = "{548, 164}";
type = Stem;
},
{
place = "{28, 171}";
type = Stem;
},
{
place = "{594, 171}";
type = Stem;
},
{
horizontal = 1;
place = "{700, -20}";
target = down;
type = TopGhost;
},
{
place = "{572, 161}";
type = Stem;
},
{
horizontal = 1;
place = "{-243, 186}";
type = Stem;
},
{
place = "{304, 186}";
type = Stem;
}
);
layerId = "932F2AAA-B43D-49B5-A115-0F830113A58F";
paths = (
{
closed = 1;
nodes = (
"604 -12 OFFCURVE",
"765 149 OFFCURVE",
"765 350 CURVE SMOOTH",
"765 454 OFFCURVE",
"722 547 OFFCURVE",
"652 612 CURVE",
"704 644 OFFCURVE",
"733 695 OFFCURVE",
"733 761 CURVE SMOOTH",
"733 771 OFFCURVE",
"732 786 OFFCURVE",
"730 796 CURVE",
"569 796 LINE",
"571 786 OFFCURVE",
"572 772 OFFCURVE",
"572 762 CURVE SMOOTH",
"572 715 OFFCURVE",
"543 700 OFFCURVE",
"493 700 CURVE",
"463 708 OFFCURVE",
"430 712 OFFCURVE",
"397 712 CURVE SMOOTH",
"189 712 OFFCURVE",
"28 551 OFFCURVE",
"28 350 CURVE SMOOTH",
"28 149 OFFCURVE",
"189 -12 OFFCURVE",
"397 -12 CURVE SMOOTH"
);
},
{
closed = 1;
nodes = (
"199 463 OFFCURVE",
"288 548 OFFCURVE",
"397 548 CURVE SMOOTH",
"505 548 OFFCURVE",
"594 463 OFFCURVE",
"594 350 CURVE SMOOTH",
"594 237 OFFCURVE",
"505 152 OFFCURVE",
"397 152 CURVE SMOOTH",
"288 152 OFFCURVE",
"199 237 OFFCURVE",
"199 350 CURVE SMOOTH"
);
},
{
closed = 1;
nodes = (
"304 -201 OFFCURVE",
"346 -243 OFFCURVE",
"397 -243 CURVE SMOOTH",
"448 -243 OFFCURVE",
"490 -201 OFFCURVE",
"490 -150 CURVE SMOOTH",
"490 -100 OFFCURVE",
"448 -57 OFFCURVE",
"397 -57 CURVE SMOOTH",
"346 -57 OFFCURVE",
"304 -100 OFFCURVE",
"304 -150 CURVE SMOOTH"
);
}
);
width = 793;
}
);
leftKerningGroup = C;
note = uni1EE2;
rightKerningGroup = C;
unicode = 1EE2;
},
{
glyphname = uni1EDC;
layers = (
{
hints = (
{
horizontal = 1;
place = "{-12, 164}";
type = Stem;
},
{
horizontal = 1;
place = "{548, 164}";
type = Stem;
},
{
horizontal = 1;
place = "{761, 179}";
type = Stem;
},
{
place = "{28, 171}";
type = Stem;
},
{
place = "{594, 171}";
type = Stem;
},
{
horizontal = 1;
place = "{761, 35}";
type = Stem;
},
{
place = "{572, 161}";
type = Stem;
},
{
horizontal = 1;
place = "{700, -20}";
target = down;
type = TopGhost;
}
);
layerId = "932F2AAA-B43D-49B5-A115-0F830113A58F";
paths = (
{
closed = 1;
nodes = (
"604 -12 OFFCURVE",
"765 149 OFFCURVE",
"765 350 CURVE SMOOTH",
"765 454 OFFCURVE",
"722 547 OFFCURVE",
"652 612 CURVE",
"704 644 OFFCURVE",
"733 695 OFFCURVE",
"733 761 CURVE SMOOTH",
"733 771 OFFCURVE",
"732 786 OFFCURVE",
"730 796 CURVE",
"569 796 LINE",
"571 786 OFFCURVE",
"572 772 OFFCURVE",
"572 762 CURVE SMOOTH",
"572 715 OFFCURVE",
"543 700 OFFCURVE",
"493 700 CURVE",
"463 708 OFFCURVE",
"430 712 OFFCURVE",
"397 712 CURVE SMOOTH",
"189 712 OFFCURVE",
"28 551 OFFCURVE",
"28 350 CURVE SMOOTH",
"28 149 OFFCURVE",
"189 -12 OFFCURVE",
"397 -12 CURVE SMOOTH"
);
},
{
closed = 1;
nodes = (
"199 463 OFFCURVE",
"288 548 OFFCURVE",
"397 548 CURVE SMOOTH",
"505 548 OFFCURVE",
"594 463 OFFCURVE",
"594 350 CURVE SMOOTH",
"594 237 OFFCURVE",
"505 152 OFFCURVE",
"397 152 CURVE SMOOTH",
"288 152 OFFCURVE",
"199 237 OFFCURVE",
"199 350 CURVE SMOOTH"
);
},
{
closed = 1;
nodes = (
"233 940 LINE",
"366 761 LINE",
"469 761 LINE",
"406 940 LINE"
);
}
);
width = 793;
}
);
leftKerningGroup = C;
note = uni1EDC;
rightKerningGroup = C;
unicode = 1EDC;
},
{
glyphname = uni1EDE;
layers = (
{
hints = (
{
horizontal = 1;
place = "{-12, 164}";
type = Stem;
},
{
horizontal = 1;
place = "{548, 164}";
type = Stem;
},
{
horizontal = 1;
place = "{831, 119}";
type = Stem;
},
{
place = "{28, 171}";
type = Stem;
},
{
place = "{270, 99}";
type = Stem;
},
{
place = "{422, 103}";
type = Stem;
},
{
place = "{594, 171}";
type = Stem;
},
{
horizontal = 1;
place = "{700, -20}";
target = down;
type = TopGhost;
},
{
place = "{572, 161}";
type = Stem;
},
{
horizontal = 1;
place = "{865, 85}";
type = Stem;
},
{
horizontal = 1;
place = "{761, 189}";
type = Stem;
}
);
layerId = "932F2AAA-B43D-49B5-A115-0F830113A58F";
paths = (
{
closed = 1;
nodes = (
"604 -12 OFFCURVE",
"765 149 OFFCURVE",
"765 350 CURVE SMOOTH",
"765 454 OFFCURVE",
"722 547 OFFCURVE",
"652 612 CURVE",
"704 644 OFFCURVE",
"733 695 OFFCURVE",
"733 761 CURVE SMOOTH",
"733 771 OFFCURVE",
"732 786 OFFCURVE",
"730 796 CURVE",
"569 796 LINE",
"571 786 OFFCURVE",
"572 772 OFFCURVE",
"572 762 CURVE SMOOTH",
"572 715 OFFCURVE",
"543 700 OFFCURVE",
"493 700 CURVE",
"463 708 OFFCURVE",
"430 712 OFFCURVE",
"397 712 CURVE SMOOTH",
"189 712 OFFCURVE",
"28 551 OFFCURVE",
"28 350 CURVE SMOOTH",
"28 149 OFFCURVE",
"189 -12 OFFCURVE",
"397 -12 CURVE SMOOTH"
);
},
{
closed = 1;
nodes = (
"199 463 OFFCURVE",
"288 548 OFFCURVE",
"397 548 CURVE SMOOTH",
"505 548 OFFCURVE",
"594 463 OFFCURVE",
"594 350 CURVE SMOOTH",
"594 237 OFFCURVE",
"505 152 OFFCURVE",
"397 152 CURVE SMOOTH",
"288 152 OFFCURVE",
"199 237 OFFCURVE",
"199 350 CURVE SMOOTH"
);
},
{
closed = 1;
nodes = (
"369 831 LINE",
"369 851 OFFCURVE",
"379 865 OFFCURVE",
"398 865 CURVE SMOOTH",
"416 865 OFFCURVE",
"422 856 OFFCURVE",
"422 845 CURVE SMOOTH",
"422 814 OFFCURVE",
"355 813 OFFCURVE",
"355 761 CURVE",
"453 761 LINE",
"458 789 OFFCURVE",
"525 786 OFFCURVE",
"525 863 CURVE SMOOTH",
"525 919 OFFCURVE",
"481 950 OFFCURVE",
"404 950 CURVE SMOOTH",
"317 950 OFFCURVE",
"270 897 OFFCURVE",
"270 831 CURVE"
);
}
);
width = 793;
}
);
leftKerningGroup = C;
note = uni1EDE;
rightKerningGroup = C;
unicode = 1EDE;
},
{
glyphname = uni1EE0;
layers = (
{
hints = (
{
horizontal = 1;
place = "{-12, 164}";
type = Stem;
},
{
horizontal = 1;
place = "{548, 164}";
type = Stem;
},
{
horizontal = 1;
place = "{771, 149}";
type = Stem;
},
{
place = "{28, 171}";
type = Stem;
},
{
place = "{594, 171}";
type = Stem;
},
{
horizontal = 1;
place = "{700, -20}";
target = down;
type = TopGhost;
},
{
place = "{572, 161}";
type = Stem;
},
{
horizontal = 1;
place = "{776, 149}";
type = Stem;
},
{
place = "{201, 111}";
type = Stem;
},
{
horizontal = 1;
place = "{816, 109}";
type = Stem;
},
{
place = "{482, 110}";
type = Stem;
},
{
horizontal = 1;
place = "{771, 109}";
type = Stem;
}
);
layerId = "932F2AAA-B43D-49B5-A115-0F830113A58F";
paths = (
{
closed = 1;
nodes = (
"604 -12 OFFCURVE",
"765 149 OFFCURVE",
"765 350 CURVE SMOOTH",
"765 454 OFFCURVE",
"722 547 OFFCURVE",
"652 612 CURVE",
"704 644 OFFCURVE",
"733 695 OFFCURVE",
"733 761 CURVE SMOOTH",
"733 771 OFFCURVE",
"732 786 OFFCURVE",
"730 796 CURVE",
"569 796 LINE",
"571 786 OFFCURVE",
"572 772 OFFCURVE",
"572 762 CURVE SMOOTH",
"572 715 OFFCURVE",
"543 700 OFFCURVE",
"493 700 CURVE",
"463 708 OFFCURVE",
"430 712 OFFCURVE",
"397 712 CURVE SMOOTH",
"189 712 OFFCURVE",
"28 551 OFFCURVE",
"28 350 CURVE SMOOTH",
"28 149 OFFCURVE",
"189 -12 OFFCURVE",
"397 -12 CURVE SMOOTH"
);
},
{
closed = 1;
nodes = (
"199 463 OFFCURVE",
"288 548 OFFCURVE",
"397 548 CURVE SMOOTH",
"505 548 OFFCURVE",
"594 463 OFFCURVE",
"594 350 CURVE SMOOTH",
"594 237 OFFCURVE",
"505 152 OFFCURVE",
"397 152 CURVE SMOOTH",
"288 152 OFFCURVE",
"199 237 OFFCURVE",
"199 350 CURVE SMOOTH"
);
},
{
closed = 1;
nodes = (
"312 776 LINE",
"314 800 OFFCURVE",
"325 816 OFFCURVE",
"347 816 CURVE SMOOTH",
"378 816 OFFCURVE",
"398 771 OFFCURVE",
"462 771 CURVE SMOOTH",
"539 771 OFFCURVE",
"587 826 OFFCURVE",
"592 920 CURVE",
"482 920 LINE",
"480 896 OFFCURVE",
"469 880 OFFCURVE",
"447 880 CURVE SMOOTH",
"416 880 OFFCURVE",
"397 925 OFFCURVE",
"334 925 CURVE SMOOTH",
"257 925 OFFCURVE",
"206 874 OFFCURVE",
"201 776 CURVE"
);
}
);
width = 793;
}
);
leftKerningGroup = C;
note = uni1EE0;
rightKerningGroup = C;
unicode = 1EE0;
},
{
glyphname = Ohungarumlaut;
layers = (
{
hints = (
{
horizontal = 1;
place = "{-12, 164}";
type = Stem;
},
{
horizontal = 1;
place = "{548, 164}";
type = Stem;
},
{
horizontal = 1;
place = "{770, 179}";
type = Stem;
},
{
place = "{28, 171}";
type = Stem;
},
{
place = "{594, 171}";
type = Stem;
}
);
layerId = "932F2AAA-B43D-49B5-A115-0F830113A58F";
paths = (
{
closed = 1;
nodes = (
"604 -12 OFFCURVE",
"765 149 OFFCURVE",
"765 350 CURVE SMOOTH",
"765 551 OFFCURVE",
"604 712 OFFCURVE",
"397 712 CURVE SMOOTH",
"189 712 OFFCURVE",
"28 551 OFFCURVE",
"28 350 CURVE SMOOTH",
"28 149 OFFCURVE",
"189 -12 OFFCURVE",
"397 -12 CURVE SMOOTH"
);
},
{
closed = 1;
nodes = (
"199 463 OFFCURVE",
"288 548 OFFCURVE",
"397 548 CURVE SMOOTH",
"505 548 OFFCURVE",
"594 463 OFFCURVE",
"594 350 CURVE SMOOTH",
"594 237 OFFCURVE",
"505 152 OFFCURVE",
"397 152 CURVE SMOOTH",
"288 152 OFFCURVE",
"199 237 OFFCURVE",
"199 350 CURVE SMOOTH"
);
},
{
closed = 1;
nodes = (
"236 770 LINE",
"334 770 LINE",
"455 949 LINE",
"291 949 LINE"
);
},
{
closed = 1;
nodes = (
"431 770 LINE",
"529 770 LINE",
"650 949 LINE",
"486 949 LINE"
);
}
);
width = 793;
}
);
leftKerningGroup = C;
note = Ohungarumlaut;
rightKerningGroup = C;
unicode = 0150;
},
{
glyphname = Omacron;
layers = (
{
hints = (
{
horizontal = 1;
place = "{-12, 164}";
type = Stem;
},
{
horizontal = 1;
place = "{548, 164}";
type = Stem;
},
{
horizontal = 1;
place = "{786, 113}";
type = Stem;
},
{
place = "{28, 171}";
type = Stem;
},
{
place = "{594, 171}";
type = Stem;
}
);
layerId = "932F2AAA-B43D-49B5-A115-0F830113A58F";
paths = (
{
closed = 1;
nodes = (
"604 -12 OFFCURVE",
"765 149 OFFCURVE",
"765 350 CURVE SMOOTH",
"765 551 OFFCURVE",
"604 712 OFFCURVE",
"397 712 CURVE SMOOTH",
"189 712 OFFCURVE",
"28 551 OFFCURVE",
"28 350 CURVE SMOOTH",
"28 149 OFFCURVE",
"189 -12 OFFCURVE",
"397 -12 CURVE SMOOTH"
);
},
{
closed = 1;
nodes = (
"199 463 OFFCURVE",
"288 548 OFFCURVE",
"397 548 CURVE SMOOTH",
"505 548 OFFCURVE",
"594 463 OFFCURVE",
"594 350 CURVE SMOOTH",
"594 237 OFFCURVE",
"505 152 OFFCURVE",
"397 152 CURVE SMOOTH",
"288 152 OFFCURVE",
"199 237 OFFCURVE",
"199 350 CURVE SMOOTH"
);
},
{
closed = 1;
nodes = (
"217 786 LINE",
"579 786 LINE",
"579 899 LINE",
"217 899 LINE"
);
}
);
width = 793;
}
);
leftKerningGroup = C;
note = Omacron;
rightKerningGroup = C;
unicode = 014C;
},
{
glyphname = Oslash;
layers = (
{
hints = (
{
horizontal = 1;
place = "{-12, 164}";
type = Stem;
},
{
horizontal = 1;
place = "{548, 164}";
type = Stem;
},
{
place = "{28, 171}";
type = Stem;
},
{
place = "{594, 171}";
type = Stem;
},
{
horizontal = 1;
place = "{557, -20}";
target = down;
type = TopGhost;
}
);
layerId = "932F2AAA-B43D-49B5-A115-0F830113A58F";
paths = (
{
closed = 1;
nodes = (
"132 -11 LINE",
"191 48 LINE",
"249 10 OFFCURVE",
"320 -12 OFFCURVE",
"397 -12 CURVE SMOOTH",
"604 -12 OFFCURVE",
"765 149 OFFCURVE",
"765 350 CURVE SMOOTH",
"765 427 OFFCURVE",
"741 499 OFFCURVE",
"700 557 CURVE",
"763 620 LINE",
"672 711 LINE",
"609 648 LINE",
"549 688 OFFCURVE",
"477 712 OFFCURVE",
"397 712 CURVE SMOOTH",
"189 712 OFFCURVE",
"28 551 OFFCURVE",
"28 350 CURVE SMOOTH",
"28 270 OFFCURVE",
"54 196 OFFCURVE",
"98 136 CURVE",
"42 80 LINE"
);
},
{
closed = 1;
nodes = (
"199 463 OFFCURVE",
"288 548 OFFCURVE",
"397 548 CURVE SMOOTH",
"430 548 OFFCURVE",
"460 540 OFFCURVE",
"488 526 CURVE",
"220 259 LINE",
"207 286 OFFCURVE",
"199 317 OFFCURVE",
"199 350 CURVE SMOOTH"
);
},
{
closed = 1;
nodes = (
"576 433 LINE",
"588 408 OFFCURVE",
"594 380 OFFCURVE",
"594 350 CURVE SMOOTH",
"594 237 OFFCURVE",
"505 152 OFFCURVE",
"397 152 CURVE SMOOTH",
"367 152 OFFCURVE",
"339 158 OFFCURVE",
"313 170 CURVE"
);
}
);
width = 795;
}
);
leftKerningGroup = C;
note = Oslash;
rightKerningGroup = C;
unicode = 00D8;
},
{
glyphname = Otilde;
layers = (
{
hints = (
{
horizontal = 1;
place = "{-12, 164}";
type = Stem;
},
{
horizontal = 1;
place = "{548, 164}";
type = Stem;
},
{
horizontal = 1;
place = "{771, 149}";
type = Stem;
},
{
place = "{28, 171}";
type = Stem;
},
{
place = "{594, 171}";
type = Stem;
},
{
horizontal = 1;
place = "{776, 149}";
type = Stem;
},
{
place = "{201, 111}";
type = Stem;
},
{
horizontal = 1;
place = "{816, 109}";
type = Stem;
},
{
place = "{482, 110}";
type = Stem;
},
{
horizontal = 1;
place = "{771, 109}";
type = Stem;
}
);
layerId = "932F2AAA-B43D-49B5-A115-0F830113A58F";
paths = (
{
closed = 1;
nodes = (
"604 -12 OFFCURVE",
"765 149 OFFCURVE",
"765 350 CURVE SMOOTH",
"765 551 OFFCURVE",
"604 712 OFFCURVE",
"397 712 CURVE SMOOTH",
"189 712 OFFCURVE",
"28 551 OFFCURVE",
"28 350 CURVE SMOOTH",
"28 149 OFFCURVE",
"189 -12 OFFCURVE",
"397 -12 CURVE SMOOTH"
);
},
{
closed = 1;
nodes = (
"199 463 OFFCURVE",
"288 548 OFFCURVE",
"397 548 CURVE SMOOTH",
"505 548 OFFCURVE",
"594 463 OFFCURVE",
"594 350 CURVE SMOOTH",
"594 237 OFFCURVE",
"505 152 OFFCURVE",
"397 152 CURVE SMOOTH",
"288 152 OFFCURVE",
"199 237 OFFCURVE",
"199 350 CURVE SMOOTH"
);
},
{
closed = 1;
nodes = (
"312 776 LINE",
"314 800 OFFCURVE",
"325 816 OFFCURVE",
"347 816 CURVE SMOOTH",
"378 816 OFFCURVE",
"398 771 OFFCURVE",
"462 771 CURVE SMOOTH",
"539 771 OFFCURVE",
"587 826 OFFCURVE",
"592 920 CURVE",
"482 920 LINE",
"480 896 OFFCURVE",
"469 880 OFFCURVE",
"447 880 CURVE SMOOTH",
"416 880 OFFCURVE",
"397 925 OFFCURVE",
"334 925 CURVE SMOOTH",
"257 925 OFFCURVE",
"206 874 OFFCURVE",
"201 776 CURVE"
);
}
);
width = 793;
}
);
leftKerningGroup = C;
note = Otilde;
rightKerningGroup = C;
unicode = 00D5;
},
{
glyphname = OE;
layers = (
{
hints = (
{
horizontal = 1;
place = "{0, 151}";
type = Stem;
},
{
horizontal = 1;
place = "{284, 142}";
type = Stem;
},
{
horizontal = 1;
place = "{549, 151}";
type = Stem;
},
{
place = "{28, 171}";
type = Stem;
},
{
place = "{497, 165}";
type = Stem;
},
{
horizontal = 1;
place = "{0, 164}";
type = Stem;
},
{
horizontal = 1;
place = "{536, 164}";
type = Stem;
}
);
layerId = "932F2AAA-B43D-49B5-A115-0F830113A58F";
paths = (
{
closed = 1;
nodes = (
"1033 0 LINE",
"1033 151 LINE",
"662 151 LINE",
"662 284 LINE",
"993 284 LINE",
"993 426 LINE",
"662 426 LINE",
"662 549 LINE",
"1023 549 LINE",
"1023 700 LINE",
"397 700 LINE SMOOTH",
"189 700 OFFCURVE",
"28 551 OFFCURVE",
"28 350 CURVE SMOOTH",
"28 149 OFFCURVE",
"189 0 OFFCURVE",
"397 0 CURVE SMOOTH"
);
},
{
closed = 1;
nodes = (
"199 463 OFFCURVE",
"288 536 OFFCURVE",
"397 536 CURVE SMOOTH",
"497 536 LINE",
"497 164 LINE",
"397 164 LINE SMOOTH",
"288 164 OFFCURVE",
"199 237 OFFCURVE",
"199 350 CURVE SMOOTH"
);
}
);
width = 1069;
}
);
leftKerningGroup = C;
note = OE;
rightKerningGroup = AE;
unicode = 0152;
},
{
glyphname = P;
layers = (
{
hints = (
{
horizontal = 1;
place = "{0, 21}";
target = up;
type = BottomGhost;
},
{
horizontal = 1;
place = "{222, 147}";
type = Stem;
},
{
horizontal = 1;
place = "{549, 151}";
type = Stem;
},
{
place = "{61, 165}";
type = Stem;
},
{
place = "{490, 174}";
type = Stem;
}
);
layerId = "932F2AAA-B43D-49B5-A115-0F830113A58F";
paths = (
{
closed = 1;
nodes = (
"61 0 LINE",
"226 0 LINE",
"226 222 LINE",
"416 222 LINE SMOOTH",
"571 222 OFFCURVE",
"664 336 OFFCURVE",
"664 461 CURVE SMOOTH",
"664 586 OFFCURVE",
"571 700 OFFCURVE",
"416 700 CURVE SMOOTH",
"61 700 LINE"
);
},
{
closed = 1;
nodes = (
"226 369 LINE",
"226 549 LINE",
"405 549 LINE SMOOTH",
"452 549 OFFCURVE",
"490 508 OFFCURVE",
"490 459 CURVE SMOOTH",
"490 409 OFFCURVE",
"452 369 OFFCURVE",
"405 369 CURVE SMOOTH"
);
}
);
width = 688;
}
);
leftKerningGroup = B;
note = P;
rightKerningGroup = P;
unicode = 0050;
},
{
glyphname = Thorn;
layers = (
{
hints = (
{
horizontal = 1;
place = "{0, 21}";
target = up;
type = BottomGhost;
},
{
horizontal = 1;
place = "{119, 147}";
type = Stem;
},
{
horizontal = 1;
place = "{430, 151}";
type = Stem;
},
{
horizontal = 1;
place = "{700, -20}";
target = down;
type = TopGhost;
},
{
place = "{61, 165}";
type = Stem;
},
{
place = "{510, 168}";
type = Stem;
}
);
layerId = "932F2AAA-B43D-49B5-A115-0F830113A58F";
paths = (
{
closed = 1;
nodes = (
"61 0 LINE",
"226 0 LINE",
"226 119 LINE",
"434 119 LINE SMOOTH",
"593 119 OFFCURVE",
"678 238 OFFCURVE",
"678 350 CURVE SMOOTH",
"678 462 OFFCURVE",
"593 581 OFFCURVE",
"434 581 CURVE SMOOTH",
"226 581 LINE",
"226 700 LINE",
"61 700 LINE"
);
},
{
closed = 1;
nodes = (
"226 266 LINE",
"226 430 LINE",
"425 430 LINE SMOOTH",
"471 430 OFFCURVE",
"510 393 OFFCURVE",
"510 348 CURVE SMOOTH",
"510 303 OFFCURVE",
"471 266 OFFCURVE",
"425 266 CURVE SMOOTH"
);
}
);
width = 701;
}
);
leftKerningGroup = B;
note = Thorn;
rightKerningGroup = C;
unicode = 00DE;
},
{
glyphname = Q;
layers = (
{
hints = (
{
horizontal = 1;
place = "{-12, 164}";
type = Stem;
},
{
horizontal = 1;
place = "{548, 164}";
type = Stem;
},
{
place = "{28, 171}";
type = Stem;
},
{
place = "{594, 171}";
type = Stem;
}
);
layerId = "932F2AAA-B43D-49B5-A115-0F830113A58F";
paths = (
{
closed = 1;
nodes = (
"441 -12 OFFCURVE",
"482 -5 OFFCURVE",
"521 8 CURVE",
"573 -59 LINE",
"758 -59 LINE",
"648 84 LINE",
"720 150 OFFCURVE",
"765 244 OFFCURVE",
"765 350 CURVE SMOOTH",
"765 551 OFFCURVE",
"604 712 OFFCURVE",
"397 712 CURVE SMOOTH",
"189 712 OFFCURVE",
"28 551 OFFCURVE",
"28 350 CURVE SMOOTH",
"28 149 OFFCURVE",
"189 -12 OFFCURVE",
"397 -12 CURVE SMOOTH"
);
},
{
closed = 1;
nodes = (
"199 463 OFFCURVE",
"288 548 OFFCURVE",
"397 548 CURVE SMOOTH",
"505 548 OFFCURVE",
"594 463 OFFCURVE",
"594 350 CURVE SMOOTH",
"594 237 OFFCURVE",
"505 152 OFFCURVE",
"397 152 CURVE SMOOTH",
"288 152 OFFCURVE",
"199 237 OFFCURVE",
"199 350 CURVE SMOOTH"
);
}
);
width = 793;
}
);
leftKerningGroup = C;
note = Q;
rightKerningGroup = C;
unicode = 0051;
},
{
glyphname = R;
layers = (
{
hints = (
{
horizontal = 1;
place = "{0, 21}";
target = up;
type = BottomGhost;
},
{
horizontal = 1;
place = "{222, 147}";
type = Stem;
},
{
horizontal = 1;
place = "{549, 151}";
type = Stem;
},
{
place = "{61, 165}";
type = Stem;
},
{
place = "{490, 174}";
type = Stem;
}
);
layerId = "932F2AAA-B43D-49B5-A115-0F830113A58F";
paths = (
{
closed = 1;
nodes = (
"506 0 LINE",
"683 0 LINE",
"540 251 LINE",
"619 293 OFFCURVE",
"664 374 OFFCURVE",
"664 461 CURVE SMOOTH",
"664 586 OFFCURVE",
"571 700 OFFCURVE",
"416 700 CURVE SMOOTH",
"61 700 LINE",
"61 0 LINE",
"226 0 LINE",
"226 222 LINE",
"381 222 LINE"
);
},
{
closed = 1;
nodes = (
"226 369 LINE",
"226 549 LINE",
"405 549 LINE SMOOTH",
"452 549 OFFCURVE",
"490 508 OFFCURVE",
"490 459 CURVE SMOOTH",
"490 409 OFFCURVE",
"452 369 OFFCURVE",
"405 369 CURVE SMOOTH"
);
}
);
width = 705;
}
);
leftKerningGroup = B;
note = R;
rightKerningGroup = R;
unicode = 0052;
},
{
glyphname = Racute;
layers = (
{
hints = (
{
horizontal = 1;
place = "{0, 21}";
target = up;
type = BottomGhost;
},
{
horizontal = 1;
place = "{222, 147}";
type = Stem;
},
{
horizontal = 1;
place = "{549, 151}";
type = Stem;
},
{
horizontal = 1;
place = "{761, 179}";
type = Stem;
},
{
place = "{61, 165}";
type = Stem;
},
{
place = "{490, 174}";
type = Stem;
}
);
layerId = "932F2AAA-B43D-49B5-A115-0F830113A58F";
paths = (
{
closed = 1;
nodes = (
"506 0 LINE",
"683 0 LINE",
"540 251 LINE",
"619 293 OFFCURVE",
"664 374 OFFCURVE",
"664 461 CURVE SMOOTH",
"664 586 OFFCURVE",
"571 700 OFFCURVE",
"416 700 CURVE SMOOTH",
"61 700 LINE",
"61 0 LINE",
"226 0 LINE",
"226 222 LINE",
"381 222 LINE"
);
},
{
closed = 1;
nodes = (
"226 369 LINE",
"226 549 LINE",
"405 549 LINE SMOOTH",
"452 549 OFFCURVE",
"490 508 OFFCURVE",
"490 459 CURVE SMOOTH",
"490 409 OFFCURVE",
"452 369 OFFCURVE",
"405 369 CURVE SMOOTH"
);
},
{
closed = 1;
nodes = (
"284 761 LINE",
"387 761 LINE",
"520 940 LINE",
"347 940 LINE"
);
}
);
width = 705;
}
);
leftKerningGroup = B;
note = Racute;
rightKerningGroup = R;
unicode = 0154;
},
{
glyphname = Rcaron;
layers = (
{
hints = (
{
horizontal = 1;
place = "{0, 21}";
target = up;
type = BottomGhost;
},
{
horizontal = 1;
place = "{222, 147}";
type = Stem;
},
{
horizontal = 1;
place = "{549, 151}";
type = Stem;
},
{
place = "{61, 165}";
type = Stem;
},
{
place = "{490, 174}";
type = Stem;
},
{
place = "{185, 327}";
type = Stem;
}
);
layerId = "932F2AAA-B43D-49B5-A115-0F830113A58F";
paths = (
{
closed = 1;
nodes = (
"506 0 LINE",
"683 0 LINE",
"540 251 LINE",
"619 293 OFFCURVE",
"664 374 OFFCURVE",
"664 461 CURVE SMOOTH",
"664 586 OFFCURVE",
"571 700 OFFCURVE",
"416 700 CURVE SMOOTH",
"61 700 LINE",
"61 0 LINE",
"226 0 LINE",
"226 222 LINE",
"381 222 LINE"
);
},
{
closed = 1;
nodes = (
"185 819 LINE",
"348 738 LINE",
"512 819 LINE",
"512 939 LINE",
"348 859 LINE",
"185 939 LINE"
);
},
{
closed = 1;
nodes = (
"226 369 LINE",
"226 549 LINE",
"405 549 LINE SMOOTH",
"452 549 OFFCURVE",
"490 508 OFFCURVE",
"490 459 CURVE SMOOTH",
"490 409 OFFCURVE",
"452 369 OFFCURVE",
"405 369 CURVE SMOOTH"
);
}
);
width = 705;
}
);
leftKerningGroup = B;
note = Rcaron;
rightKerningGroup = R;
unicode = 0158;
},
{
glyphname = uni0156;
layers = (
{
hints = (
{
horizontal = 1;
place = "{-200, 159}";
type = Stem;
},
{
horizontal = 1;
place = "{0, 21}";
target = up;
type = BottomGhost;
},
{
horizontal = 1;
place = "{222, 147}";
type = Stem;
},
{
horizontal = 1;
place = "{549, 151}";
type = Stem;
},
{
place = "{61, 165}";
type = Stem;
},
{
place = "{490, 174}";
type = Stem;
}
);
layerId = "932F2AAA-B43D-49B5-A115-0F830113A58F";
paths = (
{
closed = 1;
nodes = (
"506 0 LINE",
"683 0 LINE",
"540 251 LINE",
"619 293 OFFCURVE",
"664 374 OFFCURVE",
"664 461 CURVE SMOOTH",
"664 586 OFFCURVE",
"571 700 OFFCURVE",
"416 700 CURVE SMOOTH",
"61 700 LINE",
"61 0 LINE",
"226 0 LINE",
"226 222 LINE",
"381 222 LINE"
);
},
{
closed = 1;
nodes = (
"226 369 LINE",
"226 549 LINE",
"405 549 LINE SMOOTH",
"452 549 OFFCURVE",
"490 508 OFFCURVE",
"490 459 CURVE SMOOTH",
"490 409 OFFCURVE",
"452 369 OFFCURVE",
"405 369 CURVE SMOOTH"
);
},
{
closed = 1;
nodes = (
"270 -200 LINE",
"388 -200 LINE",
"454 -41 LINE",
"297 -41 LINE"
);
}
);
width = 705;
}
);
leftKerningGroup = B;
note = uni0156;
rightKerningGroup = R;
unicode = 0156;
},
{
glyphname = S;
layers = (
{
hints = (
{
horizontal = 1;
place = "{-12, 137}";
type = Stem;
},
{
horizontal = 1;
place = "{575, 137}";
type = Stem;
},
{
place = "{43, 167}";
type = Stem;
},
{
place = "{478, 169}";
type = Stem;
}
);
layerId = "932F2AAA-B43D-49B5-A115-0F830113A58F";
paths = (
{
closed = 1;
nodes = (
"540 -12 OFFCURVE",
"647 73 OFFCURVE",
"647 207 CURVE SMOOTH",
"647 339 OFFCURVE",
"560 404 OFFCURVE",
"378 426 CURVE SMOOTH",
"250 441 OFFCURVE",
"210 464 OFFCURVE",
"210 506 CURVE SMOOTH",
"210 552 OFFCURVE",
"260 575 OFFCURVE",
"327 575 CURVE SMOOTH",
"406 575 OFFCURVE",
"462 541 OFFCURVE",
"467 485 CURVE",
"632 485 LINE",
"623 620 OFFCURVE",
"518 712 OFFCURVE",
"325 712 CURVE SMOOTH",
"146 712 OFFCURVE",
"43 619 OFFCURVE",
"43 496 CURVE SMOOTH",
"43 361 OFFCURVE",
"141 297 OFFCURVE",
"324 277 CURVE SMOOTH",
"441 265 OFFCURVE",
"478 242 OFFCURVE",
"478 195 CURVE SMOOTH",
"478 151 OFFCURVE",
"437 125 OFFCURVE",
"344 125 CURVE SMOOTH",
"245 125 OFFCURVE",
"196 168 OFFCURVE",
"191 224 CURVE",
"26 224 LINE",
"33 90 OFFCURVE",
"136 -12 OFFCURVE",
"346 -12 CURVE SMOOTH"
);
}
);
width = 676;
}
);
leftKerningGroup = S;
note = S;
rightKerningGroup = S;
unicode = 0053;
},
{
glyphname = Sacute;
layers = (
{
hints = (
{
horizontal = 1;
place = "{-12, 137}";
type = Stem;
},
{
horizontal = 1;
place = "{575, 137}";
type = Stem;
},
{
horizontal = 1;
place = "{761, 179}";
type = Stem;
},
{
place = "{43, 167}";
type = Stem;
},
{
place = "{478, 169}";
type = Stem;
}
);
layerId = "932F2AAA-B43D-49B5-A115-0F830113A58F";
paths = (
{
closed = 1;
nodes = (
"540 -12 OFFCURVE",
"647 73 OFFCURVE",
"647 207 CURVE SMOOTH",
"647 339 OFFCURVE",
"560 404 OFFCURVE",
"378 426 CURVE SMOOTH",
"250 441 OFFCURVE",
"210 464 OFFCURVE",
"210 506 CURVE SMOOTH",
"210 552 OFFCURVE",
"260 575 OFFCURVE",
"327 575 CURVE SMOOTH",
"406 575 OFFCURVE",
"462 541 OFFCURVE",
"467 485 CURVE",
"632 485 LINE",
"623 620 OFFCURVE",
"518 712 OFFCURVE",
"325 712 CURVE SMOOTH",
"146 712 OFFCURVE",
"43 619 OFFCURVE",
"43 496 CURVE SMOOTH",
"43 361 OFFCURVE",
"141 297 OFFCURVE",
"324 277 CURVE SMOOTH",
"441 265 OFFCURVE",
"478 242 OFFCURVE",
"478 195 CURVE SMOOTH",
"478 151 OFFCURVE",
"437 125 OFFCURVE",
"344 125 CURVE SMOOTH",
"245 125 OFFCURVE",
"196 168 OFFCURVE",
"191 224 CURVE",
"26 224 LINE",
"33 90 OFFCURVE",
"136 -12 OFFCURVE",
"346 -12 CURVE SMOOTH"
);
},
{
closed = 1;
nodes = (
"270 761 LINE",
"373 761 LINE",
"506 940 LINE",
"333 940 LINE"
);
}
);
width = 676;
}
);
leftKerningGroup = S;
note = Sacute;
rightKerningGroup = S;
unicode = 015A;
},
{
glyphname = Scaron;
layers = (
{
hints = (
{
horizontal = 1;
place = "{-12, 137}";
type = Stem;
},
{
horizontal = 1;
place = "{575, 137}";
type = Stem;
},
{
place = "{43, 167}";
type = Stem;
},
{
place = "{478, 169}";
type = Stem;
},
{
place = "{171, 327}";
type = Stem;
}
);
layerId = "932F2AAA-B43D-49B5-A115-0F830113A58F";
paths = (
{
closed = 1;
nodes = (
"540 -12 OFFCURVE",
"647 73 OFFCURVE",
"647 207 CURVE SMOOTH",
"647 339 OFFCURVE",
"560 404 OFFCURVE",
"378 426 CURVE SMOOTH",
"250 441 OFFCURVE",
"210 464 OFFCURVE",
"210 506 CURVE SMOOTH",
"210 552 OFFCURVE",
"260 575 OFFCURVE",
"327 575 CURVE SMOOTH",
"406 575 OFFCURVE",
"462 541 OFFCURVE",
"467 485 CURVE",
"632 485 LINE",
"623 620 OFFCURVE",
"518 712 OFFCURVE",
"325 712 CURVE SMOOTH",
"146 712 OFFCURVE",
"43 619 OFFCURVE",
"43 496 CURVE SMOOTH",
"43 361 OFFCURVE",
"141 297 OFFCURVE",
"324 277 CURVE SMOOTH",
"441 265 OFFCURVE",
"478 242 OFFCURVE",
"478 195 CURVE SMOOTH",
"478 151 OFFCURVE",
"437 125 OFFCURVE",
"344 125 CURVE SMOOTH",
"245 125 OFFCURVE",
"196 168 OFFCURVE",
"191 224 CURVE",
"26 224 LINE",
"33 90 OFFCURVE",
"136 -12 OFFCURVE",
"346 -12 CURVE SMOOTH"
);
},
{
closed = 1;
nodes = (
"171 819 LINE",
"334 738 LINE",
"498 819 LINE",
"498 939 LINE",
"334 859 LINE",
"171 939 LINE"
);
}
);
width = 676;
}
);
leftKerningGroup = S;
note = Scaron;
rightKerningGroup = S;
unicode = 0160;
},
{
glyphname = Scedilla;
layers = (
{
hints = (
{
horizontal = 1;
place = "{-210, 72}";
type = Stem;
},
{
horizontal = 1;
place = "{-10, 21}";
target = up;
type = BottomGhost;
},
{
horizontal = 1;
place = "{575, 137}";
type = Stem;
},
{
place = "{43, 167}";
type = Stem;
},
{
place = "{291, 97.5}";
type = Stem;
},
{
place = "{478, 169}";
type = Stem;
},
{
horizontal = 1;
place = "{-11, 136}";
type = Stem;
},
{
place = "{376, 142}";
type = Stem;
},
{
horizontal = 1;
place = "{-200, 21}";
target = up;
type = BottomGhost;
}
);
layerId = "932F2AAA-B43D-49B5-A115-0F830113A58F";
paths = (
{
closed = 1;
nodes = (
"461 -210 OFFCURVE",
"518 -179 OFFCURVE",
"518 -115 CURVE SMOOTH",
"518 -62 OFFCURVE",
"479 -31 OFFCURVE",
"388 -23 CURVE",
"389 -11 LINE",
"556 1 OFFCURVE",
"647 83 OFFCURVE",
"647 207 CURVE SMOOTH",
"647 339 OFFCURVE",
"560 404 OFFCURVE",
"378 426 CURVE SMOOTH",
"250 441 OFFCURVE",
"210 464 OFFCURVE",
"210 506 CURVE SMOOTH",
"210 552 OFFCURVE",
"260 575 OFFCURVE",
"327 575 CURVE SMOOTH",
"406 575 OFFCURVE",
"462 541 OFFCURVE",
"467 485 CURVE",
"632 485 LINE",
"623 620 OFFCURVE",
"518 712 OFFCURVE",
"325 712 CURVE SMOOTH",
"146 712 OFFCURVE",
"43 619 OFFCURVE",
"43 496 CURVE SMOOTH",
"43 361 OFFCURVE",
"141 297 OFFCURVE",
"324 277 CURVE SMOOTH",
"441 265 OFFCURVE",
"478 242 OFFCURVE",
"478 195 CURVE SMOOTH",
"478 151 OFFCURVE",
"437 125 OFFCURVE",
"344 125 CURVE SMOOTH",
"245 125 OFFCURVE",
"196 168 OFFCURVE",
"191 224 CURVE",
"26 224 LINE",
"32 102 OFFCURVE",
"119 6 OFFCURVE",
"294 -10 CURVE",
"288 -98 LINE",
"356 -98 OFFCURVE",
"376 -108 OFFCURVE",
"376 -122 CURVE SMOOTH",
"376 -137 OFFCURVE",
"354 -146 OFFCURVE",
"265 -130 CURVE",
"265 -200 LINE",
"265 -200 OFFCURVE",
"306 -210 OFFCURVE",
"373 -210 CURVE SMOOTH"
);
}
);
width = 676;
}
);
leftKerningGroup = S;
note = Scedilla;
rightKerningGroup = S;
unicode = 015E;
},
{
glyphname = Scircumflex;
layers = (
{
hints = (
{
horizontal = 1;
place = "{-12, 137}";
type = Stem;
},
{
horizontal = 1;
place = "{575, 137}";
type = Stem;
},
{
place = "{43, 167}";
type = Stem;
},
{
place = "{478, 169}";
type = Stem;
},
{
place = "{172, 327}";
type = Stem;
}
);
layerId = "932F2AAA-B43D-49B5-A115-0F830113A58F";
paths = (
{
closed = 1;
nodes = (
"540 -12 OFFCURVE",
"647 73 OFFCURVE",
"647 207 CURVE SMOOTH",
"647 339 OFFCURVE",
"560 404 OFFCURVE",
"378 426 CURVE SMOOTH",
"250 441 OFFCURVE",
"210 464 OFFCURVE",
"210 506 CURVE SMOOTH",
"210 552 OFFCURVE",
"260 575 OFFCURVE",
"327 575 CURVE SMOOTH",
"406 575 OFFCURVE",
"462 541 OFFCURVE",
"467 485 CURVE",
"632 485 LINE",
"623 620 OFFCURVE",
"518 712 OFFCURVE",
"325 712 CURVE SMOOTH",
"146 712 OFFCURVE",
"43 619 OFFCURVE",
"43 496 CURVE SMOOTH",
"43 361 OFFCURVE",
"141 297 OFFCURVE",
"324 277 CURVE SMOOTH",
"441 265 OFFCURVE",
"478 242 OFFCURVE",
"478 195 CURVE SMOOTH",
"478 151 OFFCURVE",
"437 125 OFFCURVE",
"344 125 CURVE SMOOTH",
"245 125 OFFCURVE",
"196 168 OFFCURVE",
"191 224 CURVE",
"26 224 LINE",
"33 90 OFFCURVE",
"136 -12 OFFCURVE",
"346 -12 CURVE SMOOTH"
);
},
{
closed = 1;
nodes = (
"172 747 LINE",
"335 827 LINE",
"499 747 LINE",
"499 867 LINE",
"335 948 LINE",
"172 867 LINE"
);
}
);
width = 676;
}
);
leftKerningGroup = S;
note = Scircumflex;
rightKerningGroup = S;
unicode = 015C;
},
{
glyphname = uni0218;
layers = (
{
hints = (
{
horizontal = 1;
place = "{-200, 159}";
type = Stem;
},
{
horizontal = 1;
place = "{-12, 137}";
type = Stem;
},
{
horizontal = 1;
place = "{575, 137}";
type = Stem;
},
{
place = "{43, 167}";
type = Stem;
},
{
place = "{478, 169}";
type = Stem;
}
);
layerId = "932F2AAA-B43D-49B5-A115-0F830113A58F";
paths = (
{
closed = 1;
nodes = (
"540 -12 OFFCURVE",
"647 73 OFFCURVE",
"647 207 CURVE SMOOTH",
"647 339 OFFCURVE",
"560 404 OFFCURVE",
"378 426 CURVE SMOOTH",
"250 441 OFFCURVE",
"210 464 OFFCURVE",
"210 506 CURVE SMOOTH",
"210 552 OFFCURVE",
"260 575 OFFCURVE",
"327 575 CURVE SMOOTH",
"406 575 OFFCURVE",
"462 541 OFFCURVE",
"467 485 CURVE",
"632 485 LINE",
"623 620 OFFCURVE",
"518 712 OFFCURVE",
"325 712 CURVE SMOOTH",
"146 712 OFFCURVE",
"43 619 OFFCURVE",
"43 496 CURVE SMOOTH",
"43 361 OFFCURVE",
"141 297 OFFCURVE",
"324 277 CURVE SMOOTH",
"441 265 OFFCURVE",
"478 242 OFFCURVE",
"478 195 CURVE SMOOTH",
"478 151 OFFCURVE",
"437 125 OFFCURVE",
"344 125 CURVE SMOOTH",
"245 125 OFFCURVE",
"196 168 OFFCURVE",
"191 224 CURVE",
"26 224 LINE",
"33 90 OFFCURVE",
"136 -12 OFFCURVE",
"346 -12 CURVE SMOOTH"
);
},
{
closed = 1;
nodes = (
"241 -200 LINE",
"359 -200 LINE",
"425 -41 LINE",
"268 -41 LINE"
);
}
);
width = 676;
}
);
leftKerningGroup = S;
note = uni0218;
rightKerningGroup = S;
unicode = 0218;
},
{
glyphname = uni1E9E;
layers = (
{
hints = (
{
horizontal = 1;
place = "{0, 151}";
type = Stem;
},
{
horizontal = 1;
place = "{549, 151}";
type = Stem;
},
{
place = "{61, 165}";
type = Stem;
},
{
place = "{544, 168}";
type = Stem;
}
);
layerId = "932F2AAA-B43D-49B5-A115-0F830113A58F";
paths = (
{
closed = 1;
nodes = (
"61 0 LINE",
"226 0 LINE",
"226 549 LINE",
"454 549 LINE",
"309 298 LINE",
"466 298 LINE SMOOTH",
"508 298 OFFCURVE",
"544 267 OFFCURVE",
"544 224 CURVE SMOOTH",
"544 181 OFFCURVE",
"508 151 OFFCURVE",
"466 151 CURVE SMOOTH",
"309 151 LINE",
"309 0 LINE",
"469 0 LINE SMOOTH",
"591 0 OFFCURVE",
"712 75 OFFCURVE",
"712 221 CURVE SMOOTH",
"712 337 OFFCURVE",
"642 419 OFFCURVE",
"542 439 CURVE",
"712 700 LINE",
"61 700 LINE"
);
}
);
width = 740;
}
);
leftKerningGroup = B;
note = uni1E9E;
rightKerningGroup = B;
unicode = 1E9E;
},
{
glyphname = T;
layers = (
{
hints = (
{
horizontal = 1;
place = "{0, 21}";
target = up;
type = BottomGhost;
},
{
horizontal = 1;
place = "{549, 151}";
type = Stem;
},
{
place = "{233, 165}";
type = Stem;
}
);
layerId = "932F2AAA-B43D-49B5-A115-0F830113A58F";
paths = (
{
closed = 1;
nodes = (
"233 0 LINE",
"398 0 LINE",
"398 549 LINE",
"624 549 LINE",
"624 700 LINE",
"8 700 LINE",
"8 549 LINE",
"233 549 LINE"
);
}
);
width = 629;
}
);
leftKerningGroup = T;
note = T;
rightKerningGroup = T;
unicode = 0054;
},
{
glyphname = Tbar;
layers = (
{
hints = (
{
horizontal = 1;
place = "{0, 21}";
target = up;
type = BottomGhost;
},
{
horizontal = 1;
place = "{286, 113}";
type = Stem;
},
{
horizontal = 1;
place = "{549, 151}";
type = Stem;
},
{
place = "{233, 165}";
type = Stem;
}
);
layerId = "932F2AAA-B43D-49B5-A115-0F830113A58F";
paths = (
{
closed = 1;
nodes = (
"118 286 LINE",
"233 286 LINE",
"233 0 LINE",
"398 0 LINE",
"398 286 LINE",
"513 286 LINE",
"513 399 LINE",
"398 399 LINE",
"398 549 LINE",
"624 549 LINE",
"624 700 LINE",
"8 700 LINE",
"8 549 LINE",
"233 549 LINE",
"233 399 LINE",
"118 399 LINE"
);
}
);
width = 629;
}
);
leftKerningGroup = T;
note = Tbar;
rightKerningGroup = T;
unicode = 0166;
},
{
glyphname = Tcaron;
layers = (
{
hints = (
{
horizontal = 1;
place = "{0, 21}";
target = up;
type = BottomGhost;
},
{
horizontal = 1;
place = "{549, 151}";
type = Stem;
},
{
place = "{233, 165}";
type = Stem;
},
{
place = "{151, 327}";
type = Stem;
}
);
layerId = "932F2AAA-B43D-49B5-A115-0F830113A58F";
paths = (
{
closed = 1;
nodes = (
"233 0 LINE",
"398 0 LINE",
"398 549 LINE",
"624 549 LINE",
"624 700 LINE",
"8 700 LINE",
"8 549 LINE",
"233 549 LINE"
);
},
{
closed = 1;
nodes = (
"151 819 LINE",
"314 738 LINE",
"478 819 LINE",
"478 939 LINE",
"314 859 LINE",
"151 939 LINE"
);
}
);
width = 629;
}
);
leftKerningGroup = T;
note = Tcaron;
rightKerningGroup = T;
unicode = 0164;
},
{
glyphname = uni0162;
layers = (
{
hints = (
{
horizontal = 1;
place = "{-210, 72}";
type = Stem;
},
{
horizontal = 1;
place = "{0, 21}";
target = up;
type = BottomGhost;
},
{
horizontal = 1;
place = "{549, 151}";
type = Stem;
},
{
place = "{233, 165}";
type = Stem;
},
{
place = "{262.5, 135.5}";
type = Stem;
},
{
place = "{347, 142}";
type = Stem;
},
{
horizontal = 1;
place = "{-200, 21}";
target = up;
type = BottomGhost;
},
{
place = "{233, 127}";
type = Stem;
}
);
layerId = "932F2AAA-B43D-49B5-A115-0F830113A58F";
paths = (
{
closed = 1;
nodes = (
"233 0 LINE",
"266 0 LINE",
"259 -98 LINE",
"327 -98 OFFCURVE",
"347 -108 OFFCURVE",
"347 -122 CURVE SMOOTH",
"347 -137 OFFCURVE",
"325 -146 OFFCURVE",
"236 -130 CURVE",
"236 -200 LINE",
"236 -200 OFFCURVE",
"277 -210 OFFCURVE",
"344 -210 CURVE SMOOTH",
"432 -210 OFFCURVE",
"489 -179 OFFCURVE",
"489 -115 CURVE SMOOTH",
"489 -62 OFFCURVE",
"450 -31 OFFCURVE",
"359 -23 CURVE",
"361 0 LINE",
"398 0 LINE",
"398 549 LINE",
"624 549 LINE",
"624 700 LINE",
"8 700 LINE",
"8 549 LINE",
"233 549 LINE"
);
}
);
width = 629;
}
);
leftKerningGroup = T;
note = uni0162;
rightKerningGroup = T;
unicode = 0162;
},
{
glyphname = uni021A;
layers = (
{
hints = (
{
horizontal = 1;
place = "{-200, 159}";
type = Stem;
},
{
horizontal = 1;
place = "{0, 21}";
target = up;
type = BottomGhost;
},
{
horizontal = 1;
place = "{549, 151}";
type = Stem;
},
{
place = "{233, 165}";
type = Stem;
}
);
layerId = "932F2AAA-B43D-49B5-A115-0F830113A58F";
paths = (
{
closed = 1;
nodes = (
"233 0 LINE",
"398 0 LINE",
"398 549 LINE",
"624 549 LINE",
"624 700 LINE",
"8 700 LINE",
"8 549 LINE",
"233 549 LINE"
);
},
{
closed = 1;
nodes = (
"212 -200 LINE",
"330 -200 LINE",
"396 -41 LINE",
"239 -41 LINE"
);
}
);
width = 629;
}
);
leftKerningGroup = T;
note = uni021A;
rightKerningGroup = T;
unicode = 021A;
},
{
glyphname = U;
layers = (
{
hints = (
{
horizontal = 1;
place = "{-12, 164}";
type = Stem;
},
{
horizontal = 1;
place = "{700, -20}";
target = down;
type = TopGhost;
},
{
place = "{55, 165}";
type = Stem;
},
{
place = "{526, 165}";
type = Stem;
}
);
layerId = "932F2AAA-B43D-49B5-A115-0F830113A58F";
paths = (
{
closed = 1;
nodes = (
"548 -12 OFFCURVE",
"691 102 OFFCURVE",
"691 307 CURVE SMOOTH",
"691 700 LINE",
"526 700 LINE",
"526 307 LINE SMOOTH",
"526 217 OFFCURVE",
"465 152 OFFCURVE",
"373 152 CURVE SMOOTH",
"281 152 OFFCURVE",
"220 217 OFFCURVE",
"220 307 CURVE SMOOTH",
"220 700 LINE",
"55 700 LINE",
"55 307 LINE SMOOTH",
"55 102 OFFCURVE",
"198 -12 OFFCURVE",
"373 -12 CURVE SMOOTH"
);
}
);
width = 746;
}
);
leftKerningGroup = U;
note = U;
rightKerningGroup = IJ;
unicode = 0055;
},
{
glyphname = Uacute;
layers = (
{
hints = (
{
horizontal = 1;
place = "{-12, 164}";
type = Stem;
},
{
horizontal = 1;
place = "{700, -20}";
target = down;
type = TopGhost;
},
{
horizontal = 1;
place = "{761, 179}";
type = Stem;
},
{
place = "{55, 165}";
type = Stem;
},
{
place = "{526, 165}";
type = Stem;
}
);
layerId = "932F2AAA-B43D-49B5-A115-0F830113A58F";
paths = (
{
closed = 1;
nodes = (
"548 -12 OFFCURVE",
"691 102 OFFCURVE",
"691 307 CURVE SMOOTH",
"691 700 LINE",
"526 700 LINE",
"526 307 LINE SMOOTH",
"526 217 OFFCURVE",
"465 152 OFFCURVE",
"373 152 CURVE SMOOTH",
"281 152 OFFCURVE",
"220 217 OFFCURVE",
"220 307 CURVE SMOOTH",
"220 700 LINE",
"55 700 LINE",
"55 307 LINE SMOOTH",
"55 102 OFFCURVE",
"198 -12 OFFCURVE",
"373 -12 CURVE SMOOTH"
);
},
{
closed = 1;
nodes = (
"308 761 LINE",
"411 761 LINE",
"544 940 LINE",
"371 940 LINE"
);
}
);
width = 746;
}
);
leftKerningGroup = U;
note = Uacute;
rightKerningGroup = IJ;
unicode = 00DA;
},
{
glyphname = Ubreve;
layers = (
{
hints = (
{
horizontal = 1;
place = "{-12, 164}";
type = Stem;
},
{
horizontal = 1;
place = "{700, -20}";
target = down;
type = TopGhost;
},
{
horizontal = 1;
place = "{747, 170}";
type = Stem;
},
{
place = "{55, 165}";
type = Stem;
},
{
place = "{526, 165}";
type = Stem;
},
{
horizontal = 1;
place = "{747, 107}";
type = Stem;
}
);
layerId = "932F2AAA-B43D-49B5-A115-0F830113A58F";
paths = (
{
closed = 1;
nodes = (
"548 -12 OFFCURVE",
"691 102 OFFCURVE",
"691 307 CURVE SMOOTH",
"691 700 LINE",
"526 700 LINE",
"526 307 LINE SMOOTH",
"526 217 OFFCURVE",
"465 152 OFFCURVE",
"373 152 CURVE SMOOTH",
"281 152 OFFCURVE",
"220 217 OFFCURVE",
"220 307 CURVE SMOOTH",
"220 700 LINE",
"55 700 LINE",
"55 307 LINE SMOOTH",
"55 102 OFFCURVE",
"198 -12 OFFCURVE",
"373 -12 CURVE SMOOTH"
);
},
{
closed = 1;
nodes = (
"191 917 LINE",
"199 802 OFFCURVE",
"282 747 OFFCURVE",
"373 747 CURVE SMOOTH",
"464 747 OFFCURVE",
"546 801 OFFCURVE",
"554 917 CURVE",
"438 917 LINE",
"436 884 OFFCURVE",
"414 854 OFFCURVE",
"373 854 CURVE SMOOTH",
"331 854 OFFCURVE",
"309 884 OFFCURVE",
"307 917 CURVE"
);
}
);
width = 746;
}
);
leftKerningGroup = U;
note = Ubreve;
rightKerningGroup = IJ;
unicode = 016C;
},
{
glyphname = Ucircumflex;
layers = (
{
hints = (
{
horizontal = 1;
place = "{-12, 164}";
type = Stem;
},
{
horizontal = 1;
place = "{700, -20}";
target = down;
type = TopGhost;
},
{
place = "{55, 165}";
type = Stem;
},
{
place = "{526, 165}";
type = Stem;
},
{
place = "{210, 10}";
type = Stem;
},
{
place = "{526, 11}";
type = Stem;
}
);
layerId = "932F2AAA-B43D-49B5-A115-0F830113A58F";
paths = (
{
closed = 1;
nodes = (
"548 -12 OFFCURVE",
"691 102 OFFCURVE",
"691 307 CURVE SMOOTH",
"691 700 LINE",
"526 700 LINE",
"526 307 LINE SMOOTH",
"526 217 OFFCURVE",
"465 152 OFFCURVE",
"373 152 CURVE SMOOTH",
"281 152 OFFCURVE",
"220 217 OFFCURVE",
"220 307 CURVE SMOOTH",
"220 700 LINE",
"55 700 LINE",
"55 307 LINE SMOOTH",
"55 102 OFFCURVE",
"198 -12 OFFCURVE",
"373 -12 CURVE SMOOTH"
);
},
{
closed = 1;
nodes = (
"210 747 LINE",
"373 827 LINE",
"537 747 LINE",
"537 867 LINE",
"373 948 LINE",
"210 867 LINE"
);
}
);
width = 746;
}
);
leftKerningGroup = U;
note = Ucircumflex;
rightKerningGroup = IJ;
unicode = 00DB;
},
{
glyphname = Udieresis;
layers = (
{
hints = (
{
horizontal = 1;
place = "{-12, 164}";
type = Stem;
},
{
horizontal = 1;
place = "{700, -20}";
target = down;
type = TopGhost;
},
{
horizontal = 1;
place = "{761, 180}";
type = Stem;
},
{
place = "{55, 165}";
type = Stem;
},
{
place = "{526, 165}";
type = Stem;
},
{
place = "{169, 180}";
type = Stem;
},
{
place = "{398, 180}";
type = Stem;
}
);
layerId = "932F2AAA-B43D-49B5-A115-0F830113A58F";
paths = (
{
closed = 1;
nodes = (
"548 -12 OFFCURVE",
"691 102 OFFCURVE",
"691 307 CURVE SMOOTH",
"691 700 LINE",
"526 700 LINE",
"526 307 LINE SMOOTH",
"526 217 OFFCURVE",
"465 152 OFFCURVE",
"373 152 CURVE SMOOTH",
"281 152 OFFCURVE",
"220 217 OFFCURVE",
"220 307 CURVE SMOOTH",
"220 700 LINE",
"55 700 LINE",
"55 307 LINE SMOOTH",
"55 102 OFFCURVE",
"198 -12 OFFCURVE",
"373 -12 CURVE SMOOTH"
);
},
{
closed = 1;
nodes = (
"169 802 OFFCURVE",
"209 761 OFFCURVE",
"259 761 CURVE SMOOTH",
"308 761 OFFCURVE",
"349 802 OFFCURVE",
"349 851 CURVE SMOOTH",
"349 900 OFFCURVE",
"308 941 OFFCURVE",
"259 941 CURVE SMOOTH",
"209 941 OFFCURVE",
"169 900 OFFCURVE",
"169 851 CURVE SMOOTH"
);
},
{
closed = 1;
nodes = (
"398 802 OFFCURVE",
"439 761 OFFCURVE",
"488 761 CURVE SMOOTH",
"538 761 OFFCURVE",
"578 802 OFFCURVE",
"578 851 CURVE SMOOTH",
"578 900 OFFCURVE",
"538 941 OFFCURVE",
"488 941 CURVE SMOOTH",
"439 941 OFFCURVE",
"398 900 OFFCURVE",
"398 851 CURVE SMOOTH"
);
}
);
width = 746;
}
);
leftKerningGroup = U;
note = Udieresis;
rightKerningGroup = IJ;
unicode = 00DC;
},
{
glyphname = uni1EE4;
layers = (
{
hints = (
{
horizontal = 1;
place = "{-243, 186}";
type = Stem;
},
{
horizontal = 1;
place = "{-12, 164}";
type = Stem;
},
{
horizontal = 1;
place = "{700, -20}";
target = down;
type = TopGhost;
},
{
place = "{55, 165}";
type = Stem;
},
{
place = "{280, 186}";
type = Stem;
},
{
place = "{526, 165}";
type = Stem;
}
);
layerId = "932F2AAA-B43D-49B5-A115-0F830113A58F";
paths = (
{
closed = 1;
nodes = (
"548 -12 OFFCURVE",
"691 102 OFFCURVE",
"691 307 CURVE SMOOTH",
"691 700 LINE",
"526 700 LINE",
"526 307 LINE SMOOTH",
"526 217 OFFCURVE",
"465 152 OFFCURVE",
"373 152 CURVE SMOOTH",
"281 152 OFFCURVE",
"220 217 OFFCURVE",
"220 307 CURVE SMOOTH",
"220 700 LINE",
"55 700 LINE",
"55 307 LINE SMOOTH",
"55 102 OFFCURVE",
"198 -12 OFFCURVE",
"373 -12 CURVE SMOOTH"
);
},
{
closed = 1;
nodes = (
"280 -201 OFFCURVE",
"322 -243 OFFCURVE",
"373 -243 CURVE SMOOTH",
"424 -243 OFFCURVE",
"466 -201 OFFCURVE",
"466 -150 CURVE SMOOTH",
"466 -100 OFFCURVE",
"424 -57 OFFCURVE",
"373 -57 CURVE SMOOTH",
"322 -57 OFFCURVE",
"280 -100 OFFCURVE",
"280 -150 CURVE SMOOTH"
);
}
);
width = 746;
}
);
leftKerningGroup = U;
note = uni1EE4;
rightKerningGroup = IJ;
unicode = 1EE4;
},
{
glyphname = Ugrave;
layers = (
{
hints = (
{
horizontal = 1;
place = "{-12, 164}";
type = Stem;
},
{
horizontal = 1;
place = "{700, -20}";
target = down;
type = TopGhost;
},
{
horizontal = 1;
place = "{761, 179}";
type = Stem;
},
{
place = "{55, 165}";
type = Stem;
},
{
place = "{526, 165}";
type = Stem;
}
);
layerId = "932F2AAA-B43D-49B5-A115-0F830113A58F";
paths = (
{
closed = 1;
nodes = (
"548 -12 OFFCURVE",
"691 102 OFFCURVE",
"691 307 CURVE SMOOTH",
"691 700 LINE",
"526 700 LINE",
"526 307 LINE SMOOTH",
"526 217 OFFCURVE",
"465 152 OFFCURVE",
"373 152 CURVE SMOOTH",
"281 152 OFFCURVE",
"220 217 OFFCURVE",
"220 307 CURVE SMOOTH",
"220 700 LINE",
"55 700 LINE",
"55 307 LINE SMOOTH",
"55 102 OFFCURVE",
"198 -12 OFFCURVE",
"373 -12 CURVE SMOOTH"
);
},
{
closed = 1;
nodes = (
"209 940 LINE",
"342 761 LINE",
"445 761 LINE",
"382 940 LINE"
);
}
);
width = 746;
}
);
leftKerningGroup = U;
note = Ugrave;
rightKerningGroup = IJ;
unicode = 00D9;
},
{
glyphname = uni1EE6;
layers = (
{
hints = (
{
horizontal = 1;
place = "{-12, 164}";
type = Stem;
},
{
horizontal = 1;
place = "{700, -20}";
target = down;
type = TopGhost;
},
{
horizontal = 1;
place = "{831, 119}";
type = Stem;
},
{
place = "{55, 165}";
type = Stem;
},
{
place = "{526, 165}";
type = Stem;
},
{
place = "{247, 99}";
type = Stem;
},
{
horizontal = 1;
place = "{865, 85}";
type = Stem;
},
{
place = "{399, 103}";
type = Stem;
},
{
horizontal = 1;
place = "{761, 189}";
type = Stem;
}
);
layerId = "932F2AAA-B43D-49B5-A115-0F830113A58F";
paths = (
{
closed = 1;
nodes = (
"548 -12 OFFCURVE",
"691 102 OFFCURVE",
"691 307 CURVE SMOOTH",
"691 700 LINE",
"526 700 LINE",
"526 307 LINE SMOOTH",
"526 217 OFFCURVE",
"465 152 OFFCURVE",
"373 152 CURVE SMOOTH",
"281 152 OFFCURVE",
"220 217 OFFCURVE",
"220 307 CURVE SMOOTH",
"220 700 LINE",
"55 700 LINE",
"55 307 LINE SMOOTH",
"55 102 OFFCURVE",
"198 -12 OFFCURVE",
"373 -12 CURVE SMOOTH"
);
},
{
closed = 1;
nodes = (
"346 831 LINE",
"346 851 OFFCURVE",
"356 865 OFFCURVE",
"375 865 CURVE SMOOTH",
"393 865 OFFCURVE",
"399 856 OFFCURVE",
"399 845 CURVE SMOOTH",
"399 814 OFFCURVE",
"332 813 OFFCURVE",
"332 761 CURVE",
"430 761 LINE",
"435 789 OFFCURVE",
"502 786 OFFCURVE",
"502 863 CURVE SMOOTH",
"502 919 OFFCURVE",
"458 950 OFFCURVE",
"381 950 CURVE SMOOTH",
"294 950 OFFCURVE",
"247 897 OFFCURVE",
"247 831 CURVE"
);
}
);
width = 746;
}
);
leftKerningGroup = U;
note = uni1EE6;
rightKerningGroup = IJ;
unicode = 1EE6;
},
{
glyphname = Uhorn;
layers = (
{
hints = (
{
horizontal = 1;
place = "{-12, 164}";
type = Stem;
},
{
horizontal = 1;
place = "{700, -20}";
target = down;
type = TopGhost;
},
{
place = "{55, 165}";
type = Stem;
},
{
place = "{526, 165}";
type = Stem;
},
{
place = "{650, 161}";
type = Stem;
}
);
layerId = "932F2AAA-B43D-49B5-A115-0F830113A58F";
paths = (
{
closed = 1;
nodes = (
"548 -12 OFFCURVE",
"691 102 OFFCURVE",
"691 307 CURVE SMOOTH",
"691 593 LINE",
"766 621 OFFCURVE",
"811 680 OFFCURVE",
"811 761 CURVE SMOOTH",
"811 771 OFFCURVE",
"810 786 OFFCURVE",
"808 796 CURVE",
"647 796 LINE",
"649 786 OFFCURVE",
"650 772 OFFCURVE",
"650 762 CURVE SMOOTH",
"650 715 OFFCURVE",
"621 700 OFFCURVE",
"571 700 CURVE SMOOTH",
"526 700 LINE",
"526 307 LINE SMOOTH",
"526 217 OFFCURVE",
"465 152 OFFCURVE",
"373 152 CURVE SMOOTH",
"281 152 OFFCURVE",
"220 217 OFFCURVE",
"220 307 CURVE SMOOTH",
"220 700 LINE",
"55 700 LINE",
"55 307 LINE SMOOTH",
"55 102 OFFCURVE",
"198 -12 OFFCURVE",
"373 -12 CURVE SMOOTH"
);
}
);
width = 746;
}
);
leftKerningGroup = U;
note = Uhorn;
rightKerningGroup = IJ;
unicode = 01AF;
},
{
glyphname = uni1EE8;
layers = (
{
hints = (
{
horizontal = 1;
place = "{-12, 164}";
type = Stem;
},
{
horizontal = 1;
place = "{700, -20}";
target = down;
type = TopGhost;
},
{
horizontal = 1;
place = "{761, 179}";
type = Stem;
},
{
place = "{55, 165}";
type = Stem;
},
{
place = "{526, 165}";
type = Stem;
},
{
place = "{650, 161}";
type = Stem;
}
);
layerId = "932F2AAA-B43D-49B5-A115-0F830113A58F";
paths = (
{
closed = 1;
nodes = (
"548 -12 OFFCURVE",
"691 102 OFFCURVE",
"691 307 CURVE SMOOTH",
"691 593 LINE",
"766 621 OFFCURVE",
"811 680 OFFCURVE",
"811 761 CURVE SMOOTH",
"811 771 OFFCURVE",
"810 786 OFFCURVE",
"808 796 CURVE",
"647 796 LINE",
"649 786 OFFCURVE",
"650 772 OFFCURVE",
"650 762 CURVE SMOOTH",
"650 715 OFFCURVE",
"621 700 OFFCURVE",
"571 700 CURVE SMOOTH",
"526 700 LINE",
"526 307 LINE SMOOTH",
"526 217 OFFCURVE",
"465 152 OFFCURVE",
"373 152 CURVE SMOOTH",
"281 152 OFFCURVE",
"220 217 OFFCURVE",
"220 307 CURVE SMOOTH",
"220 700 LINE",
"55 700 LINE",
"55 307 LINE SMOOTH",
"55 102 OFFCURVE",
"198 -12 OFFCURVE",
"373 -12 CURVE SMOOTH"
);
},
{
closed = 1;
nodes = (
"308 761 LINE",
"411 761 LINE",
"544 940 LINE",
"371 940 LINE"
);
}
);
width = 746;
}
);
leftKerningGroup = U;
note = uni1EE8;
rightKerningGroup = IJ;
unicode = 1EE8;
},
{
glyphname = uni1EF0;
layers = (
{
hints = (
{
horizontal = 1;
place = "{-12, 164}";
type = Stem;
},
{
horizontal = 1;
place = "{700, -20}";
target = down;
type = TopGhost;
},
{
place = "{55, 165}";
type = Stem;
},
{
place = "{526, 165}";
type = Stem;
},
{
place = "{650, 161}";
type = Stem;
},
{
horizontal = 1;
place = "{-243, 186}";
type = Stem;
},
{
place = "{280, 186}";
type = Stem;
}
);
layerId = "932F2AAA-B43D-49B5-A115-0F830113A58F";
paths = (
{
closed = 1;
nodes = (
"548 -12 OFFCURVE",
"691 102 OFFCURVE",
"691 307 CURVE SMOOTH",
"691 593 LINE",
"766 621 OFFCURVE",
"811 680 OFFCURVE",
"811 761 CURVE SMOOTH",
"811 771 OFFCURVE",
"810 786 OFFCURVE",
"808 796 CURVE",
"647 796 LINE",
"649 786 OFFCURVE",
"650 772 OFFCURVE",
"650 762 CURVE SMOOTH",
"650 715 OFFCURVE",
"621 700 OFFCURVE",
"571 700 CURVE SMOOTH",
"526 700 LINE",
"526 307 LINE SMOOTH",
"526 217 OFFCURVE",
"465 152 OFFCURVE",
"373 152 CURVE SMOOTH",
"281 152 OFFCURVE",
"220 217 OFFCURVE",
"220 307 CURVE SMOOTH",
"220 700 LINE",
"55 700 LINE",
"55 307 LINE SMOOTH",
"55 102 OFFCURVE",
"198 -12 OFFCURVE",
"373 -12 CURVE SMOOTH"
);
},
{
closed = 1;
nodes = (
"280 -201 OFFCURVE",
"322 -243 OFFCURVE",
"373 -243 CURVE SMOOTH",
"424 -243 OFFCURVE",
"466 -201 OFFCURVE",
"466 -150 CURVE SMOOTH",
"466 -100 OFFCURVE",
"424 -57 OFFCURVE",
"373 -57 CURVE SMOOTH",
"322 -57 OFFCURVE",
"280 -100 OFFCURVE",
"280 -150 CURVE SMOOTH"
);
}
);
width = 746;
}
);
leftKerningGroup = U;
note = uni1EF0;
rightKerningGroup = IJ;
unicode = 1EF0;
},
{
glyphname = uni1EEA;
layers = (
{
hints = (
{
horizontal = 1;
place = "{-12, 164}";
type = Stem;
},
{
horizontal = 1;
place = "{700, -20}";
target = down;
type = TopGhost;
},
{
horizontal = 1;
place = "{761, 179}";
type = Stem;
},
{
place = "{55, 165}";
type = Stem;
},
{
place = "{526, 165}";
type = Stem;
},
{
place = "{650, 161}";
type = Stem;
}
);
layerId = "932F2AAA-B43D-49B5-A115-0F830113A58F";
paths = (
{
closed = 1;
nodes = (
"548 -12 OFFCURVE",
"691 102 OFFCURVE",
"691 307 CURVE SMOOTH",
"691 593 LINE",
"766 621 OFFCURVE",
"811 680 OFFCURVE",
"811 761 CURVE SMOOTH",
"811 771 OFFCURVE",
"810 786 OFFCURVE",
"808 796 CURVE",
"647 796 LINE",
"649 786 OFFCURVE",
"650 772 OFFCURVE",
"650 762 CURVE SMOOTH",
"650 715 OFFCURVE",
"621 700 OFFCURVE",
"571 700 CURVE SMOOTH",
"526 700 LINE",
"526 307 LINE SMOOTH",
"526 217 OFFCURVE",
"465 152 OFFCURVE",
"373 152 CURVE SMOOTH",
"281 152 OFFCURVE",
"220 217 OFFCURVE",
"220 307 CURVE SMOOTH",
"220 700 LINE",
"55 700 LINE",
"55 307 LINE SMOOTH",
"55 102 OFFCURVE",
"198 -12 OFFCURVE",
"373 -12 CURVE SMOOTH"
);
},
{
closed = 1;
nodes = (
"209 940 LINE",
"342 761 LINE",
"445 761 LINE",
"382 940 LINE"
);
}
);
width = 746;
}
);
leftKerningGroup = U;
note = uni1EEA;
rightKerningGroup = IJ;
unicode = 1EEA;
},
{
glyphname = uni1EEC;
layers = (
{
hints = (
{
horizontal = 1;
place = "{-12, 164}";
type = Stem;
},
{
horizontal = 1;
place = "{700, -20}";
target = down;
type = TopGhost;
},
{
horizontal = 1;
place = "{831, 119}";
type = Stem;
},
{
place = "{55, 165}";
type = Stem;
},
{
place = "{526, 165}";
type = Stem;
},
{
place = "{650, 161}";
type = Stem;
},
{
place = "{247, 99}";
type = Stem;
},
{
horizontal = 1;
place = "{865, 85}";
type = Stem;
},
{
place = "{399, 103}";
type = Stem;
},
{
horizontal = 1;
place = "{761, 189}";
type = Stem;
}
);
layerId = "932F2AAA-B43D-49B5-A115-0F830113A58F";
paths = (
{
closed = 1;
nodes = (
"548 -12 OFFCURVE",
"691 102 OFFCURVE",
"691 307 CURVE SMOOTH",
"691 593 LINE",
"766 621 OFFCURVE",
"811 680 OFFCURVE",
"811 761 CURVE SMOOTH",
"811 771 OFFCURVE",
"810 786 OFFCURVE",
"808 796 CURVE",
"647 796 LINE",
"649 786 OFFCURVE",
"650 772 OFFCURVE",
"650 762 CURVE SMOOTH",
"650 715 OFFCURVE",
"621 700 OFFCURVE",
"571 700 CURVE SMOOTH",
"526 700 LINE",
"526 307 LINE SMOOTH",
"526 217 OFFCURVE",
"465 152 OFFCURVE",
"373 152 CURVE SMOOTH",
"281 152 OFFCURVE",
"220 217 OFFCURVE",
"220 307 CURVE SMOOTH",
"220 700 LINE",
"55 700 LINE",
"55 307 LINE SMOOTH",
"55 102 OFFCURVE",
"198 -12 OFFCURVE",
"373 -12 CURVE SMOOTH"
);
},
{
closed = 1;
nodes = (
"346 831 LINE",
"346 851 OFFCURVE",
"356 865 OFFCURVE",
"375 865 CURVE SMOOTH",
"393 865 OFFCURVE",
"399 856 OFFCURVE",
"399 845 CURVE SMOOTH",
"399 814 OFFCURVE",
"332 813 OFFCURVE",
"332 761 CURVE",
"430 761 LINE",
"435 789 OFFCURVE",
"502 786 OFFCURVE",
"502 863 CURVE SMOOTH",
"502 919 OFFCURVE",
"458 950 OFFCURVE",
"381 950 CURVE SMOOTH",
"294 950 OFFCURVE",
"247 897 OFFCURVE",
"247 831 CURVE"
);
}
);
width = 746;
}
);
leftKerningGroup = U;
note = uni1EEC;
rightKerningGroup = IJ;
unicode = 1EEC;
},
{
glyphname = uni1EEE;
layers = (
{
hints = (
{
horizontal = 1;
place = "{-12, 164}";
type = Stem;
},
{
horizontal = 1;
place = "{700, -20}";
target = down;
type = TopGhost;
},
{
horizontal = 1;
place = "{771, 149}";
type = Stem;
},
{
place = "{55, 165}";
type = Stem;
},
{
place = "{526, 165}";
type = Stem;
},
{
place = "{650, 161}";
type = Stem;
},
{
horizontal = 1;
place = "{776, 149}";
type = Stem;
},
{
place = "{177, 43}";
type = Stem;
},
{
horizontal = 1;
place = "{816, 109}";
type = Stem;
},
{
place = "{458, 110}";
type = Stem;
},
{
horizontal = 1;
place = "{771, 109}";
type = Stem;
}
);
layerId = "932F2AAA-B43D-49B5-A115-0F830113A58F";
paths = (
{
closed = 1;
nodes = (
"548 -12 OFFCURVE",
"691 102 OFFCURVE",
"691 307 CURVE SMOOTH",
"691 593 LINE",
"766 621 OFFCURVE",
"811 680 OFFCURVE",
"811 761 CURVE SMOOTH",
"811 771 OFFCURVE",
"810 786 OFFCURVE",
"808 796 CURVE",
"647 796 LINE",
"649 786 OFFCURVE",
"650 772 OFFCURVE",
"650 762 CURVE SMOOTH",
"650 715 OFFCURVE",
"621 700 OFFCURVE",
"571 700 CURVE SMOOTH",
"526 700 LINE",
"526 307 LINE SMOOTH",
"526 217 OFFCURVE",
"465 152 OFFCURVE",
"373 152 CURVE SMOOTH",
"281 152 OFFCURVE",
"220 217 OFFCURVE",
"220 307 CURVE SMOOTH",
"220 700 LINE",
"55 700 LINE",
"55 307 LINE SMOOTH",
"55 102 OFFCURVE",
"198 -12 OFFCURVE",
"373 -12 CURVE SMOOTH"
);
},
{
closed = 1;
nodes = (
"288 776 LINE",
"290 800 OFFCURVE",
"301 816 OFFCURVE",
"323 816 CURVE SMOOTH",
"354 816 OFFCURVE",
"374 771 OFFCURVE",
"438 771 CURVE SMOOTH",
"515 771 OFFCURVE",
"563 826 OFFCURVE",
"568 920 CURVE",
"458 920 LINE",
"456 896 OFFCURVE",
"445 880 OFFCURVE",
"423 880 CURVE SMOOTH",
"392 880 OFFCURVE",
"373 925 OFFCURVE",
"310 925 CURVE SMOOTH",
"233 925 OFFCURVE",
"182 874 OFFCURVE",
"177 776 CURVE"
);
}
);
width = 746;
}
);
leftKerningGroup = U;
note = uni1EEE;
rightKerningGroup = IJ;
unicode = 1EEE;
},
{
glyphname = Uhungarumlaut;
layers = (
{
hints = (
{
horizontal = 1;
place = "{-12, 164}";
type = Stem;
},
{
horizontal = 1;
place = "{700, -20}";
target = down;
type = TopGhost;
},
{
horizontal = 1;
place = "{770, 179}";
type = Stem;
},
{
place = "{55, 165}";
type = Stem;
},
{
place = "{526, 165}";
type = Stem;
}
);
layerId = "932F2AAA-B43D-49B5-A115-0F830113A58F";
paths = (
{
closed = 1;
nodes = (
"548 -12 OFFCURVE",
"691 102 OFFCURVE",
"691 307 CURVE SMOOTH",
"691 700 LINE",
"526 700 LINE",
"526 307 LINE SMOOTH",
"526 217 OFFCURVE",
"465 152 OFFCURVE",
"373 152 CURVE SMOOTH",
"281 152 OFFCURVE",
"220 217 OFFCURVE",
"220 307 CURVE SMOOTH",
"220 700 LINE",
"55 700 LINE",
"55 307 LINE SMOOTH",
"55 102 OFFCURVE",
"198 -12 OFFCURVE",
"373 -12 CURVE SMOOTH"
);
},
{
closed = 1;
nodes = (
"212 770 LINE",
"310 770 LINE",
"431 949 LINE",
"267 949 LINE"
);
},
{
closed = 1;
nodes = (
"407 770 LINE",
"505 770 LINE",
"626 949 LINE",
"462 949 LINE"
);
}
);
width = 746;
}
);
leftKerningGroup = U;
note = Uhungarumlaut;
rightKerningGroup = IJ;
unicode = 0170;
},
{
glyphname = Umacron;
layers = (
{
hints = (
{
horizontal = 1;
place = "{-12, 164}";
type = Stem;
},
{
horizontal = 1;
place = "{700, -20}";
target = down;
type = TopGhost;
},
{
horizontal = 1;
place = "{786, 113}";
type = Stem;
},
{
place = "{55, 165}";
type = Stem;
},
{
place = "{526, 165}";
type = Stem;
},
{
place = "{193, 27}";
type = Stem;
},
{
place = "{526, 29}";
type = Stem;
}
);
layerId = "932F2AAA-B43D-49B5-A115-0F830113A58F";
paths = (
{
closed = 1;
nodes = (
"548 -12 OFFCURVE",
"691 102 OFFCURVE",
"691 307 CURVE SMOOTH",
"691 700 LINE",
"526 700 LINE",
"526 307 LINE SMOOTH",
"526 217 OFFCURVE",
"465 152 OFFCURVE",
"373 152 CURVE SMOOTH",
"281 152 OFFCURVE",
"220 217 OFFCURVE",
"220 307 CURVE SMOOTH",
"220 700 LINE",
"55 700 LINE",
"55 307 LINE SMOOTH",
"55 102 OFFCURVE",
"198 -12 OFFCURVE",
"373 -12 CURVE SMOOTH"
);
},
{
closed = 1;
nodes = (
"193 786 LINE",
"555 786 LINE",
"555 899 LINE",
"193 899 LINE"
);
}
);
width = 746;
}
);
leftKerningGroup = U;
note = Umacron;
rightKerningGroup = IJ;
unicode = 016A;
},
{
glyphname = Uogonek;
layers = (
{
hints = (
{
horizontal = 1;
place = "{-210, 21}";
target = up;
type = BottomGhost;
},
{
horizontal = 1;
place = "{-5, 21}";
target = up;
type = BottomGhost;
},
{
horizontal = 1;
place = "{700, -20}";
target = down;
type = TopGhost;
},
{
place = "{223, 158}";
type = Stem;
},
{
place = "{526, 165}";
type = Stem;
},
{
horizontal = 1;
place = "{-210, 105}";
type = Stem;
},
{
place = "{55, 165}";
type = Stem;
}
);
layerId = "932F2AAA-B43D-49B5-A115-0F830113A58F";
paths = (
{
closed = 1;
nodes = (
"402 -210 OFFCURVE",
"441 -203 OFFCURVE",
"457 -198 CURVE",
"470 -98 LINE",
"470 -98 OFFCURVE",
"447 -105 OFFCURVE",
"426 -105 CURVE SMOOTH",
"399 -105 OFFCURVE",
"381 -94 OFFCURVE",
"381 -71 CURVE SMOOTH",
"381 -46 OFFCURVE",
"402 -22 OFFCURVE",
"457 -3 CURVE",
"592 29 OFFCURVE",
"691 136 OFFCURVE",
"691 307 CURVE SMOOTH",
"691 700 LINE",
"526 700 LINE",
"526 307 LINE SMOOTH",
"526 217 OFFCURVE",
"465 152 OFFCURVE",
"373 152 CURVE SMOOTH",
"281 152 OFFCURVE",
"220 217 OFFCURVE",
"220 307 CURVE SMOOTH",
"220 700 LINE",
"55 700 LINE",
"55 307 LINE SMOOTH",
"55 131 OFFCURVE",
"161 22 OFFCURVE",
"302 -5 CURVE",
"244 -30 OFFCURVE",
"223 -69 OFFCURVE",
"223 -105 CURVE SMOOTH",
"223 -184 OFFCURVE",
"296 -210 OFFCURVE",
"369 -210 CURVE SMOOTH"
);
}
);
width = 746;
}
);
leftKerningGroup = U;
note = Uogonek;
rightKerningGroup = IJ;
unicode = 0172;
},
{
glyphname = Uring;
layers = (
{
hints = (
{
horizontal = 1;
place = "{-12, 164}";
type = Stem;
},
{
horizontal = 1;
place = "{700, -20}";
target = down;
type = TopGhost;
},
{
horizontal = 1;
place = "{738, 86}";
type = Stem;
},
{
horizontal = 1;
place = "{896, 85}";
type = Stem;
},
{
place = "{55, 165}";
type = Stem;
},
{
place = "{252, 86}";
type = Stem;
},
{
place = "{410, 85}";
type = Stem;
},
{
place = "{526, 165}";
type = Stem;
}
);
layerId = "932F2AAA-B43D-49B5-A115-0F830113A58F";
paths = (
{
closed = 1;
nodes = (
"548 -12 OFFCURVE",
"691 102 OFFCURVE",
"691 307 CURVE SMOOTH",
"691 700 LINE",
"526 700 LINE",
"526 307 LINE SMOOTH",
"526 217 OFFCURVE",
"465 152 OFFCURVE",
"373 152 CURVE SMOOTH",
"281 152 OFFCURVE",
"220 217 OFFCURVE",
"220 307 CURVE SMOOTH",
"220 700 LINE",
"55 700 LINE",
"55 307 LINE SMOOTH",
"55 102 OFFCURVE",
"198 -12 OFFCURVE",
"373 -12 CURVE SMOOTH"
);
},
{
closed = 1;
nodes = (
"252 793 OFFCURVE",
"306 738 OFFCURVE",
"374 738 CURVE SMOOTH",
"441 738 OFFCURVE",
"495 793 OFFCURVE",
"495 859 CURVE SMOOTH",
"495 926 OFFCURVE",
"441 981 OFFCURVE",
"374 981 CURVE SMOOTH",
"306 981 OFFCURVE",
"252 926 OFFCURVE",
"252 859 CURVE SMOOTH"
);
},
{
closed = 1;
nodes = (
"338 880 OFFCURVE",
"354 896 OFFCURVE",
"374 896 CURVE SMOOTH",
"393 896 OFFCURVE",
"410 880 OFFCURVE",
"410 860 CURVE SMOOTH",
"410 840 OFFCURVE",
"393 824 OFFCURVE",
"374 824 CURVE SMOOTH",
"354 824 OFFCURVE",
"338 840 OFFCURVE",
"338 860 CURVE SMOOTH"
);
}
);
width = 746;
}
);
leftKerningGroup = U;
note = Uring;
rightKerningGroup = IJ;
unicode = 016E;
},
{
glyphname = Utilde;
layers = (
{
hints = (
{
horizontal = 1;
place = "{-12, 164}";
type = Stem;
},
{
horizontal = 1;
place = "{700, -20}";
target = down;
type = TopGhost;
},
{
horizontal = 1;
place = "{771, 149}";
type = Stem;
},
{
place = "{55, 165}";
type = Stem;
},
{
place = "{526, 165}";
type = Stem;
},
{
horizontal = 1;
place = "{776, 149}";
type = Stem;
},
{
place = "{177, 43}";
type = Stem;
},
{
horizontal = 1;
place = "{816, 109}";
type = Stem;
},
{
place = "{458, 110}";
type = Stem;
},
{
horizontal = 1;
place = "{771, 109}";
type = Stem;
}
);
layerId = "932F2AAA-B43D-49B5-A115-0F830113A58F";
paths = (
{
closed = 1;
nodes = (
"548 -12 OFFCURVE",
"691 102 OFFCURVE",
"691 307 CURVE SMOOTH",
"691 700 LINE",
"526 700 LINE",
"526 307 LINE SMOOTH",
"526 217 OFFCURVE",
"465 152 OFFCURVE",
"373 152 CURVE SMOOTH",
"281 152 OFFCURVE",
"220 217 OFFCURVE",
"220 307 CURVE SMOOTH",
"220 700 LINE",
"55 700 LINE",
"55 307 LINE SMOOTH",
"55 102 OFFCURVE",
"198 -12 OFFCURVE",
"373 -12 CURVE SMOOTH"
);
},
{
closed = 1;
nodes = (
"288 776 LINE",
"290 800 OFFCURVE",
"301 816 OFFCURVE",
"323 816 CURVE SMOOTH",
"354 816 OFFCURVE",
"374 771 OFFCURVE",
"438 771 CURVE SMOOTH",
"515 771 OFFCURVE",
"563 826 OFFCURVE",
"568 920 CURVE",
"458 920 LINE",
"456 896 OFFCURVE",
"445 880 OFFCURVE",
"423 880 CURVE SMOOTH",
"392 880 OFFCURVE",
"373 925 OFFCURVE",
"310 925 CURVE SMOOTH",
"233 925 OFFCURVE",
"182 874 OFFCURVE",
"177 776 CURVE"
);
}
);
width = 746;
}
);
leftKerningGroup = U;
note = Utilde;
unicode = 0168;
},
{
glyphname = V;
layers = (
{
hints = (
{
horizontal = 1;
place = "{700, -20}";
target = down;
type = TopGhost;
},
{
place = "{1, 735}";
type = Stem;
}
);
layerId = "932F2AAA-B43D-49B5-A115-0F830113A58F";
paths = (
{
closed = 1;
nodes = (
"315 -19 LINE",
"429 -19 LINE",
"736 700 LINE",
"554 700 LINE",
"376 245 LINE",
"190 700 LINE",
"1 700 LINE"
);
}
);
width = 739;
}
);
leftKerningGroup = V;
note = V;
rightKerningGroup = V;
unicode = 0056;
},
{
glyphname = W;
layers = (
{
hints = (
{
horizontal = 1;
place = "{0, 21}";
target = up;
type = BottomGhost;
},
{
horizontal = 1;
place = "{700, -20}";
target = down;
type = TopGhost;
},
{
place = "{-2, 1017}";
type = Stem;
}
);
layerId = "932F2AAA-B43D-49B5-A115-0F830113A58F";
paths = (
{
closed = 1;
nodes = (
"779 0 LINE",
"1015 700 LINE",
"838 700 LINE",
"710 297 LINE",
"565 700 LINE",
"449 700 LINE",
"304 297 LINE",
"178 700 LINE",
"-2 700 LINE",
"235 0 LINE",
"345 0 LINE",
"507 448 LINE",
"669 0 LINE"
);
}
);
width = 1017;
}
);
leftKerningGroup = W;
note = W;
rightKerningGroup = W;
unicode = 0057;
},
{
glyphname = Wacute;
layers = (
{
hints = (
{
horizontal = 1;
place = "{0, 21}";
target = up;
type = BottomGhost;
},
{
horizontal = 1;
place = "{700, -20}";
target = down;
type = TopGhost;
},
{
horizontal = 1;
place = "{761, 179}";
type = Stem;
},
{
place = "{-2, 1017}";
type = Stem;
}
);
layerId = "932F2AAA-B43D-49B5-A115-0F830113A58F";
paths = (
{
closed = 1;
nodes = (
"779 0 LINE",
"1015 700 LINE",
"838 700 LINE",
"710 297 LINE",
"565 700 LINE",
"449 700 LINE",
"304 297 LINE",
"178 700 LINE",
"-2 700 LINE",
"235 0 LINE",
"345 0 LINE",
"507 448 LINE",
"669 0 LINE"
);
},
{
closed = 1;
nodes = (
"441 761 LINE",
"544 761 LINE",
"677 940 LINE",
"504 940 LINE"
);
}
);
width = 1017;
}
);
leftKerningGroup = W;
note = Wacute;
rightKerningGroup = W;
unicode = 1E82;
},
{
glyphname = Wcircumflex;
layers = (
{
hints = (
{
horizontal = 1;
place = "{0, 21}";
target = up;
type = BottomGhost;
},
{
horizontal = 1;
place = "{700, -20}";
target = down;
type = TopGhost;
},
{
place = "{-2, 1017}";
type = Stem;
},
{
place = "{343, 327}";
type = Stem;
}
);
layerId = "932F2AAA-B43D-49B5-A115-0F830113A58F";
paths = (
{
closed = 1;
nodes = (
"779 0 LINE",
"1015 700 LINE",
"838 700 LINE",
"710 297 LINE",
"565 700 LINE",
"449 700 LINE",
"304 297 LINE",
"178 700 LINE",
"-2 700 LINE",
"235 0 LINE",
"345 0 LINE",
"507 448 LINE",
"669 0 LINE"
);
},
{
closed = 1;
nodes = (
"343 747 LINE",
"506 827 LINE",
"670 747 LINE",
"670 867 LINE",
"506 948 LINE",
"343 867 LINE"
);
}
);
width = 1017;
}
);
leftKerningGroup = W;
note = Wcircumflex;
rightKerningGroup = W;
unicode = 0174;
},
{
glyphname = Wdieresis;
layers = (
{
hints = (
{
horizontal = 1;
place = "{0, 21}";
target = up;
type = BottomGhost;
},
{
horizontal = 1;
place = "{700, -20}";
target = down;
type = TopGhost;
},
{
horizontal = 1;
place = "{761, 180}";
type = Stem;
},
{
place = "{302, 181}";
type = Stem;
},
{
place = "{532, 180}";
type = Stem;
}
);
layerId = "932F2AAA-B43D-49B5-A115-0F830113A58F";
paths = (
{
closed = 1;
nodes = (
"779 0 LINE",
"1015 700 LINE",
"838 700 LINE",
"710 297 LINE",
"565 700 LINE",
"449 700 LINE",
"304 297 LINE",
"178 700 LINE",
"-2 700 LINE",
"235 0 LINE",
"345 0 LINE",
"507 448 LINE",
"669 0 LINE"
);
},
{
closed = 1;
nodes = (
"302 802 OFFCURVE",
"343 761 OFFCURVE",
"392 761 CURVE SMOOTH",
"442 761 OFFCURVE",
"483 802 OFFCURVE",
"483 851 CURVE SMOOTH",
"483 900 OFFCURVE",
"442 941 OFFCURVE",
"392 941 CURVE SMOOTH",
"343 941 OFFCURVE",
"302 900 OFFCURVE",
"302 851 CURVE SMOOTH"
);
},
{
closed = 1;
nodes = (
"532 802 OFFCURVE",
"572 761 OFFCURVE",
"622 761 CURVE SMOOTH",
"671 761 OFFCURVE",
"712 802 OFFCURVE",
"712 851 CURVE SMOOTH",
"712 900 OFFCURVE",
"671 941 OFFCURVE",
"622 941 CURVE SMOOTH",
"572 941 OFFCURVE",
"532 900 OFFCURVE",
"532 851 CURVE SMOOTH"
);
}
);
width = 1017;
}
);
leftKerningGroup = W;
note = Wdieresis;
rightKerningGroup = W;
unicode = 1E84;
},
{
glyphname = Wgrave;
layers = (
{
hints = (
{
horizontal = 1;
place = "{0, 21}";
target = up;
type = BottomGhost;
},
{
horizontal = 1;
place = "{700, -20}";
target = down;
type = TopGhost;
},
{
horizontal = 1;
place = "{761, 179}";
type = Stem;
},
{
place = "{-2, 1017}";
type = Stem;
}
);
layerId = "932F2AAA-B43D-49B5-A115-0F830113A58F";
paths = (
{
closed = 1;
nodes = (
"779 0 LINE",
"1015 700 LINE",
"838 700 LINE",
"710 297 LINE",
"565 700 LINE",
"449 700 LINE",
"304 297 LINE",
"178 700 LINE",
"-2 700 LINE",
"235 0 LINE",
"345 0 LINE",
"507 448 LINE",
"669 0 LINE"
);
},
{
closed = 1;
nodes = (
"343 940 LINE",
"476 761 LINE",
"579 761 LINE",
"516 940 LINE"
);
}
);
width = 1017;
}
);
leftKerningGroup = W;
note = Wgrave;
rightKerningGroup = W;
unicode = 1E80;
},
{
glyphname = X;
layers = (
{
hints = (
{
horizontal = 1;
place = "{0, 21}";
target = up;
type = BottomGhost;
},
{
horizontal = 1;
place = "{700, -20}";
target = down;
type = TopGhost;
},
{
place = "{1, 705}";
type = Stem;
}
);
layerId = "932F2AAA-B43D-49B5-A115-0F830113A58F";
paths = (
{
closed = 1;
nodes = (
"1 0 LINE",
"193 0 LINE",
"346 226 LINE",
"509 0 LINE",
"706 0 LINE",
"453 352 LINE",
"696 700 LINE",
"504 700 LINE",
"359 485 LINE",
"203 700 LINE",
"7 700 LINE",
"251 359 LINE"
);
}
);
width = 707;
}
);
leftKerningGroup = X;
note = X;
rightKerningGroup = X;
unicode = 0058;
},
{
glyphname = Y;
layers = (
{
hints = (
{
horizontal = 1;
place = "{0, 21}";
target = up;
type = BottomGhost;
},
{
horizontal = 1;
place = "{700, -20}";
target = down;
type = TopGhost;
},
{
place = "{263, 165}";
type = Stem;
}
);
layerId = "932F2AAA-B43D-49B5-A115-0F830113A58F";
paths = (
{
closed = 1;
nodes = (
"263 0 LINE",
"428 0 LINE",
"428 237 LINE",
"688 700 LINE",
"505 700 LINE",
"349 403 LINE",
"184 700 LINE",
"-7 700 LINE",
"263 235 LINE"
);
}
);
width = 682;
}
);
leftKerningGroup = Y;
note = Y;
rightKerningGroup = Y;
unicode = 0059;
},
{
glyphname = Yacute;
layers = (
{
hints = (
{
horizontal = 1;
place = "{0, 21}";
target = up;
type = BottomGhost;
},
{
horizontal = 1;
place = "{700, -20}";
target = down;
type = TopGhost;
},
{
horizontal = 1;
place = "{761, 179}";
type = Stem;
},
{
place = "{263, 165}";
type = Stem;
}
);
layerId = "932F2AAA-B43D-49B5-A115-0F830113A58F";
paths = (
{
closed = 1;
nodes = (
"263 0 LINE",
"428 0 LINE",
"428 237 LINE",
"688 700 LINE",
"505 700 LINE",
"349 403 LINE",
"184 700 LINE",
"-7 700 LINE",
"263 235 LINE"
);
},
{
closed = 1;
nodes = (
"275 761 LINE",
"378 761 LINE",
"511 940 LINE",
"338 940 LINE"
);
}
);
width = 682;
}
);
leftKerningGroup = Y;
note = Yacute;
rightKerningGroup = Y;
unicode = 00DD;
},
{
glyphname = Ycircumflex;
layers = (
{
hints = (
{
horizontal = 1;
place = "{0, 21}";
target = up;
type = BottomGhost;
},
{
horizontal = 1;
place = "{700, -20}";
target = down;
type = TopGhost;
},
{
place = "{263, 165}";
type = Stem;
},
{
place = "{177, 327}";
type = Stem;
}
);
layerId = "932F2AAA-B43D-49B5-A115-0F830113A58F";
paths = (
{
closed = 1;
nodes = (
"263 0 LINE",
"428 0 LINE",
"428 237 LINE",
"688 700 LINE",
"505 700 LINE",
"349 403 LINE",
"184 700 LINE",
"-7 700 LINE",
"263 235 LINE"
);
},
{
closed = 1;
nodes = (
"177 747 LINE",
"340 827 LINE",
"504 747 LINE",
"504 867 LINE",
"340 948 LINE",
"177 867 LINE"
);
}
);
width = 682;
}
);
leftKerningGroup = Y;
note = Ycircumflex;
rightKerningGroup = Y;
unicode = 0176;
},
{
glyphname = Ydieresis;
layers = (
{
hints = (
{
horizontal = 1;
place = "{0, 21}";
target = up;
type = BottomGhost;
},
{
horizontal = 1;
place = "{700, -20}";
target = down;
type = TopGhost;
},
{
horizontal = 1;
place = "{761, 180}";
type = Stem;
},
{
place = "{263, 165}";
type = Stem;
},
{
place = "{136, 181}";
type = Stem;
},
{
place = "{366, 180}";
type = Stem;
}
);
layerId = "932F2AAA-B43D-49B5-A115-0F830113A58F";
paths = (
{
closed = 1;
nodes = (
"263 0 LINE",
"428 0 LINE",
"428 237 LINE",
"688 700 LINE",
"505 700 LINE",
"349 403 LINE",
"184 700 LINE",
"-7 700 LINE",
"263 235 LINE"
);
},
{
closed = 1;
nodes = (
"136 802 OFFCURVE",
"177 761 OFFCURVE",
"227 761 CURVE SMOOTH",
"276 761 OFFCURVE",
"317 802 OFFCURVE",
"317 851 CURVE SMOOTH",
"317 900 OFFCURVE",
"276 941 OFFCURVE",
"227 941 CURVE SMOOTH",
"177 941 OFFCURVE",
"136 900 OFFCURVE",
"136 851 CURVE SMOOTH"
);
},
{
closed = 1;
nodes = (
"366 802 OFFCURVE",
"407 761 OFFCURVE",
"456 761 CURVE SMOOTH",
"506 761 OFFCURVE",
"546 802 OFFCURVE",
"546 851 CURVE SMOOTH",
"546 900 OFFCURVE",
"506 941 OFFCURVE",
"456 941 CURVE SMOOTH",
"407 941 OFFCURVE",
"366 900 OFFCURVE",
"366 851 CURVE SMOOTH"
);
}
);
width = 682;
}
);
leftKerningGroup = Y;
note = Ydieresis;
rightKerningGroup = Y;
unicode = 0178;
},
{
glyphname = uni1EF4;
layers = (
{
hints = (
{
horizontal = 1;
place = "{-243, 186}";
type = Stem;
},
{
horizontal = 1;
place = "{0, 21}";
target = up;
type = BottomGhost;
},
{
horizontal = 1;
place = "{700, -20}";
target = down;
type = TopGhost;
},
{
place = "{263, 165}";
type = Stem;
},
{
place = "{250, 186}";
type = Stem;
}
);
layerId = "932F2AAA-B43D-49B5-A115-0F830113A58F";
paths = (
{
closed = 1;
nodes = (
"263 0 LINE",
"428 0 LINE",
"428 237 LINE",
"688 700 LINE",
"505 700 LINE",
"349 403 LINE",
"184 700 LINE",
"-7 700 LINE",
"263 235 LINE"
);
},
{
closed = 1;
nodes = (
"250 -201 OFFCURVE",
"292 -243 OFFCURVE",
"343 -243 CURVE SMOOTH",
"394 -243 OFFCURVE",
"436 -201 OFFCURVE",
"436 -150 CURVE SMOOTH",
"436 -100 OFFCURVE",
"394 -57 OFFCURVE",
"343 -57 CURVE SMOOTH",
"292 -57 OFFCURVE",
"250 -100 OFFCURVE",
"250 -150 CURVE SMOOTH"
);
}
);
width = 682;
}
);
leftKerningGroup = Y;
note = uni1EF4;
rightKerningGroup = Y;
unicode = 1EF4;
},
{
glyphname = Ygrave;
layers = (
{
hints = (
{
horizontal = 1;
place = "{0, 21}";
target = up;
type = BottomGhost;
},
{
horizontal = 1;
place = "{700, -20}";
target = down;
type = TopGhost;
},
{
horizontal = 1;
place = "{761, 179}";
type = Stem;
},
{
place = "{263, 165}";
type = Stem;
}
);
layerId = "932F2AAA-B43D-49B5-A115-0F830113A58F";
paths = (
{
closed = 1;
nodes = (
"263 0 LINE",
"428 0 LINE",
"428 237 LINE",
"688 700 LINE",
"505 700 LINE",
"349 403 LINE",
"184 700 LINE",
"-7 700 LINE",
"263 235 LINE"
);
},
{
closed = 1;
nodes = (
"177 940 LINE",
"310 761 LINE",
"413 761 LINE",
"350 940 LINE"
);
}
);
width = 682;
}
);
leftKerningGroup = Y;
note = Ygrave;
rightKerningGroup = Y;
unicode = 1EF2;
},
{
glyphname = uni1EF6;
layers = (
{
hints = (
{
horizontal = 1;
place = "{0, 21}";
target = up;
type = BottomGhost;
},
{
horizontal = 1;
place = "{700, -20}";
target = down;
type = TopGhost;
},
{
horizontal = 1;
place = "{831, 119}";
type = Stem;
},
{
place = "{263, 165}";
type = Stem;
},
{
place = "{215, 99}";
type = Stem;
},
{
horizontal = 1;
place = "{865, 85}";
type = Stem;
},
{
place = "{367, 103}";
type = Stem;
},
{
horizontal = 1;
place = "{761, 189}";
type = Stem;
}
);
layerId = "932F2AAA-B43D-49B5-A115-0F830113A58F";
paths = (
{
closed = 1;
nodes = (
"263 0 LINE",
"428 0 LINE",
"428 237 LINE",
"688 700 LINE",
"505 700 LINE",
"349 403 LINE",
"184 700 LINE",
"-7 700 LINE",
"263 235 LINE"
);
},
{
closed = 1;
nodes = (
"314 831 LINE",
"314 851 OFFCURVE",
"324 865 OFFCURVE",
"343 865 CURVE SMOOTH",
"361 865 OFFCURVE",
"367 856 OFFCURVE",
"367 845 CURVE SMOOTH",
"367 814 OFFCURVE",
"300 813 OFFCURVE",
"300 761 CURVE",
"398 761 LINE",
"403 789 OFFCURVE",
"470 786 OFFCURVE",
"470 863 CURVE SMOOTH",
"470 919 OFFCURVE",
"426 950 OFFCURVE",
"349 950 CURVE SMOOTH",
"262 950 OFFCURVE",
"215 897 OFFCURVE",
"215 831 CURVE"
);
}
);
width = 682;
}
);
leftKerningGroup = Y;
note = uni1EF6;
rightKerningGroup = Y;
unicode = 1EF6;
},
{
glyphname = uni1EF6.;
layers = (
{
hints = (
{
horizontal = 1;
place = "{0, 21}";
target = up;
type = BottomGhost;
},
{
horizontal = 1;
place = "{700, -20}";
target = down;
type = TopGhost;
},
{
horizontal = 1;
place = "{831, 119}";
type = Stem;
},
{
place = "{263, 165}";
type = Stem;
},
{
place = "{215, 99}";
type = Stem;
},
{
horizontal = 1;
place = "{865, 85}";
type = Stem;
},
{
place = "{367, 103}";
type = Stem;
},
{
horizontal = 1;
place = "{761, 189}";
type = Stem;
}
);
layerId = "932F2AAA-B43D-49B5-A115-0F830113A58F";
paths = (
{
closed = 1;
nodes = (
"263 0 LINE",
"428 0 LINE",
"428 237 LINE",
"688 700 LINE",
"505 700 LINE",
"349 403 LINE",
"184 700 LINE",
"-7 700 LINE",
"263 235 LINE"
);
},
{
closed = 1;
nodes = (
"314 831 LINE",
"314 851 OFFCURVE",
"324 865 OFFCURVE",
"343 865 CURVE SMOOTH",
"361 865 OFFCURVE",
"367 856 OFFCURVE",
"367 845 CURVE SMOOTH",
"367 814 OFFCURVE",
"300 813 OFFCURVE",
"300 761 CURVE",
"398 761 LINE",
"403 789 OFFCURVE",
"470 786 OFFCURVE",
"470 863 CURVE SMOOTH",
"470 919 OFFCURVE",
"426 950 OFFCURVE",
"349 950 CURVE SMOOTH",
"262 950 OFFCURVE",
"215 897 OFFCURVE",
"215 831 CURVE"
);
}
);
width = 682;
}
);
note = uni1EF6.;
},
{
glyphname = uni1EF8;
layers = (
{
hints = (
{
horizontal = 1;
place = "{0, 21}";
target = up;
type = BottomGhost;
},
{
horizontal = 1;
place = "{700, -20}";
target = down;
type = TopGhost;
},
{
horizontal = 1;
place = "{771, 149}";
type = Stem;
},
{
place = "{263, 165}";
type = Stem;
},
{
horizontal = 1;
place = "{776, 149}";
type = Stem;
},
{
place = "{145, 111}";
type = Stem;
},
{
horizontal = 1;
place = "{816, 109}";
type = Stem;
},
{
place = "{426, 110}";
type = Stem;
},
{
horizontal = 1;
place = "{771, 109}";
type = Stem;
}
);
layerId = "932F2AAA-B43D-49B5-A115-0F830113A58F";
paths = (
{
closed = 1;
nodes = (
"263 0 LINE",
"428 0 LINE",
"428 237 LINE",
"688 700 LINE",
"505 700 LINE",
"349 403 LINE",
"184 700 LINE",
"-7 700 LINE",
"263 235 LINE"
);
},
{
closed = 1;
nodes = (
"256 776 LINE",
"258 800 OFFCURVE",
"269 816 OFFCURVE",
"291 816 CURVE SMOOTH",
"322 816 OFFCURVE",
"342 771 OFFCURVE",
"406 771 CURVE SMOOTH",
"483 771 OFFCURVE",
"531 826 OFFCURVE",
"536 920 CURVE",
"426 920 LINE",
"424 896 OFFCURVE",
"413 880 OFFCURVE",
"391 880 CURVE SMOOTH",
"360 880 OFFCURVE",
"341 925 OFFCURVE",
"278 925 CURVE SMOOTH",
"201 925 OFFCURVE",
"150 874 OFFCURVE",
"145 776 CURVE"
);
}
);
width = 682;
}
);
leftKerningGroup = Y;
note = uni1EF8;
rightKerningGroup = Y;
unicode = 1EF8;
},
{
glyphname = Z;
layers = (
{
hints = (
{
horizontal = 1;
place = "{0, 151}";
type = Stem;
},
{
horizontal = 1;
place = "{549, 151}";
type = Stem;
},
{
place = "{8, 624}";
type = Stem;
}
);
layerId = "932F2AAA-B43D-49B5-A115-0F830113A58F";
paths = (
{
closed = 1;
nodes = (
"8 0 LINE",
"622 0 LINE",
"622 151 LINE",
"291 151 LINE",
"632 700 LINE",
"38 700 LINE",
"38 549 LINE",
"348 549 LINE"
);
}
);
width = 637;
}
);
leftKerningGroup = Z;
note = Z;
rightKerningGroup = Z;
unicode = 005A;
},
{
glyphname = Zacute;
layers = (
{
hints = (
{
horizontal = 1;
place = "{0, 151}";
type = Stem;
},
{
horizontal = 1;
place = "{549, 151}";
type = Stem;
},
{
horizontal = 1;
place = "{761, 179}";
type = Stem;
},
{
place = "{8, 624}";
type = Stem;
}
);
layerId = "932F2AAA-B43D-49B5-A115-0F830113A58F";
paths = (
{
closed = 1;
nodes = (
"8 0 LINE",
"622 0 LINE",
"622 151 LINE",
"291 151 LINE",
"632 700 LINE",
"38 700 LINE",
"38 549 LINE",
"348 549 LINE"
);
},
{
closed = 1;
nodes = (
"251 761 LINE",
"354 761 LINE",
"487 940 LINE",
"314 940 LINE"
);
}
);
width = 637;
}
);
leftKerningGroup = Z;
note = Zacute;
rightKerningGroup = Z;
unicode = 0179;
},
{
glyphname = Zcaron;
layers = (
{
hints = (
{
horizontal = 1;
place = "{0, 151}";
type = Stem;
},
{
horizontal = 1;
place = "{549, 151}";
type = Stem;
},
{
place = "{8, 624}";
type = Stem;
},
{
place = "{152, 327}";
type = Stem;
}
);
layerId = "932F2AAA-B43D-49B5-A115-0F830113A58F";
paths = (
{
closed = 1;
nodes = (
"8 0 LINE",
"622 0 LINE",
"622 151 LINE",
"291 151 LINE",
"632 700 LINE",
"38 700 LINE",
"38 549 LINE",
"348 549 LINE"
);
},
{
closed = 1;
nodes = (
"152 819 LINE",
"315 738 LINE",
"479 819 LINE",
"479 939 LINE",
"315 859 LINE",
"152 939 LINE"
);
}
);
width = 637;
}
);
leftKerningGroup = Z;
note = Zcaron;
rightKerningGroup = Z;
unicode = 017D;
},
{
glyphname = Zdotaccent;
layers = (
{
hints = (
{
horizontal = 1;
place = "{0, 151}";
type = Stem;
},
{
horizontal = 1;
place = "{549, 151}";
type = Stem;
},
{
horizontal = 1;
place = "{758, 186}";
type = Stem;
},
{
place = "{223, 186}";
type = Stem;
}
);
layerId = "932F2AAA-B43D-49B5-A115-0F830113A58F";
paths = (
{
closed = 1;
nodes = (
"8 0 LINE",
"622 0 LINE",
"622 151 LINE",
"291 151 LINE",
"632 700 LINE",
"38 700 LINE",
"38 549 LINE",
"348 549 LINE"
);
},
{
closed = 1;
nodes = (
"223 800 OFFCURVE",
"265 758 OFFCURVE",
"316 758 CURVE SMOOTH",
"367 758 OFFCURVE",
"409 800 OFFCURVE",
"409 851 CURVE SMOOTH",
"409 901 OFFCURVE",
"367 944 OFFCURVE",
"316 944 CURVE SMOOTH",
"265 944 OFFCURVE",
"223 901 OFFCURVE",
"223 851 CURVE SMOOTH"
);
}
);
width = 637;
}
);
leftKerningGroup = Z;
note = Zdotaccent;
rightKerningGroup = Z;
unicode = 017B;
},
{
glyphname = A.ss01;
layers = (
{
hints = (
{
horizontal = 1;
place = "{0, 21}";
target = up;
type = BottomGhost;
},
{
horizontal = 1;
place = "{112, 123}";
type = Stem;
},
{
place = "{-4, 788}";
type = Stem;
}
);
layerId = "932F2AAA-B43D-49B5-A115-0F830113A58F";
paths = (
{
closed = 1;
nodes = (
"-4 0 LINE",
"177 0 LINE",
"233 112 LINE",
"542 112 LINE",
"597 0 LINE",
"784 0 LINE",
"391 742 LINE"
);
},
{
closed = 1;
nodes = (
"295 235 LINE",
"390 423 LINE",
"482 235 LINE"
);
}
);
width = 782;
}
);
leftKerningGroup = A;
note = A.ss01;
rightKerningGroup = A;
},
{
glyphname = Aacute.ss01;
layers = (
{
hints = (
{
horizontal = 1;
place = "{0, 21}";
target = up;
type = BottomGhost;
},
{
horizontal = 1;
place = "{112, 123}";
type = Stem;
},
{
horizontal = 1;
place = "{761, 179}";
type = Stem;
},
{
place = "{-4, 788}";
type = Stem;
}
);
layerId = "932F2AAA-B43D-49B5-A115-0F830113A58F";
paths = (
{
closed = 1;
nodes = (
"-4 0 LINE",
"177 0 LINE",
"233 112 LINE",
"542 112 LINE",
"597 0 LINE",
"784 0 LINE",
"391 742 LINE"
);
},
{
closed = 1;
nodes = (
"295 235 LINE",
"390 423 LINE",
"482 235 LINE"
);
},
{
closed = 1;
nodes = (
"326 761 LINE",
"429 761 LINE",
"562 940 LINE",
"389 940 LINE"
);
}
);
width = 782;
}
);
leftKerningGroup = A;
note = Aacute.ss01;
rightKerningGroup = A;
},
{
glyphname = Abreve.ss01;
layers = (
{
hints = (
{
horizontal = 1;
place = "{0, 21}";
target = up;
type = BottomGhost;
},
{
horizontal = 1;
place = "{112, 123}";
type = Stem;
},
{
horizontal = 1;
place = "{747, 170}";
type = Stem;
},
{
place = "{-4, 788}";
type = Stem;
},
{
horizontal = 1;
place = "{747, 107}";
type = Stem;
}
);
layerId = "932F2AAA-B43D-49B5-A115-0F830113A58F";
paths = (
{
closed = 1;
nodes = (
"-4 0 LINE",
"177 0 LINE",
"233 112 LINE",
"542 112 LINE",
"597 0 LINE",
"784 0 LINE",
"391 742 LINE"
);
},
{
closed = 1;
nodes = (
"210 917 LINE",
"218 802 OFFCURVE",
"301 747 OFFCURVE",
"392 747 CURVE SMOOTH",
"483 747 OFFCURVE",
"565 801 OFFCURVE",
"573 917 CURVE",
"457 917 LINE",
"455 884 OFFCURVE",
"433 854 OFFCURVE",
"392 854 CURVE SMOOTH",
"350 854 OFFCURVE",
"328 884 OFFCURVE",
"326 917 CURVE"
);
},
{
closed = 1;
nodes = (
"295 235 LINE",
"390 423 LINE",
"482 235 LINE"
);
}
);
width = 782;
}
);
leftKerningGroup = A;
note = Abreve.ss01;
rightKerningGroup = A;
},
{
glyphname = uni1EB2.ss01;
layers = (
{
hints = (
{
horizontal = 1;
place = "{0, 21}";
target = up;
type = BottomGhost;
},
{
horizontal = 1;
place = "{116, 128}";
type = Stem;
},
{
horizontal = 1;
place = "{700, -20}";
target = down;
type = TopGhost;
},
{
horizontal = 1;
place = "{747, 170}";
type = Stem;
},
{
horizontal = 1;
place = "{1000, 119}";
type = Stem;
},
{
place = "{267, 99}";
type = Stem;
},
{
place = "{419, 103}";
type = Stem;
},
{
horizontal = 1;
place = "{747, 107}";
type = Stem;
},
{
horizontal = 1;
place = "{1034, 85}";
type = Stem;
},
{
horizontal = 1;
place = "{930, 189}";
type = Stem;
}
);
layerId = "932F2AAA-B43D-49B5-A115-0F830113A58F";
paths = (
{
closed = 1;
nodes = (
"-2 0 LINE",
"179 0 LINE",
"233 116 LINE",
"548 116 LINE",
"601 0 LINE",
"785 0 LINE",
"451 700 LINE",
"337 700 LINE"
);
},
{
closed = 1;
nodes = (
"211 917 LINE",
"219 802 OFFCURVE",
"302 747 OFFCURVE",
"393 747 CURVE SMOOTH",
"484 747 OFFCURVE",
"566 801 OFFCURVE",
"574 917 CURVE",
"458 917 LINE",
"456 884 OFFCURVE",
"434 854 OFFCURVE",
"393 854 CURVE SMOOTH",
"351 854 OFFCURVE",
"329 884 OFFCURVE",
"327 917 CURVE"
);
},
{
closed = 1;
nodes = (
"366 1000 LINE",
"366 1020 OFFCURVE",
"376 1034 OFFCURVE",
"395 1034 CURVE SMOOTH",
"413 1034 OFFCURVE",
"419 1025 OFFCURVE",
"419 1014 CURVE SMOOTH",
"419 983 OFFCURVE",
"352 982 OFFCURVE",
"352 930 CURVE",
"450 930 LINE",
"455 958 OFFCURVE",
"522 955 OFFCURVE",
"522 1032 CURVE SMOOTH",
"522 1088 OFFCURVE",
"478 1119 OFFCURVE",
"401 1119 CURVE SMOOTH",
"314 1119 OFFCURVE",
"267 1066 OFFCURVE",
"267 1000 CURVE"
);
},
{
closed = 1;
nodes = (
"292 244 LINE",
"392 460 LINE",
"490 244 LINE"
);
}
);
width = 786;
}
);
leftKerningGroup = A;
note = uni1EB2.ss01;
rightKerningGroup = A;
},
{
glyphname = Acircumflex.ss01;
layers = (
{
hints = (
{
horizontal = 1;
place = "{0, 21}";
target = up;
type = BottomGhost;
},
{
horizontal = 1;
place = "{112, 123}";
type = Stem;
},
{
place = "{-4, 788}";
type = Stem;
},
{
place = "{228, 327}";
type = Stem;
}
);
layerId = "932F2AAA-B43D-49B5-A115-0F830113A58F";
paths = (
{
closed = 1;
nodes = (
"-4 0 LINE",
"177 0 LINE",
"233 112 LINE",
"542 112 LINE",
"597 0 LINE",
"784 0 LINE",
"391 742 LINE"
);
},
{
closed = 1;
nodes = (
"228 747 LINE",
"391 827 LINE",
"555 747 LINE",
"555 867 LINE",
"391 948 LINE",
"228 867 LINE"
);
},
{
closed = 1;
nodes = (
"295 235 LINE",
"390 423 LINE",
"482 235 LINE"
);
}
);
width = 782;
}
);
leftKerningGroup = A;
note = Acircumflex.ss01;
rightKerningGroup = A;
},
{
glyphname = uni1EA8.ss01;
layers = (
{
hints = (
{
horizontal = 1;
place = "{0, 21}";
target = up;
type = BottomGhost;
},
{
horizontal = 1;
place = "{116, 128}";
type = Stem;
},
{
horizontal = 1;
place = "{700, -20}";
target = down;
type = TopGhost;
},
{
horizontal = 1;
place = "{1000, 119}";
type = Stem;
},
{
place = "{396, 99}";
type = Stem;
},
{
place = "{548, 103}";
type = Stem;
},
{
place = "{229, 327}";
type = Stem;
},
{
place = "{481, 75}";
type = Stem;
},
{
horizontal = 1;
place = "{1034, 85}";
type = Stem;
},
{
horizontal = 1;
place = "{930, 189}";
type = Stem;
}
);
layerId = "932F2AAA-B43D-49B5-A115-0F830113A58F";
paths = (
{
closed = 1;
nodes = (
"-2 0 LINE",
"179 0 LINE",
"233 116 LINE",
"548 116 LINE",
"601 0 LINE",
"785 0 LINE",
"451 700 LINE",
"337 700 LINE"
);
},
{
closed = 1;
nodes = (
"229 747 LINE",
"392 827 LINE",
"556 747 LINE",
"556 867 LINE",
"392 948 LINE",
"229 867 LINE"
);
},
{
closed = 1;
nodes = (
"292 244 LINE",
"392 460 LINE",
"490 244 LINE"
);
},
{
closed = 1;
nodes = (
"495 1000 LINE",
"495 1020 OFFCURVE",
"505 1034 OFFCURVE",
"524 1034 CURVE SMOOTH",
"542 1034 OFFCURVE",
"548 1025 OFFCURVE",
"548 1014 CURVE SMOOTH",
"548 983 OFFCURVE",
"481 982 OFFCURVE",
"481 930 CURVE",
"579 930 LINE",
"584 958 OFFCURVE",
"651 955 OFFCURVE",
"651 1032 CURVE SMOOTH",
"651 1088 OFFCURVE",
"607 1119 OFFCURVE",
"530 1119 CURVE SMOOTH",
"443 1119 OFFCURVE",
"396 1066 OFFCURVE",
"396 1000 CURVE"
);
}
);
width = 786;
}
);
leftKerningGroup = A;
note = uni1EA8.ss01;
rightKerningGroup = A;
},
